<svg width="83" height="94" viewBox="0 0 83 94" fill="none" xmlns="http://www.w3.org/2000/svg">
<path d="M82.125 9.5H75.875V4.50156C75.875 2.09375 74.0656 0.125 71.8594 0.125H51.7594C49.5594 0.125 47.75 2.09375 47.75 4.50156V9.5H10.1578L0.875 28.25H7.32031V40.75H6.27656L1.07031 47L6.27656 53.25H7.41719V56.6062C7.41719 57.4547 8.07188 58.1406 8.88281 58.1406C11.3062 58.1406 13.2781 60.2094 13.2781 62.7516C13.2781 65.2938 11.3062 67.3625 8.88281 67.3625C6.45937 67.3625 4.4875 65.2938 4.4875 62.7516C4.4875 61.9031 3.83125 61.2172 3.02188 61.2172C2.21094 61.2172 1.55625 61.9031 1.55625 62.7516C1.55937 66.9922 4.84375 70.4375 8.88281 70.4375C12.9219 70.4375 16.2078 66.9922 16.2078 62.7531C16.2078 59.0422 13.6875 55.9359 10.3484 55.225V53.25H11.4875L16.6953 47L11.4875 40.75H10.4453V28.25H47.75V39.4984C47.75 41.5734 49.0953 43.3125 50.875 43.7594V93.875H54.9766V84.5L68.6484 89.1875L54.9766 93.875H72.75V43.7578C74.5312 43.3125 75.875 41.5734 75.875 39.4984V28.25H82.125V23.5625H78.8781L82.125 17.3984V9.5ZM8.12969 23.5625L11.7797 16.0641L15.7266 23.5625H8.12969ZM15.0391 14.1875H21.5281L18.2844 20.3516L15.0391 14.1875ZM20.8422 23.5625L24.0875 17.3984L27.3344 23.5625H20.8422ZM26.6469 14.1875H33.1359L29.8906 20.3516L26.6469 14.1875ZM32.4516 23.5625L35.6953 17.3984L38.9391 23.5625H32.4516ZM38.2547 14.1875H44.7438L41.5 20.3516L38.2547 14.1875ZM47.75 23.5625H44.0578L47.3016 17.3984L47.75 18.25V23.5625ZM68.6484 84.5L54.9766 79.8125L68.6484 75.125V84.5ZM54.9766 75.125V65.75L68.6484 70.4406L54.9766 75.125ZM68.6484 65.75L54.9766 61.0625L68.6484 56.375V65.75ZM54.9766 56.375V47.0031L68.6484 51.6875L54.9766 56.375ZM68.6484 47.0031L59.5312 43.875H68.6484V47.0031ZM70.9922 20.825C70.9922 22.3297 69.9359 23.5625 68.6484 23.5625H54.5828C53.2953 23.5625 52.2422 22.3297 52.2422 20.825V7.55937C52.2422 6.04531 53.2953 4.8125 54.5828 4.8125H68.6484C69.9359 4.8125 70.9922 6.04531 70.9922 7.55937V20.825ZM76.3203 20.3516L75.875 19.5047V14.1875H79.5641L76.3203 20.3516Z" fill="#00091B"/>
</svg>
