<svg width="76" height="100" viewBox="0 0 76 100" fill="none" xmlns="http://www.w3.org/2000/svg">
<path d="M6.75 0C5.0924 0 3.50268 0.65848 2.33058 1.83058C1.15848 3.00269 0.5 4.5924 0.5 6.25V93.75C0.5 95.4076 1.15848 96.9973 2.33058 98.1694C3.50268 99.3415 5.0924 100 6.75 100H25.5V78.125C25.5 77.2962 25.8292 76.5013 26.4153 75.9153C27.0013 75.3292 27.7962 75 28.625 75H47.375C48.2038 75 48.9987 75.3292 49.5847 75.9153C50.1708 76.5013 50.5 77.2962 50.5 78.125V100H69.25C70.9076 100 72.4973 99.3415 73.6694 98.1694C74.8415 96.9973 75.5 95.4076 75.5 93.75V6.25C75.5 4.5924 74.8415 3.00269 73.6694 1.83058C72.4973 0.65848 70.9076 0 69.25 0L6.75 0ZM13 15.625C13 14.7962 13.3292 14.0013 13.9153 13.4153C14.5013 12.8292 15.2962 12.5 16.125 12.5H22.375C23.2038 12.5 23.9987 12.8292 24.5847 13.4153C25.1708 14.0013 25.5 14.7962 25.5 15.625V21.875C25.5 22.7038 25.1708 23.4987 24.5847 24.0847C23.9987 24.6708 23.2038 25 22.375 25H16.125C15.2962 25 14.5013 24.6708 13.9153 24.0847C13.3292 23.4987 13 22.7038 13 21.875V15.625ZM31.75 15.625C31.75 14.7962 32.0792 14.0013 32.6653 13.4153C33.2513 12.8292 34.0462 12.5 34.875 12.5H41.125C41.9538 12.5 42.7487 12.8292 43.3347 13.4153C43.9208 14.0013 44.25 14.7962 44.25 15.625V21.875C44.25 22.7038 43.9208 23.4987 43.3347 24.0847C42.7487 24.6708 41.9538 25 41.125 25H34.875C34.0462 25 33.2513 24.6708 32.6653 24.0847C32.0792 23.4987 31.75 22.7038 31.75 21.875V15.625ZM53.625 12.5H59.875C60.7038 12.5 61.4987 12.8292 62.0847 13.4153C62.6708 14.0013 63 14.7962 63 15.625V21.875C63 22.7038 62.6708 23.4987 62.0847 24.0847C61.4987 24.6708 60.7038 25 59.875 25H53.625C52.7962 25 52.0013 24.6708 51.4153 24.0847C50.8292 23.4987 50.5 22.7038 50.5 21.875V15.625C50.5 14.7962 50.8292 14.0013 51.4153 13.4153C52.0013 12.8292 52.7962 12.5 53.625 12.5ZM13 34.375C13 33.5462 13.3292 32.7513 13.9153 32.1653C14.5013 31.5792 15.2962 31.25 16.125 31.25H22.375C23.2038 31.25 23.9987 31.5792 24.5847 32.1653C25.1708 32.7513 25.5 33.5462 25.5 34.375V40.625C25.5 41.4538 25.1708 42.2487 24.5847 42.8347C23.9987 43.4208 23.2038 43.75 22.375 43.75H16.125C15.2962 43.75 14.5013 43.4208 13.9153 42.8347C13.3292 42.2487 13 41.4538 13 40.625V34.375ZM34.875 31.25H41.125C41.9538 31.25 42.7487 31.5792 43.3347 32.1653C43.9208 32.7513 44.25 33.5462 44.25 34.375V40.625C44.25 41.4538 43.9208 42.2487 43.3347 42.8347C42.7487 43.4208 41.9538 43.75 41.125 43.75H34.875C34.0462 43.75 33.2513 43.4208 32.6653 42.8347C32.0792 42.2487 31.75 41.4538 31.75 40.625V34.375C31.75 33.5462 32.0792 32.7513 32.6653 32.1653C33.2513 31.5792 34.0462 31.25 34.875 31.25ZM50.5 34.375C50.5 33.5462 50.8292 32.7513 51.4153 32.1653C52.0013 31.5792 52.7962 31.25 53.625 31.25H59.875C60.7038 31.25 61.4987 31.5792 62.0847 32.1653C62.6708 32.7513 63 33.5462 63 34.375V40.625C63 41.4538 62.6708 42.2487 62.0847 42.8347C61.4987 43.4208 60.7038 43.75 59.875 43.75H53.625C52.7962 43.75 52.0013 43.4208 51.4153 42.8347C50.8292 42.2487 50.5 41.4538 50.5 40.625V34.375ZM16.125 50H22.375C23.2038 50 23.9987 50.3292 24.5847 50.9153C25.1708 51.5013 25.5 52.2962 25.5 53.125V59.375C25.5 60.2038 25.1708 60.9987 24.5847 61.5847C23.9987 62.1708 23.2038 62.5 22.375 62.5H16.125C15.2962 62.5 14.5013 62.1708 13.9153 61.5847C13.3292 60.9987 13 60.2038 13 59.375V53.125C13 52.2962 13.3292 51.5013 13.9153 50.9153C14.5013 50.3292 15.2962 50 16.125 50ZM31.75 53.125C31.75 52.2962 32.0792 51.5013 32.6653 50.9153C33.2513 50.3292 34.0462 50 34.875 50H41.125C41.9538 50 42.7487 50.3292 43.3347 50.9153C43.9208 51.5013 44.25 52.2962 44.25 53.125V59.375C44.25 60.2038 43.9208 60.9987 43.3347 61.5847C42.7487 62.1708 41.9538 62.5 41.125 62.5H34.875C34.0462 62.5 33.2513 62.1708 32.6653 61.5847C32.0792 60.9987 31.75 60.2038 31.75 59.375V53.125ZM53.625 50H59.875C60.7038 50 61.4987 50.3292 62.0847 50.9153C62.6708 51.5013 63 52.2962 63 53.125V59.375C63 60.2038 62.6708 60.9987 62.0847 61.5847C61.4987 62.1708 60.7038 62.5 59.875 62.5H53.625C52.7962 62.5 52.0013 62.1708 51.4153 61.5847C50.8292 60.9987 50.5 60.2038 50.5 59.375V53.125C50.5 52.2962 50.8292 51.5013 51.4153 50.9153C52.0013 50.3292 52.7962 50 53.625 50Z" fill="#00091B"/>
</svg>
