<svg width="89" height="82" viewBox="0 0 89 82" fill="none" xmlns="http://www.w3.org/2000/svg">
<path d="M84.638 16.4445L55.6102 35.5V19.4167C55.612 18.8911 55.4646 18.3757 55.1852 17.9305C54.9057 17.4853 54.5057 17.1285 54.0315 16.9016C53.5574 16.6747 53.0285 16.587 52.5065 16.6487C51.9845 16.7103 51.4907 16.9189 51.0825 17.2501L33.5825 31.8889H22.2769V4.27783L5.61024 0.527832V31.8889H0.0546875V79.1112C0.0546875 79.8479 0.347345 80.5544 0.86828 81.0753C1.38921 81.5963 2.09575 81.8889 2.83247 81.8889H86.1658C86.9025 81.8889 87.609 81.5963 88.13 81.0753C88.6509 80.5544 88.9436 79.8479 88.9436 79.1112V18.7501C88.941 18.2498 88.8034 17.7596 88.5453 17.3311C88.2871 16.9026 87.9181 16.5517 87.4771 16.3156C87.0361 16.0794 86.5396 15.9668 86.0398 15.9895C85.5401 16.0121 85.0558 16.1694 84.638 16.4445ZM33.388 73.5556H11.1658V68H33.388V73.5556ZM33.388 62.4445H11.1658V56.8889H33.388V62.4445ZM33.388 51.3334H11.1658V45.7778H33.388V51.3334ZM55.6102 73.5556H50.0547V65.2223H55.6102V73.5556ZM55.6102 56.8889H50.0547V48.5556H55.6102V56.8889ZM66.7214 73.5556H61.1658V65.2223H66.7214V73.5556ZM66.7214 56.8889H61.1658V48.5556H66.7214V56.8889ZM77.8325 73.5556H72.2769V65.2223H77.8325V73.5556ZM77.8325 56.8889H72.2769V48.5556H77.8325V56.8889Z" fill="#00091B"/>
</svg>
