<svg width="113" height="82" viewBox="0 0 113 82" fill="none" xmlns="http://www.w3.org/2000/svg">
<path d="M0.25 6.75C0.25 3.29297 3.04297 0.5 6.5 0.5H106.5C109.957 0.5 112.75 3.29297 112.75 6.75V13.7031C112.75 16.7695 110.27 19.25 107.203 19.25C99.918 19.25 94 25.1484 94 32.4531V56.8477C91.4805 56.8477 88.9609 57.6094 86.8125 59.1328C83.2969 61.5547 78.9805 63.0977 75.25 63.0977V38C75.25 27.6484 66.8516 19.25 56.5 19.25C46.1484 19.25 37.75 27.6484 37.75 38V63.0977C34.0391 63.0977 29.7031 61.5547 26.207 59.1328C24.0391 57.6094 21.5195 56.8477 19 56.8477V32.4531C19 25.1484 13.1016 19.25 5.79688 19.25C2.73047 19.25 0.25 16.7695 0.25 13.7031V6.75ZM60.1133 64.1523C64.5078 67.1797 69.8789 69.25 75.25 69.25C80.5039 69.25 86.0703 67.1406 90.3672 64.1523C92.6914 62.4922 95.8555 62.6289 98.0234 64.4844C100.836 66.8086 104.371 68.5859 107.906 69.4062C111.266 70.1875 113.355 73.5469 112.574 76.9062C111.793 80.2656 108.434 82.3555 105.074 81.5742C100.289 80.4609 96.3047 78.3516 93.707 76.6914C88.043 79.7383 81.6953 81.75 75.25 81.75C69.0195 81.75 63.4141 79.8164 59.5469 78.0586C58.4141 77.5312 57.3789 77.0234 56.5 76.5547C55.6211 77.0234 54.6055 77.5508 53.4531 78.0586C49.5859 79.8164 43.9805 81.75 37.75 81.75C31.3047 81.75 24.957 79.7383 19.293 76.7109C16.6758 78.3516 12.7109 80.4805 7.92578 81.5938C4.56641 82.375 1.20703 80.2852 0.425781 76.9258C-0.355469 73.5664 1.73437 70.207 5.09375 69.4258C8.62891 68.6055 12.1641 66.8281 14.9766 64.5039C17.1445 62.668 20.3086 62.5312 22.6328 64.1719C26.9492 67.1406 32.4961 69.25 37.75 69.25C43.1211 69.25 48.4922 67.1797 52.8867 64.1523C55.0547 62.6094 57.9453 62.6094 60.1133 64.1523Z" fill="#00091B"/>
</svg>
