<svg width="35" height="38" viewBox="0 0 35 38" fill="none" xmlns="http://www.w3.org/2000/svg">
<path d="M15.3906 19.7031H18.2031V28.8438M2.03125 13.375H32.9688M24.5312 7.75V2.125M10.4688 7.75V2.125M4.84375 35.875H30.1562C30.9022 35.875 31.6175 35.5787 32.145 35.0512C32.6724 34.5238 32.9688 33.8084 32.9688 33.0625V7.75C32.9688 7.00408 32.6724 6.28871 32.145 5.76126C31.6175 5.23382 30.9022 4.9375 30.1562 4.9375H4.84375C4.09783 4.9375 3.38246 5.23382 2.85501 5.76126C2.32757 6.28871 2.03125 7.00408 2.03125 7.75V33.0625C2.03125 33.8084 2.32757 34.5238 2.85501 35.0512C3.38246 35.5787 4.09783 35.875 4.84375 35.875Z" stroke="#00091B" stroke-width="3" stroke-linecap="round" stroke-linejoin="round"/>
</svg>
