<svg width="60" height="626" viewBox="0 0 60 626" fill="none" xmlns="http://www.w3.org/2000/svg">
<path d="M1.5 313.866C0.833333 313.481 0.833334 312.519 1.5 312.134L9.75 307.371C10.4167 306.986 11.25 307.467 11.25 308.237L11.25 317.763C11.25 318.533 10.4167 319.014 9.75 318.629L1.5 313.866Z" fill="white"/>
<rect x="28" width="4" height="626" fill="white"/>
<rect x="24" y="288" width="12" height="50" rx="1" fill="white"/>
<path d="M58.5 312.134C59.1667 312.519 59.1667 313.481 58.5 313.866L50.25 318.629C49.5833 319.014 48.75 318.533 48.75 317.763L48.75 308.237C48.75 307.467 49.5833 306.986 50.25 307.371L58.5 312.134Z" fill="white"/>
</svg>
