<svg width="370" height="264" viewBox="0 0 370 264" fill="none" xmlns="http://www.w3.org/2000/svg">
<path d="M21.6163 14.24C20.5763 14.24 19.6313 13.995 18.7813 13.505C17.9313 13.005 17.2613 12.325 16.7713 11.465C16.2913 10.605 16.0513 9.66 16.0513 8.63C16.0513 7.6 16.2913 6.66 16.7713 5.81C17.2613 4.95 17.9313 4.27 18.7813 3.77C19.6313 3.27 20.5763 3.02 21.6163 3.02C22.6563 3.02 23.5963 3.27 24.4363 3.77C25.2863 4.27 25.9563 4.95 26.4463 5.81C26.9363 6.66 27.1813 7.6 27.1813 8.63C27.1813 9.66 26.9363 10.605 26.4463 11.465C25.9663 12.325 25.3013 13.005 24.4513 13.505C23.6013 13.995 22.6563 14.24 21.6163 14.24ZM21.6163 12.635C22.3263 12.635 22.9763 12.465 23.5663 12.125C24.1563 11.785 24.6213 11.315 24.9613 10.715C25.3013 10.105 25.4713 9.41 25.4713 8.63C25.4713 7.85 25.3013 7.16 24.9613 6.56C24.6213 5.95 24.1563 5.475 23.5663 5.135C22.9763 4.795 22.3263 4.625 21.6163 4.625C20.9063 4.625 20.2563 4.795 19.6663 5.135C19.0763 5.475 18.6063 5.95 18.2563 6.56C17.9163 7.16 17.7463 7.85 17.7463 8.63C17.7463 9.41 17.9163 10.105 18.2563 10.715C18.6063 11.315 19.0763 11.785 19.6663 12.125C20.2563 12.465 20.9063 12.635 21.6163 12.635ZM30.7211 7.88H28.2911V6.35H34.8161V7.88H32.3711V14H30.7211V7.88ZM49.8549 10.175C49.8549 10.925 49.6699 11.59 49.2999 12.17C48.9299 12.74 48.4149 13.2 47.7549 13.55C47.0949 13.89 46.3349 14.105 45.4749 14.195V17.24H43.8249V14.195C42.5149 14.065 41.4549 13.645 40.6449 12.935C39.8449 12.225 39.4449 11.305 39.4449 10.175C39.4449 9.425 39.6299 8.765 39.9999 8.195C40.3699 7.615 40.8849 7.155 41.5449 6.815C42.2049 6.465 42.9649 6.245 43.8249 6.155V3.26H45.4749V6.155C46.3349 6.245 47.0949 6.465 47.7549 6.815C48.4149 7.155 48.9299 7.615 49.2999 8.195C49.6699 8.765 49.8549 9.425 49.8549 10.175ZM41.0349 10.175C41.0349 10.875 41.2799 11.445 41.7699 11.885C42.2699 12.325 42.9549 12.6 43.8249 12.71V7.64C42.9549 7.75 42.2699 8.03 41.7699 8.48C41.2799 8.92 41.0349 9.485 41.0349 10.175ZM45.4749 12.71C46.3349 12.6 47.0149 12.325 47.5149 11.885C48.0149 11.435 48.2649 10.865 48.2649 10.175C48.2649 9.485 48.0149 8.92 47.5149 8.48C47.0149 8.03 46.3349 7.75 45.4749 7.64V12.71ZM53.5539 13.58L50.3739 6.35H52.2189L54.3789 11.555H54.4389L56.5389 6.35H58.3539L53.6289 17.24H51.8889L53.5539 13.58ZM59.4317 6.35H61.0817V9.38H64.7717V6.35H66.4217V14H64.7717V10.925H61.0817V14H59.4317V6.35ZM67.8729 12.53H68.7129C68.9329 12.24 69.1129 11.77 69.2529 11.12C69.4029 10.47 69.4779 9.8 69.4779 9.11V6.35H75.7629V12.53H76.9329V16.28H75.4029V14H69.4029V16.28H67.8729V12.53ZM74.1579 12.53V7.835H71.0829V9.245C71.0829 9.835 71.0229 10.42 70.9029 11C70.7929 11.57 70.6329 12.08 70.4229 12.53H74.1579ZM80.7868 14.24C80.2368 14.24 79.7468 14.135 79.3168 13.925C78.8868 13.705 78.5518 13.4 78.3118 13.01C78.0718 12.61 77.9518 12.16 77.9518 11.66C77.9518 10.87 78.2468 10.245 78.8368 9.785C79.4368 9.325 80.1918 9.095 81.1018 9.095C81.5518 9.095 81.9568 9.14 82.3168 9.23C82.6768 9.31 82.9618 9.4 83.1718 9.5V9.11C83.1718 8.64 82.9968 8.26 82.6468 7.97C82.2968 7.67 81.8468 7.52 81.2968 7.52C80.9068 7.52 80.5368 7.605 80.1868 7.775C79.8468 7.945 79.5718 8.18 79.3618 8.48L78.2068 7.595C78.5468 7.125 78.9868 6.76 79.5268 6.5C80.0668 6.24 80.6668 6.11 81.3268 6.11C82.4368 6.11 83.2918 6.385 83.8918 6.935C84.4918 7.475 84.7918 8.24 84.7918 9.23V14H83.1718V13.085H83.0968C82.8768 13.415 82.5668 13.69 82.1668 13.91C81.7668 14.13 81.3068 14.24 80.7868 14.24ZM81.0718 12.875C81.4718 12.875 81.8318 12.78 82.1518 12.59C82.4718 12.4 82.7218 12.145 82.9018 11.825C83.0818 11.505 83.1718 11.16 83.1718 10.79C82.9418 10.66 82.6718 10.555 82.3618 10.475C82.0618 10.395 81.7468 10.355 81.4168 10.355C80.7968 10.355 80.3418 10.48 80.0518 10.73C79.7618 10.97 79.6168 11.285 79.6168 11.675C79.6168 12.025 79.7518 12.315 80.0218 12.545C80.2918 12.765 80.6418 12.875 81.0718 12.875ZM86.5749 6.35H88.5399L90.9249 10.955H90.9999L93.3549 6.35H95.3349V14H93.7149V10.355L93.8049 8.915H93.7149L91.5399 13.04H90.3849L88.1949 8.915H88.1049L88.1949 10.355V14H86.5749V6.35ZM100.661 14.24C99.9111 14.24 99.2361 14.065 98.6361 13.715C98.0461 13.365 97.5811 12.885 97.2411 12.275C96.9111 11.655 96.7461 10.96 96.7461 10.19C96.7461 9.46 96.9061 8.785 97.2261 8.165C97.5561 7.535 98.0111 7.035 98.5911 6.665C99.1711 6.295 99.8311 6.11 100.571 6.11C101.341 6.11 102.006 6.28 102.566 6.62C103.136 6.96 103.566 7.425 103.856 8.015C104.156 8.605 104.306 9.27 104.306 10.01C104.306 10.15 104.291 10.325 104.261 10.535H98.3961C98.4561 11.245 98.7061 11.795 99.1461 12.185C99.5961 12.565 100.116 12.755 100.706 12.755C101.176 12.755 101.581 12.65 101.921 12.44C102.271 12.22 102.551 11.925 102.761 11.555L104.156 12.215C103.796 12.845 103.326 13.34 102.746 13.7C102.166 14.06 101.471 14.24 100.661 14.24ZM102.626 9.275C102.606 9.005 102.521 8.74 102.371 8.48C102.221 8.21 101.991 7.985 101.681 7.805C101.381 7.625 101.011 7.535 100.571 7.535C100.041 7.535 99.5911 7.695 99.2211 8.015C98.8611 8.325 98.6111 8.745 98.4711 9.275H102.626ZM105.809 6.35H107.459V9.38H111.149V6.35H112.799V14H111.149V10.925H107.459V14H105.809V6.35ZM116.605 7.88H114.175V6.35H120.7V7.88H118.255V14H116.605V7.88ZM122.083 6.35H123.733V9.38H127.423V6.35H129.073V14H127.423V10.925H123.733V14H122.083V6.35ZM134.501 14.24C133.731 14.24 133.041 14.065 132.431 13.715C131.821 13.355 131.346 12.865 131.006 12.245C130.666 11.625 130.496 10.935 130.496 10.175C130.496 9.415 130.666 8.725 131.006 8.105C131.346 7.485 131.821 7 132.431 6.65C133.041 6.29 133.731 6.11 134.501 6.11C135.271 6.11 135.961 6.29 136.571 6.65C137.181 7.01 137.656 7.5 137.996 8.12C138.336 8.74 138.506 9.425 138.506 10.175C138.506 10.935 138.336 11.625 137.996 12.245C137.656 12.865 137.181 13.355 136.571 13.715C135.961 14.065 135.271 14.24 134.501 14.24ZM134.501 12.725C134.921 12.725 135.311 12.625 135.671 12.425C136.031 12.215 136.316 11.92 136.526 11.54C136.746 11.15 136.856 10.695 136.856 10.175C136.856 9.655 136.746 9.205 136.526 8.825C136.316 8.445 136.031 8.155 135.671 7.955C135.311 7.745 134.921 7.64 134.501 7.64C134.081 7.64 133.691 7.745 133.331 7.955C132.971 8.155 132.681 8.445 132.461 8.825C132.251 9.205 132.146 9.655 132.146 10.175C132.146 10.695 132.251 11.15 132.461 11.54C132.681 11.92 132.971 12.215 133.331 12.425C133.691 12.625 134.081 12.725 134.501 12.725ZM139.881 6.35H145.236V7.805H141.531V14H139.881V6.35ZM150.072 14.24C149.302 14.24 148.612 14.065 148.002 13.715C147.392 13.355 146.917 12.865 146.577 12.245C146.237 11.625 146.067 10.935 146.067 10.175C146.067 9.415 146.237 8.725 146.577 8.105C146.917 7.485 147.392 7 148.002 6.65C148.612 6.29 149.302 6.11 150.072 6.11C150.842 6.11 151.532 6.29 152.142 6.65C152.752 7.01 153.227 7.5 153.567 8.12C153.907 8.74 154.077 9.425 154.077 10.175C154.077 10.935 153.907 11.625 153.567 12.245C153.227 12.865 152.752 13.355 152.142 13.715C151.532 14.065 150.842 14.24 150.072 14.24ZM150.072 12.725C150.492 12.725 150.882 12.625 151.242 12.425C151.602 12.215 151.887 11.92 152.097 11.54C152.317 11.15 152.427 10.695 152.427 10.175C152.427 9.655 152.317 9.205 152.097 8.825C151.887 8.445 151.602 8.155 151.242 7.955C150.882 7.745 150.492 7.64 150.072 7.64C149.652 7.64 149.262 7.745 148.902 7.955C148.542 8.155 148.252 8.445 148.032 8.825C147.822 9.205 147.717 9.655 147.717 10.175C147.717 10.695 147.822 11.15 148.032 11.54C148.252 11.92 148.542 12.215 148.902 12.425C149.262 12.625 149.652 12.725 150.072 12.725ZM7.57973 33.24C6.80973 33.24 6.11973 33.065 5.50973 32.715C4.90973 32.355 4.43473 31.8 4.08473 31.05C3.73473 30.3 3.55973 29.355 3.55973 28.215C3.55973 27.015 3.69473 26.045 3.96473 25.305C4.23473 24.565 4.60973 23.975 5.08973 23.535C5.44973 23.205 5.88473 22.95 6.39473 22.77C6.90473 22.58 7.45473 22.485 8.04473 22.485C8.41473 22.485 8.69473 22.47 8.88473 22.44C9.07473 22.4 9.20973 22.35 9.28973 22.29C9.36973 22.22 9.42973 22.125 9.46973 22.005H10.9997C10.8797 22.725 10.5997 23.22 10.1597 23.49C9.71973 23.76 9.05473 23.895 8.16473 23.895C7.67473 23.895 7.27473 23.955 6.96473 24.075C6.66473 24.185 6.39973 24.34 6.16973 24.54C5.61973 25.04 5.29973 25.675 5.20973 26.445H5.29973C5.55973 26.065 5.91473 25.75 6.36473 25.5C6.82473 25.24 7.36973 25.11 7.99973 25.11C8.66973 25.11 9.27973 25.295 9.82973 25.665C10.3797 26.025 10.8097 26.52 11.1197 27.15C11.4297 27.77 11.5847 28.445 11.5847 29.175C11.5847 29.935 11.4147 30.625 11.0747 31.245C10.7347 31.865 10.2597 32.355 9.64973 32.715C9.03973 33.065 8.34973 33.24 7.57973 33.24ZM7.57973 31.725C7.99973 31.725 8.38973 31.625 8.74973 31.425C9.10973 31.215 9.39473 30.92 9.60473 30.54C9.82473 30.15 9.93473 29.695 9.93473 29.175C9.93473 28.655 9.82473 28.205 9.60473 27.825C9.39473 27.445 9.10973 27.155 8.74973 26.955C8.38973 26.745 7.99973 26.64 7.57973 26.64C7.15973 26.64 6.76973 26.745 6.40973 26.955C6.05973 27.155 5.77473 27.445 5.55473 27.825C5.34473 28.205 5.23973 28.655 5.23973 29.175C5.23973 29.695 5.34473 30.15 5.55473 30.54C5.77473 30.92 6.05973 31.215 6.40973 31.425C6.76973 31.625 7.15973 31.725 7.57973 31.725ZM16.4618 33.24C15.7118 33.24 15.0368 33.065 14.4368 32.715C13.8468 32.365 13.3818 31.885 13.0418 31.275C12.7118 30.655 12.5468 29.96 12.5468 29.19C12.5468 28.46 12.7068 27.785 13.0268 27.165C13.3568 26.535 13.8118 26.035 14.3918 25.665C14.9718 25.295 15.6318 25.11 16.3718 25.11C17.1418 25.11 17.8068 25.28 18.3668 25.62C18.9368 25.96 19.3668 26.425 19.6568 27.015C19.9568 27.605 20.1068 28.27 20.1068 29.01C20.1068 29.15 20.0918 29.325 20.0618 29.535H14.1968C14.2568 30.245 14.5068 30.795 14.9468 31.185C15.3968 31.565 15.9168 31.755 16.5068 31.755C16.9768 31.755 17.3818 31.65 17.7218 31.44C18.0718 31.22 18.3518 30.925 18.5618 30.555L19.9568 31.215C19.5968 31.845 19.1268 32.34 18.5468 32.7C17.9668 33.06 17.2718 33.24 16.4618 33.24ZM18.4268 28.275C18.4068 28.005 18.3218 27.74 18.1718 27.48C18.0218 27.21 17.7918 26.985 17.4818 26.805C17.1818 26.625 16.8118 26.535 16.3718 26.535C15.8418 26.535 15.3918 26.695 15.0218 27.015C14.6618 27.325 14.4118 27.745 14.2718 28.275H18.4268ZM23.3529 26.88H20.9229V25.35H27.4479V26.88H25.0029V33H23.3529V26.88ZM32.2696 33.24C31.4996 33.24 30.8096 33.065 30.1996 32.715C29.5896 32.355 29.1146 31.865 28.7746 31.245C28.4346 30.625 28.2646 29.935 28.2646 29.175C28.2646 28.415 28.4346 27.725 28.7746 27.105C29.1146 26.485 29.5896 26 30.1996 25.65C30.8096 25.29 31.4996 25.11 32.2696 25.11C33.0396 25.11 33.7296 25.29 34.3396 25.65C34.9496 26.01 35.4246 26.5 35.7646 27.12C36.1046 27.74 36.2746 28.425 36.2746 29.175C36.2746 29.935 36.1046 30.625 35.7646 31.245C35.4246 31.865 34.9496 32.355 34.3396 32.715C33.7296 33.065 33.0396 33.24 32.2696 33.24ZM32.2696 31.725C32.6896 31.725 33.0796 31.625 33.4396 31.425C33.7996 31.215 34.0846 30.92 34.2946 30.54C34.5146 30.15 34.6246 29.695 34.6246 29.175C34.6246 28.655 34.5146 28.205 34.2946 27.825C34.0846 27.445 33.7996 27.155 33.4396 26.955C33.0796 26.745 32.6896 26.64 32.2696 26.64C31.8496 26.64 31.4596 26.745 31.0996 26.955C30.7396 27.155 30.4496 27.445 30.2296 27.825C30.0196 28.205 29.9146 28.655 29.9146 29.175C29.9146 29.695 30.0196 30.15 30.2296 30.54C30.4496 30.92 30.7396 31.215 31.0996 31.425C31.4596 31.625 31.8496 31.725 32.2696 31.725ZM37.6495 25.35H39.2995V28.38H42.9895V25.35H44.6395V33H42.9895V29.925H39.2995V33H37.6495V25.35ZM48.8825 33.24C48.3325 33.24 47.8425 33.135 47.4125 32.925C46.9825 32.705 46.6475 32.4 46.4075 32.01C46.1675 31.61 46.0475 31.16 46.0475 30.66C46.0475 29.87 46.3425 29.245 46.9325 28.785C47.5325 28.325 48.2875 28.095 49.1975 28.095C49.6475 28.095 50.0525 28.14 50.4125 28.23C50.7725 28.31 51.0575 28.4 51.2675 28.5V28.11C51.2675 27.64 51.0925 27.26 50.7425 26.97C50.3925 26.67 49.9425 26.52 49.3925 26.52C49.0025 26.52 48.6325 26.605 48.2825 26.775C47.9425 26.945 47.6675 27.18 47.4575 27.48L46.3025 26.595C46.6425 26.125 47.0825 25.76 47.6225 25.5C48.1625 25.24 48.7625 25.11 49.4225 25.11C50.5325 25.11 51.3875 25.385 51.9875 25.935C52.5875 26.475 52.8875 27.24 52.8875 28.23V33H51.2675V32.085H51.1925C50.9725 32.415 50.6625 32.69 50.2625 32.91C49.8625 33.13 49.4025 33.24 48.8825 33.24ZM49.1675 31.875C49.5675 31.875 49.9275 31.78 50.2475 31.59C50.5675 31.4 50.8175 31.145 50.9975 30.825C51.1775 30.505 51.2675 30.16 51.2675 29.79C51.0375 29.66 50.7675 29.555 50.4575 29.475C50.1575 29.395 49.8425 29.355 49.5125 29.355C48.8925 29.355 48.4375 29.48 48.1475 29.73C47.8575 29.97 47.7125 30.285 47.7125 30.675C47.7125 31.025 47.8475 31.315 48.1175 31.545C48.3875 31.765 48.7375 31.875 49.1675 31.875ZM57.7362 31.53H58.5762C58.7962 31.24 58.9762 30.77 59.1162 30.12C59.2662 29.47 59.3412 28.8 59.3412 28.11V25.35H65.6262V31.53H66.7962V35.28H65.2662V33H59.2662V35.28H57.7362V31.53ZM64.0212 31.53V26.835H60.9462V28.245C60.9462 28.835 60.8862 29.42 60.7662 30C60.6562 30.57 60.4962 31.08 60.2862 31.53H64.0212ZM71.835 33.24C71.065 33.24 70.375 33.065 69.765 32.715C69.155 32.355 68.68 31.865 68.34 31.245C68 30.625 67.83 29.935 67.83 29.175C67.83 28.415 68 27.725 68.34 27.105C68.68 26.485 69.155 26 69.765 25.65C70.375 25.29 71.065 25.11 71.835 25.11C72.605 25.11 73.295 25.29 73.905 25.65C74.515 26.01 74.99 26.5 75.33 27.12C75.67 27.74 75.84 28.425 75.84 29.175C75.84 29.935 75.67 30.625 75.33 31.245C74.99 31.865 74.515 32.355 73.905 32.715C73.295 33.065 72.605 33.24 71.835 33.24ZM71.835 31.725C72.255 31.725 72.645 31.625 73.005 31.425C73.365 31.215 73.65 30.92 73.86 30.54C74.08 30.15 74.19 29.695 74.19 29.175C74.19 28.655 74.08 28.205 73.86 27.825C73.65 27.445 73.365 27.155 73.005 26.955C72.645 26.745 72.255 26.64 71.835 26.64C71.415 26.64 71.025 26.745 70.665 26.955C70.305 27.155 70.015 27.445 69.795 27.825C69.585 28.205 69.48 28.655 69.48 29.175C69.48 29.695 69.585 30.15 69.795 30.54C70.015 30.92 70.305 31.215 70.665 31.425C71.025 31.625 71.415 31.725 71.835 31.725ZM80.877 25.35H82.527V28.725H82.617L85.467 25.35H87.477V25.44L84.387 28.98L87.627 32.91V33H85.632L82.617 29.25H82.527V33H80.877V25.35ZM88.5807 25.35H90.1557V26.355H90.2307C90.4507 26.005 90.7757 25.71 91.2057 25.47C91.6357 25.23 92.1207 25.11 92.6607 25.11C93.3507 25.11 93.9757 25.285 94.5357 25.635C95.0957 25.985 95.5357 26.47 95.8557 27.09C96.1857 27.7 96.3507 28.395 96.3507 29.175C96.3507 29.955 96.1857 30.655 95.8557 31.275C95.5357 31.885 95.0957 32.365 94.5357 32.715C93.9757 33.065 93.3507 33.24 92.6607 33.24C92.1207 33.24 91.6357 33.12 91.2057 32.88C90.7757 32.64 90.4507 32.35 90.2307 32.01H90.1557L90.2307 33.075V36.24H88.5807V25.35ZM92.4207 31.725C92.8207 31.725 93.1957 31.62 93.5457 31.41C93.8957 31.2 94.1757 30.9 94.3857 30.51C94.5957 30.12 94.7007 29.675 94.7007 29.175C94.7007 28.675 94.5957 28.235 94.3857 27.855C94.1757 27.465 93.8957 27.165 93.5457 26.955C93.1957 26.745 92.8207 26.64 92.4207 26.64C92.0207 26.64 91.6457 26.745 91.2957 26.955C90.9557 27.165 90.6807 27.465 90.4707 27.855C90.2607 28.235 90.1557 28.675 90.1557 29.175C90.1557 29.675 90.2607 30.12 90.4707 30.51C90.6807 30.9 90.9557 31.2 91.2957 31.41C91.6457 31.62 92.0207 31.725 92.4207 31.725ZM101.44 33.24C100.67 33.24 99.9795 33.065 99.3695 32.715C98.7595 32.355 98.2845 31.865 97.9445 31.245C97.6045 30.625 97.4345 29.935 97.4345 29.175C97.4345 28.415 97.6045 27.725 97.9445 27.105C98.2845 26.485 98.7595 26 99.3695 25.65C99.9795 25.29 100.67 25.11 101.44 25.11C102.21 25.11 102.9 25.29 103.51 25.65C104.12 26.01 104.595 26.5 104.935 27.12C105.275 27.74 105.445 28.425 105.445 29.175C105.445 29.935 105.275 30.625 104.935 31.245C104.595 31.865 104.12 32.355 103.51 32.715C102.9 33.065 102.21 33.24 101.44 33.24ZM101.44 31.725C101.86 31.725 102.25 31.625 102.61 31.425C102.97 31.215 103.255 30.92 103.465 30.54C103.685 30.15 103.795 29.695 103.795 29.175C103.795 28.655 103.685 28.205 103.465 27.825C103.255 27.445 102.97 27.155 102.61 26.955C102.25 26.745 101.86 26.64 101.44 26.64C101.02 26.64 100.63 26.745 100.27 26.955C99.9095 27.155 99.6195 27.445 99.3995 27.825C99.1895 28.205 99.0845 28.655 99.0845 29.175C99.0845 29.695 99.1895 30.15 99.3995 30.54C99.6195 30.92 99.9095 31.215 100.27 31.425C100.63 31.625 101.02 31.725 101.44 31.725ZM106.819 25.35H110.644C111.084 25.35 111.484 25.44 111.844 25.62C112.204 25.79 112.484 26.03 112.684 26.34C112.894 26.64 112.999 26.975 112.999 27.345C112.999 27.735 112.909 28.075 112.729 28.365C112.559 28.655 112.329 28.87 112.039 29.01V29.1C112.419 29.25 112.719 29.475 112.939 29.775C113.159 30.075 113.269 30.42 113.269 30.81C113.269 31.24 113.154 31.625 112.924 31.965C112.704 32.295 112.409 32.55 112.039 32.73C111.669 32.91 111.274 33 110.854 33H106.819V25.35ZM110.464 28.455C110.724 28.455 110.939 28.375 111.109 28.215C111.289 28.045 111.379 27.835 111.379 27.585C111.379 27.335 111.289 27.13 111.109 26.97C110.939 26.8 110.724 26.715 110.464 26.715H108.424V28.455H110.464ZM110.689 31.605C110.969 31.605 111.204 31.515 111.394 31.335C111.584 31.155 111.679 30.93 111.679 30.66C111.679 30.39 111.584 30.165 111.394 29.985C111.204 29.795 110.969 29.7 110.689 29.7H108.424V31.605H110.689ZM118.195 33.24C117.445 33.24 116.77 33.065 116.17 32.715C115.58 32.365 115.115 31.885 114.775 31.275C114.445 30.655 114.28 29.96 114.28 29.19C114.28 28.46 114.44 27.785 114.76 27.165C115.09 26.535 115.545 26.035 116.125 25.665C116.705 25.295 117.365 25.11 118.105 25.11C118.875 25.11 119.54 25.28 120.1 25.62C120.67 25.96 121.1 26.425 121.39 27.015C121.69 27.605 121.84 28.27 121.84 29.01C121.84 29.15 121.825 29.325 121.795 29.535H115.93C115.99 30.245 116.24 30.795 116.68 31.185C117.13 31.565 117.65 31.755 118.24 31.755C118.71 31.755 119.115 31.65 119.455 31.44C119.805 31.22 120.085 30.925 120.295 30.555L121.69 31.215C121.33 31.845 120.86 32.34 120.28 32.7C119.7 33.06 119.005 33.24 118.195 33.24ZM120.16 28.275C120.14 28.005 120.055 27.74 119.905 27.48C119.755 27.21 119.525 26.985 119.215 26.805C118.915 26.625 118.545 26.535 118.105 26.535C117.575 26.535 117.125 26.695 116.755 27.015C116.395 27.325 116.145 27.745 116.005 28.275H120.16ZM123.62 33.12C123.29 33.12 123.025 33.08 122.825 33L122.84 31.53C123 31.58 123.165 31.605 123.335 31.605C123.555 31.605 123.725 31.535 123.845 31.395C123.965 31.245 124.05 31 124.1 30.66C124.15 30.32 124.175 29.84 124.175 29.22V25.35H130.745V33H129.14V26.85H125.765V29.685C125.765 31.975 125.05 33.12 123.62 33.12ZM132.674 25.35H134.279V27.945H136.409C136.929 27.945 137.399 28.05 137.819 28.26C138.239 28.47 138.569 28.77 138.809 29.16C139.049 29.54 139.169 29.98 139.169 30.48C139.169 30.98 139.049 31.42 138.809 31.8C138.569 32.18 138.239 32.475 137.819 32.685C137.399 32.895 136.929 33 136.409 33H132.674V25.35ZM136.349 31.605C136.699 31.605 136.989 31.505 137.219 31.305C137.459 31.095 137.579 30.82 137.579 30.48C137.579 30.14 137.459 29.865 137.219 29.655C136.989 29.445 136.699 29.34 136.349 29.34H134.279V31.605H136.349ZM140.555 25.35H142.205V28.38H145.895V25.35H147.545V33H145.895V29.925H142.205V33H140.555V25.35ZM149.461 25.35H151.066V27.945H153.196C153.716 27.945 154.186 28.05 154.606 28.26C155.026 28.47 155.356 28.77 155.596 29.16C155.836 29.54 155.956 29.98 155.956 30.48C155.956 30.98 155.836 31.42 155.596 31.8C155.356 32.18 155.026 32.475 154.606 32.685C154.186 32.895 153.716 33 153.196 33H149.461V25.35ZM157.006 25.35H158.611V33H157.006V25.35ZM153.136 31.605C153.486 31.605 153.776 31.505 154.006 31.305C154.246 31.095 154.366 30.82 154.366 30.48C154.366 30.14 154.246 29.865 154.006 29.655C153.776 29.445 153.486 29.34 153.136 29.34H151.066V31.605H153.136ZM162.44 29.115L159.8 25.35H161.72L163.415 27.84H163.46L165.08 25.35H167.06L164.39 29.115L167.09 33H165.14L163.43 30.42H163.385L161.72 33H159.77L162.44 29.115ZM42.4538 44.35H44.4188L46.8038 48.955H46.8788L49.2338 44.35H51.2138V52H49.5938V48.355L49.6838 46.915H49.5938L47.4188 51.04H46.2638L44.0738 46.915H43.9838L44.0738 48.355V52H42.4538V44.35ZM55.445 52.24C54.895 52.24 54.405 52.135 53.975 51.925C53.545 51.705 53.21 51.4 52.97 51.01C52.73 50.61 52.61 50.16 52.61 49.66C52.61 48.87 52.905 48.245 53.495 47.785C54.095 47.325 54.85 47.095 55.76 47.095C56.21 47.095 56.615 47.14 56.975 47.23C57.335 47.31 57.62 47.4 57.83 47.5V47.11C57.83 46.64 57.655 46.26 57.305 45.97C56.955 45.67 56.505 45.52 55.955 45.52C55.565 45.52 55.195 45.605 54.845 45.775C54.505 45.945 54.23 46.18 54.02 46.48L52.865 45.595C53.205 45.125 53.645 44.76 54.185 44.5C54.725 44.24 55.325 44.11 55.985 44.11C57.095 44.11 57.95 44.385 58.55 44.935C59.15 45.475 59.45 46.24 59.45 47.23V52H57.83V51.085H57.755C57.535 51.415 57.225 51.69 56.825 51.91C56.425 52.13 55.965 52.24 55.445 52.24ZM55.73 50.875C56.13 50.875 56.49 50.78 56.81 50.59C57.13 50.4 57.38 50.145 57.56 49.825C57.74 49.505 57.83 49.16 57.83 48.79C57.6 48.66 57.33 48.555 57.02 48.475C56.72 48.395 56.405 48.355 56.075 48.355C55.455 48.355 55 48.48 54.71 48.73C54.42 48.97 54.275 49.285 54.275 49.675C54.275 50.025 54.41 50.315 54.68 50.545C54.95 50.765 55.3 50.875 55.73 50.875ZM63.1381 45.88H60.7081V44.35H67.2331V45.88H64.7881V52H63.1381V45.88ZM71.9648 52.24C71.2148 52.24 70.5398 52.065 69.9398 51.715C69.3498 51.365 68.8848 50.885 68.5448 50.275C68.2148 49.655 68.0498 48.96 68.0498 48.19C68.0498 47.46 68.2098 46.785 68.5298 46.165C68.8598 45.535 69.3148 45.035 69.8948 44.665C70.4748 44.295 71.1348 44.11 71.8748 44.11C72.6448 44.11 73.3098 44.28 73.8698 44.62C74.4398 44.96 74.8698 45.425 75.1598 46.015C75.4598 46.605 75.6098 47.27 75.6098 48.01C75.6098 48.15 75.5948 48.325 75.5648 48.535H69.6998C69.7598 49.245 70.0098 49.795 70.4498 50.185C70.8998 50.565 71.4198 50.755 72.0098 50.755C72.4798 50.755 72.8848 50.65 73.2248 50.44C73.5748 50.22 73.8548 49.925 74.0648 49.555L75.4598 50.215C75.0998 50.845 74.6298 51.34 74.0498 51.7C73.4698 52.06 72.7748 52.24 71.9648 52.24ZM73.9298 47.275C73.9098 47.005 73.8248 46.74 73.6748 46.48C73.5248 46.21 73.2948 45.985 72.9848 45.805C72.6848 45.625 72.3148 45.535 71.8748 45.535C71.3448 45.535 70.8948 45.695 70.5248 46.015C70.1648 46.325 69.9148 46.745 69.7748 47.275H73.9298ZM77.0523 44.35H78.6273V45.355H78.7023C78.9223 45.005 79.2473 44.71 79.6773 44.47C80.1073 44.23 80.5923 44.11 81.1323 44.11C81.8223 44.11 82.4473 44.285 83.0073 44.635C83.5673 44.985 84.0073 45.47 84.3273 46.09C84.6573 46.7 84.8223 47.395 84.8223 48.175C84.8223 48.955 84.6573 49.655 84.3273 50.275C84.0073 50.885 83.5673 51.365 83.0073 51.715C82.4473 52.065 81.8223 52.24 81.1323 52.24C80.5923 52.24 80.1073 52.12 79.6773 51.88C79.2473 51.64 78.9223 51.35 78.7023 51.01H78.6273L78.7023 52.075V55.24H77.0523V44.35ZM80.8923 50.725C81.2923 50.725 81.6673 50.62 82.0173 50.41C82.3673 50.2 82.6473 49.9 82.8573 49.51C83.0673 49.12 83.1723 48.675 83.1723 48.175C83.1723 47.675 83.0673 47.235 82.8573 46.855C82.6473 46.465 82.3673 46.165 82.0173 45.955C81.6673 45.745 81.2923 45.64 80.8923 45.64C80.4923 45.64 80.1173 45.745 79.7673 45.955C79.4273 46.165 79.1523 46.465 78.9423 46.855C78.7323 47.235 78.6273 47.675 78.6273 48.175C78.6273 48.675 78.7323 49.12 78.9423 49.51C79.1523 49.9 79.4273 50.2 79.7673 50.41C80.1173 50.62 80.4923 50.725 80.8923 50.725ZM86.253 44.35H87.903V48.085L87.828 49.525H87.903L91.503 44.35H93.153V52H91.503V48.265L91.578 46.825H91.503L87.903 52H86.253V44.35ZM97.3981 52.24C96.8481 52.24 96.3581 52.135 95.9281 51.925C95.4981 51.705 95.1631 51.4 94.9231 51.01C94.6831 50.61 94.5631 50.16 94.5631 49.66C94.5631 48.87 94.8581 48.245 95.4481 47.785C96.0481 47.325 96.8031 47.095 97.7131 47.095C98.1631 47.095 98.5681 47.14 98.9281 47.23C99.2881 47.31 99.5731 47.4 99.7831 47.5V47.11C99.7831 46.64 99.6081 46.26 99.2581 45.97C98.9081 45.67 98.4581 45.52 97.9081 45.52C97.5181 45.52 97.1481 45.605 96.7981 45.775C96.4581 45.945 96.1831 46.18 95.9731 46.48L94.8181 45.595C95.1581 45.125 95.5981 44.76 96.1381 44.5C96.6781 44.24 97.2781 44.11 97.9381 44.11C99.0481 44.11 99.9031 44.385 100.503 44.935C101.103 45.475 101.403 46.24 101.403 47.23V52H99.7831V51.085H99.7081C99.4881 51.415 99.1781 51.69 98.7781 51.91C98.3781 52.13 97.9181 52.24 97.3981 52.24ZM97.6831 50.875C98.0831 50.875 98.4431 50.78 98.7631 50.59C99.0831 50.4 99.3331 50.145 99.5131 49.825C99.6931 49.505 99.7831 49.16 99.7831 48.79C99.5531 48.66 99.2831 48.555 98.9731 48.475C98.6731 48.395 98.3581 48.355 98.0281 48.355C97.4081 48.355 96.9531 48.48 96.6631 48.73C96.3731 48.97 96.2281 49.285 96.2281 49.675C96.2281 50.025 96.3631 50.315 96.6331 50.545C96.9031 50.765 97.2531 50.875 97.6831 50.875ZM103.625 52.12C103.295 52.12 103.03 52.08 102.83 52L102.845 50.53C103.005 50.58 103.17 50.605 103.34 50.605C103.56 50.605 103.73 50.535 103.85 50.395C103.97 50.245 104.055 50 104.105 49.66C104.155 49.32 104.18 48.84 104.18 48.22V44.35H110.75V52H109.145V45.85H105.77V48.685C105.77 50.975 105.055 52.12 103.625 52.12ZM116.191 52.24C115.421 52.24 114.731 52.065 114.121 51.715C113.511 51.355 113.036 50.865 112.696 50.245C112.356 49.625 112.186 48.935 112.186 48.175C112.186 47.415 112.356 46.725 112.696 46.105C113.036 45.485 113.511 45 114.121 44.65C114.731 44.29 115.421 44.11 116.191 44.11C116.961 44.11 117.651 44.29 118.261 44.65C118.871 45.01 119.346 45.5 119.686 46.12C120.026 46.74 120.196 47.425 120.196 48.175C120.196 48.935 120.026 49.625 119.686 50.245C119.346 50.865 118.871 51.355 118.261 51.715C117.651 52.065 116.961 52.24 116.191 52.24ZM116.191 50.725C116.611 50.725 117.001 50.625 117.361 50.425C117.721 50.215 118.006 49.92 118.216 49.54C118.436 49.15 118.546 48.695 118.546 48.175C118.546 47.655 118.436 47.205 118.216 46.825C118.006 46.445 117.721 46.155 117.361 45.955C117.001 45.745 116.611 45.64 116.191 45.64C115.771 45.64 115.381 45.745 115.021 45.955C114.661 46.155 114.371 46.445 114.151 46.825C113.941 47.205 113.836 47.655 113.836 48.175C113.836 48.695 113.941 49.15 114.151 49.54C114.371 49.92 114.661 50.215 115.021 50.425C115.381 50.625 115.771 50.725 116.191 50.725ZM121.57 44.35H125.395C125.835 44.35 126.235 44.44 126.595 44.62C126.955 44.79 127.235 45.03 127.435 45.34C127.645 45.64 127.75 45.975 127.75 46.345C127.75 46.735 127.66 47.075 127.48 47.365C127.31 47.655 127.08 47.87 126.79 48.01V48.1C127.17 48.25 127.47 48.475 127.69 48.775C127.91 49.075 128.02 49.42 128.02 49.81C128.02 50.24 127.905 50.625 127.675 50.965C127.455 51.295 127.16 51.55 126.79 51.73C126.42 51.91 126.025 52 125.605 52H121.57V44.35ZM125.215 47.455C125.475 47.455 125.69 47.375 125.86 47.215C126.04 47.045 126.13 46.835 126.13 46.585C126.13 46.335 126.04 46.13 125.86 45.97C125.69 45.8 125.475 45.715 125.215 45.715H123.175V47.455H125.215ZM125.44 50.605C125.72 50.605 125.955 50.515 126.145 50.335C126.335 50.155 126.43 49.93 126.43 49.66C126.43 49.39 126.335 49.165 126.145 48.985C125.955 48.795 125.72 48.7 125.44 48.7H123.175V50.605H125.44Z" fill="black"/>
<path d="M224.152 102.24C223.112 102.24 222.167 101.995 221.317 101.505C220.467 101.005 219.797 100.325 219.307 99.465C218.827 98.605 218.587 97.66 218.587 96.63C218.587 95.6 218.827 94.66 219.307 93.81C219.797 92.95 220.467 92.27 221.317 91.77C222.167 91.27 223.112 91.02 224.152 91.02C225.192 91.02 226.132 91.27 226.972 91.77C227.822 92.27 228.492 92.95 228.982 93.81C229.472 94.66 229.717 95.6 229.717 96.63C229.717 97.66 229.472 98.605 228.982 99.465C228.502 100.325 227.837 101.005 226.987 101.505C226.137 101.995 225.192 102.24 224.152 102.24ZM224.152 100.635C224.862 100.635 225.512 100.465 226.102 100.125C226.692 99.785 227.157 99.315 227.497 98.715C227.837 98.105 228.007 97.41 228.007 96.63C228.007 95.85 227.837 95.16 227.497 94.56C227.157 93.95 226.692 93.475 226.102 93.135C225.512 92.795 224.862 92.625 224.152 92.625C223.442 92.625 222.792 92.795 222.202 93.135C221.612 93.475 221.142 93.95 220.792 94.56C220.452 95.16 220.282 95.85 220.282 96.63C220.282 97.41 220.452 98.105 220.792 98.715C221.142 99.315 221.612 99.785 222.202 100.125C222.792 100.465 223.442 100.635 224.152 100.635ZM233.257 95.88H230.827V94.35H237.352V95.88H234.907V102H233.257V95.88ZM242.251 94.35H243.901V97.725H243.991L246.841 94.35H248.851V94.44L245.761 97.98L249.001 101.91V102H247.006L243.991 98.25H243.901V102H242.251V94.35ZM250.878 102.12C250.548 102.12 250.283 102.08 250.083 102L250.098 100.53C250.258 100.58 250.423 100.605 250.593 100.605C250.813 100.605 250.983 100.535 251.103 100.395C251.223 100.245 251.308 100 251.358 99.66C251.408 99.32 251.433 98.84 251.433 98.22V94.35H258.003V102H256.398V95.85H253.023V98.685C253.023 100.975 252.308 102.12 250.878 102.12ZM262.258 102.24C261.708 102.24 261.218 102.135 260.788 101.925C260.358 101.705 260.023 101.4 259.783 101.01C259.543 100.61 259.423 100.16 259.423 99.66C259.423 98.87 259.718 98.245 260.308 97.785C260.908 97.325 261.663 97.095 262.573 97.095C263.023 97.095 263.428 97.14 263.788 97.23C264.148 97.31 264.433 97.4 264.643 97.5V97.11C264.643 96.64 264.468 96.26 264.118 95.97C263.768 95.67 263.318 95.52 262.768 95.52C262.378 95.52 262.008 95.605 261.658 95.775C261.318 95.945 261.043 96.18 260.833 96.48L259.678 95.595C260.018 95.125 260.458 94.76 260.998 94.5C261.538 94.24 262.138 94.11 262.798 94.11C263.908 94.11 264.763 94.385 265.363 94.935C265.963 95.475 266.263 96.24 266.263 97.23V102H264.643V101.085H264.568C264.348 101.415 264.038 101.69 263.638 101.91C263.238 102.13 262.778 102.24 262.258 102.24ZM262.543 100.875C262.943 100.875 263.303 100.78 263.623 100.59C263.943 100.4 264.193 100.145 264.373 99.825C264.553 99.505 264.643 99.16 264.643 98.79C264.413 98.66 264.143 98.555 263.833 98.475C263.533 98.395 263.218 98.355 262.888 98.355C262.268 98.355 261.813 98.48 261.523 98.73C261.233 98.97 261.088 99.285 261.088 99.675C261.088 100.025 261.223 100.315 261.493 100.545C261.763 100.765 262.113 100.875 262.543 100.875ZM267.597 100.53H268.437C268.657 100.24 268.837 99.77 268.977 99.12C269.127 98.47 269.202 97.8 269.202 97.11V94.35H275.487V100.53H276.657V104.28H275.127V102H269.127V104.28H267.597V100.53ZM273.882 100.53V95.835H270.807V97.245C270.807 97.835 270.747 98.42 270.627 99C270.517 99.57 270.357 100.08 270.147 100.53H273.882ZM278.11 94.35H279.76V97.725H279.85L282.7 94.35H284.71V94.44L281.62 97.98L284.86 101.91V102H282.865L279.85 98.25H279.76V102H278.11V94.35ZM285.874 94.35H287.524V98.085L287.449 99.525H287.524L291.124 94.35H292.774V102H291.124V98.265L291.199 96.825H291.124L287.524 102H285.874V94.35ZM301.748 102.24C300.988 102.24 300.303 102.065 299.693 101.715C299.093 101.365 298.623 100.885 298.283 100.275C297.953 99.655 297.788 98.955 297.788 98.175C297.788 97.395 297.953 96.7 298.283 96.09C298.623 95.47 299.093 94.985 299.693 94.635C300.303 94.285 300.988 94.11 301.748 94.11C302.588 94.11 303.303 94.3 303.893 94.68C304.483 95.06 304.903 95.575 305.153 96.225L303.638 96.855C303.298 96.045 302.653 95.64 301.703 95.64C301.293 95.64 300.913 95.745 300.563 95.955C300.223 96.165 299.948 96.465 299.738 96.855C299.538 97.235 299.438 97.675 299.438 98.175C299.438 98.675 299.538 99.12 299.738 99.51C299.948 99.9 300.223 100.2 300.563 100.41C300.913 100.62 301.293 100.725 301.703 100.725C302.183 100.725 302.593 100.62 302.933 100.41C303.283 100.19 303.548 99.88 303.728 99.48L305.213 100.125C304.923 100.775 304.483 101.29 303.893 101.67C303.303 102.05 302.588 102.24 301.748 102.24ZM308.506 95.88H306.076V94.35H312.601V95.88H310.156V102H308.506V95.88ZM317.333 102.24C316.583 102.24 315.908 102.065 315.308 101.715C314.718 101.365 314.253 100.885 313.913 100.275C313.583 99.655 313.418 98.96 313.418 98.19C313.418 97.46 313.578 96.785 313.898 96.165C314.228 95.535 314.683 95.035 315.263 94.665C315.843 94.295 316.503 94.11 317.243 94.11C318.013 94.11 318.678 94.28 319.238 94.62C319.808 94.96 320.238 95.425 320.528 96.015C320.828 96.605 320.978 97.27 320.978 98.01C320.978 98.15 320.963 98.325 320.933 98.535H315.068C315.128 99.245 315.378 99.795 315.818 100.185C316.268 100.565 316.788 100.755 317.378 100.755C317.848 100.755 318.253 100.65 318.593 100.44C318.943 100.22 319.223 99.925 319.433 99.555L320.828 100.215C320.468 100.845 319.998 101.34 319.418 101.7C318.838 102.06 318.143 102.24 317.333 102.24ZM319.298 97.275C319.278 97.005 319.193 96.74 319.043 96.48C318.893 96.21 318.663 95.985 318.353 95.805C318.053 95.625 317.683 95.535 317.243 95.535C316.713 95.535 316.263 95.695 315.893 96.015C315.533 96.325 315.283 96.745 315.143 97.275H319.298ZM322.481 94.35H324.131V97.38H327.821V94.35H329.471V102H327.821V98.925H324.131V102H322.481V94.35ZM334.437 100.53H335.277C335.497 100.24 335.677 99.77 335.817 99.12C335.967 98.47 336.042 97.8 336.042 97.11V94.35H342.327V100.53H343.497V104.28H341.967V102H335.967V104.28H334.437V100.53ZM340.722 100.53V95.835H337.647V97.245C337.647 97.835 337.587 98.42 337.467 99C337.357 99.57 337.197 100.08 336.987 100.53H340.722ZM348.536 102.24C347.766 102.24 347.076 102.065 346.466 101.715C345.856 101.355 345.381 100.865 345.041 100.245C344.701 99.625 344.531 98.935 344.531 98.175C344.531 97.415 344.701 96.725 345.041 96.105C345.381 95.485 345.856 95 346.466 94.65C347.076 94.29 347.766 94.11 348.536 94.11C349.306 94.11 349.996 94.29 350.606 94.65C351.216 95.01 351.691 95.5 352.031 96.12C352.371 96.74 352.541 97.425 352.541 98.175C352.541 98.935 352.371 99.625 352.031 100.245C351.691 100.865 351.216 101.355 350.606 101.715C349.996 102.065 349.306 102.24 348.536 102.24ZM348.536 100.725C348.956 100.725 349.346 100.625 349.706 100.425C350.066 100.215 350.351 99.92 350.561 99.54C350.781 99.15 350.891 98.695 350.891 98.175C350.891 97.655 350.781 97.205 350.561 96.825C350.351 96.445 350.066 96.155 349.706 95.955C349.346 95.745 348.956 95.64 348.536 95.64C348.116 95.64 347.726 95.745 347.366 95.955C347.006 96.155 346.716 96.445 346.496 96.825C346.286 97.205 346.181 97.655 346.181 98.175C346.181 98.695 346.286 99.15 346.496 99.54C346.716 99.92 347.006 100.215 347.366 100.425C347.726 100.625 348.116 100.725 348.536 100.725ZM211.746 113.35H215.571C216.011 113.35 216.411 113.44 216.771 113.62C217.131 113.79 217.411 114.03 217.611 114.34C217.821 114.64 217.926 114.975 217.926 115.345C217.926 115.735 217.836 116.075 217.656 116.365C217.486 116.655 217.256 116.87 216.966 117.01V117.1C217.346 117.25 217.646 117.475 217.866 117.775C218.086 118.075 218.196 118.42 218.196 118.81C218.196 119.24 218.081 119.625 217.851 119.965C217.631 120.295 217.336 120.55 216.966 120.73C216.596 120.91 216.201 121 215.781 121H211.746V113.35ZM215.391 116.455C215.651 116.455 215.866 116.375 216.036 116.215C216.216 116.045 216.306 115.835 216.306 115.585C216.306 115.335 216.216 115.13 216.036 114.97C215.866 114.8 215.651 114.715 215.391 114.715H213.351V116.455H215.391ZM215.616 119.605C215.896 119.605 216.131 119.515 216.321 119.335C216.511 119.155 216.606 118.93 216.606 118.66C216.606 118.39 216.511 118.165 216.321 117.985C216.131 117.795 215.896 117.7 215.616 117.7H213.351V119.605H215.616ZM219.627 113.35H221.277V116.38H224.967V113.35H226.617V121H224.967V117.925H221.277V121H219.627V113.35ZM230.873 120.58L227.693 113.35H229.538L231.698 118.555H231.758L233.858 113.35H235.673L230.948 124.24H229.208L230.873 120.58ZM238.641 114.88H236.211V113.35H242.736V114.88H240.291V121H238.641V114.88ZM244.059 113.35H245.634V114.355H245.709C245.929 114.005 246.254 113.71 246.684 113.47C247.114 113.23 247.599 113.11 248.139 113.11C248.829 113.11 249.454 113.285 250.014 113.635C250.574 113.985 251.014 114.47 251.334 115.09C251.664 115.7 251.829 116.395 251.829 117.175C251.829 117.955 251.664 118.655 251.334 119.275C251.014 119.885 250.574 120.365 250.014 120.715C249.454 121.065 248.829 121.24 248.139 121.24C247.599 121.24 247.114 121.12 246.684 120.88C246.254 120.64 245.929 120.35 245.709 120.01H245.634L245.709 121.075V124.24H244.059V113.35ZM247.899 119.725C248.299 119.725 248.674 119.62 249.024 119.41C249.374 119.2 249.654 118.9 249.864 118.51C250.074 118.12 250.179 117.675 250.179 117.175C250.179 116.675 250.074 116.235 249.864 115.855C249.654 115.465 249.374 115.165 249.024 114.955C248.674 114.745 248.299 114.64 247.899 114.64C247.499 114.64 247.124 114.745 246.774 114.955C246.434 115.165 246.159 115.465 245.949 115.855C245.739 116.235 245.634 116.675 245.634 117.175C245.634 117.675 245.739 118.12 245.949 118.51C246.159 118.9 246.434 119.2 246.774 119.41C247.124 119.62 247.499 119.725 247.899 119.725ZM256.828 121.24C256.078 121.24 255.403 121.065 254.803 120.715C254.213 120.365 253.748 119.885 253.408 119.275C253.078 118.655 252.913 117.96 252.913 117.19C252.913 116.46 253.073 115.785 253.393 115.165C253.723 114.535 254.178 114.035 254.758 113.665C255.338 113.295 255.998 113.11 256.738 113.11C257.508 113.11 258.173 113.28 258.733 113.62C259.303 113.96 259.733 114.425 260.023 115.015C260.323 115.605 260.473 116.27 260.473 117.01C260.473 117.15 260.458 117.325 260.428 117.535H254.563C254.623 118.245 254.873 118.795 255.313 119.185C255.763 119.565 256.283 119.755 256.873 119.755C257.343 119.755 257.748 119.65 258.088 119.44C258.438 119.22 258.718 118.925 258.928 118.555L260.323 119.215C259.963 119.845 259.493 120.34 258.913 120.7C258.333 121.06 257.638 121.24 256.828 121.24ZM258.793 116.275C258.773 116.005 258.688 115.74 258.538 115.48C258.388 115.21 258.158 114.985 257.848 114.805C257.548 114.625 257.178 114.535 256.738 114.535C256.208 114.535 255.758 114.695 255.388 115.015C255.028 115.325 254.778 115.745 254.638 116.275H258.793ZM261.975 113.35H263.625V116.38H267.315V113.35H268.965V121H267.315V117.925H263.625V121H261.975V113.35ZM270.881 113.35H272.531V116.38H276.221V113.35H277.871V121H276.221V117.925H272.531V121H270.881V113.35ZM283.209 121.24C282.459 121.24 281.784 121.065 281.184 120.715C280.594 120.365 280.129 119.885 279.789 119.275C279.459 118.655 279.294 117.96 279.294 117.19C279.294 116.46 279.454 115.785 279.774 115.165C280.104 114.535 280.559 114.035 281.139 113.665C281.719 113.295 282.379 113.11 283.119 113.11C283.889 113.11 284.554 113.28 285.114 113.62C285.684 113.96 286.114 114.425 286.404 115.015C286.704 115.605 286.854 116.27 286.854 117.01C286.854 117.15 286.839 117.325 286.809 117.535H280.944C281.004 118.245 281.254 118.795 281.694 119.185C282.144 119.565 282.664 119.755 283.254 119.755C283.724 119.755 284.129 119.65 284.469 119.44C284.819 119.22 285.099 118.925 285.309 118.555L286.704 119.215C286.344 119.845 285.874 120.34 285.294 120.7C284.714 121.06 284.019 121.24 283.209 121.24ZM285.174 116.275C285.154 116.005 285.069 115.74 284.919 115.48C284.769 115.21 284.539 114.985 284.229 114.805C283.929 114.625 283.559 114.535 283.119 114.535C282.589 114.535 282.139 114.695 281.769 115.015C281.409 115.325 281.159 115.745 281.019 116.275H285.174ZM288.357 113.35H290.007V117.085L289.932 118.525H290.007L293.607 113.35H295.257V121H293.607V117.265L293.682 115.825H293.607L290.007 121H288.357V113.35ZM291.822 111.955C291.482 111.955 291.157 111.87 290.847 111.7C290.537 111.53 290.287 111.295 290.097 110.995C289.917 110.695 289.827 110.365 289.827 110.005H291.072C291.072 110.215 291.137 110.4 291.267 110.56C291.407 110.71 291.592 110.785 291.822 110.785C292.042 110.785 292.217 110.71 292.347 110.56C292.487 110.4 292.557 110.215 292.557 110.005H293.772C293.772 110.375 293.682 110.71 293.502 111.01C293.322 111.3 293.082 111.53 292.782 111.7C292.482 111.87 292.162 111.955 291.822 111.955ZM304.276 121.24C303.506 121.24 302.816 121.065 302.206 120.715C301.596 120.355 301.121 119.865 300.781 119.245C300.441 118.625 300.271 117.935 300.271 117.175C300.271 116.415 300.441 115.725 300.781 115.105C301.121 114.485 301.596 114 302.206 113.65C302.816 113.29 303.506 113.11 304.276 113.11C305.046 113.11 305.736 113.29 306.346 113.65C306.956 114.01 307.431 114.5 307.771 115.12C308.111 115.74 308.281 116.425 308.281 117.175C308.281 117.935 308.111 118.625 307.771 119.245C307.431 119.865 306.956 120.355 306.346 120.715C305.736 121.065 305.046 121.24 304.276 121.24ZM304.276 119.725C304.696 119.725 305.086 119.625 305.446 119.425C305.806 119.215 306.091 118.92 306.301 118.54C306.521 118.15 306.631 117.695 306.631 117.175C306.631 116.655 306.521 116.205 306.301 115.825C306.091 115.445 305.806 115.155 305.446 114.955C305.086 114.745 304.696 114.64 304.276 114.64C303.856 114.64 303.466 114.745 303.106 114.955C302.746 115.155 302.456 115.445 302.236 115.825C302.026 116.205 301.921 116.655 301.921 117.175C301.921 117.695 302.026 118.15 302.236 118.54C302.456 118.92 302.746 119.215 303.106 119.425C303.466 119.625 303.856 119.725 304.276 119.725ZM311.546 114.88H309.116V113.35H315.641V114.88H313.196V121H311.546V114.88ZM316.105 119.53H316.945C317.165 119.24 317.345 118.77 317.485 118.12C317.635 117.47 317.71 116.8 317.71 116.11V113.35H323.995V119.53H325.165V123.28H323.635V121H317.635V123.28H316.105V119.53ZM322.39 119.53V114.835H319.315V116.245C319.315 116.835 319.255 117.42 319.135 118C319.025 118.57 318.865 119.08 318.655 119.53H322.39ZM330.114 121.24C329.364 121.24 328.689 121.065 328.089 120.715C327.499 120.365 327.034 119.885 326.694 119.275C326.364 118.655 326.199 117.96 326.199 117.19C326.199 116.46 326.359 115.785 326.679 115.165C327.009 114.535 327.464 114.035 328.044 113.665C328.624 113.295 329.284 113.11 330.024 113.11C330.794 113.11 331.459 113.28 332.019 113.62C332.589 113.96 333.019 114.425 333.309 115.015C333.609 115.605 333.759 116.27 333.759 117.01C333.759 117.15 333.744 117.325 333.714 117.535H327.849C327.909 118.245 328.159 118.795 328.599 119.185C329.049 119.565 329.569 119.755 330.159 119.755C330.629 119.755 331.034 119.65 331.374 119.44C331.724 119.22 332.004 118.925 332.214 118.555L333.609 119.215C333.249 119.845 332.779 120.34 332.199 120.7C331.619 121.06 330.924 121.24 330.114 121.24ZM332.079 116.275C332.059 116.005 331.974 115.74 331.824 115.48C331.674 115.21 331.444 114.985 331.134 114.805C330.834 114.625 330.464 114.535 330.024 114.535C329.494 114.535 329.044 114.695 328.674 115.015C328.314 115.325 328.064 115.745 327.924 116.275H332.079ZM335.538 121.12C335.208 121.12 334.943 121.08 334.743 121L334.758 119.53C334.918 119.58 335.083 119.605 335.253 119.605C335.473 119.605 335.643 119.535 335.763 119.395C335.883 119.245 335.968 119 336.018 118.66C336.068 118.32 336.093 117.84 336.093 117.22V113.35H342.663V121H341.058V114.85H337.683V117.685C337.683 119.975 336.968 121.12 335.538 121.12ZM344.592 113.35H346.242V116.725H346.332L349.182 113.35H351.192V113.44L348.102 116.98L351.342 120.91V121H349.347L346.332 117.25H346.242V121H344.592V113.35ZM352.356 113.35H354.006V117.085L353.931 118.525H354.006L357.606 113.35H359.256V121H357.606V117.265L357.681 115.825H357.606L354.006 121H352.356V113.35Z" fill="black"/>
<path d="M13.0773 171.24C12.0373 171.24 11.0873 170.995 10.2273 170.505C9.36734 170.015 8.69234 169.34 8.20234 168.48C7.71234 167.62 7.46734 166.67 7.46734 165.63C7.46734 164.59 7.71234 163.64 8.20234 162.78C8.69234 161.92 9.36734 161.245 10.2273 160.755C11.0873 160.265 12.0373 160.02 13.0773 160.02C13.8873 160.02 14.6223 160.17 15.2823 160.47C15.9523 160.77 16.5423 161.205 17.0523 161.775L15.8523 162.93C15.4823 162.49 15.0723 162.165 14.6223 161.955C14.1723 161.735 13.6573 161.625 13.0773 161.625C12.3573 161.625 11.6973 161.79 11.0973 162.12C10.5073 162.45 10.0373 162.92 9.68734 163.53C9.33734 164.13 9.16234 164.83 9.16234 165.63C9.16234 166.43 9.33734 167.135 9.68734 167.745C10.0373 168.345 10.5073 168.81 11.0973 169.14C11.6973 169.47 12.3573 169.635 13.0773 169.635C14.2773 169.635 15.2973 169.135 16.1373 168.135L17.3523 169.305C16.8323 169.915 16.2073 170.39 15.4773 170.73C14.7473 171.07 13.9473 171.24 13.0773 171.24ZM18.8116 163.35H20.4616V167.085L20.3866 168.525H20.4616L24.0616 163.35H25.7116V171H24.0616V167.265L24.1366 165.825H24.0616L20.4616 171H18.8116V163.35ZM31.0967 171.24C30.3367 171.24 29.6517 171.065 29.0417 170.715C28.4417 170.365 27.9717 169.885 27.6317 169.275C27.3017 168.655 27.1367 167.955 27.1367 167.175C27.1367 166.395 27.3017 165.7 27.6317 165.09C27.9717 164.47 28.4417 163.985 29.0417 163.635C29.6517 163.285 30.3367 163.11 31.0967 163.11C31.9367 163.11 32.6517 163.3 33.2417 163.68C33.8317 164.06 34.2517 164.575 34.5017 165.225L32.9867 165.855C32.6467 165.045 32.0017 164.64 31.0517 164.64C30.6417 164.64 30.2617 164.745 29.9117 164.955C29.5717 165.165 29.2967 165.465 29.0867 165.855C28.8867 166.235 28.7867 166.675 28.7867 167.175C28.7867 167.675 28.8867 168.12 29.0867 168.51C29.2967 168.9 29.5717 169.2 29.9117 169.41C30.2617 169.62 30.6417 169.725 31.0517 169.725C31.5317 169.725 31.9417 169.62 32.2817 169.41C32.6317 169.19 32.8967 168.88 33.0767 168.48L34.5617 169.125C34.2717 169.775 33.8317 170.29 33.2417 170.67C32.6517 171.05 31.9367 171.24 31.0967 171.24ZM37.8549 164.88H35.4249V163.35H41.9499V164.88H39.5049V171H37.8549V164.88ZM46.6816 171.24C45.9316 171.24 45.2566 171.065 44.6566 170.715C44.0666 170.365 43.6016 169.885 43.2616 169.275C42.9316 168.655 42.7666 167.96 42.7666 167.19C42.7666 166.46 42.9266 165.785 43.2466 165.165C43.5766 164.535 44.0316 164.035 44.6116 163.665C45.1916 163.295 45.8516 163.11 46.5916 163.11C47.3616 163.11 48.0266 163.28 48.5866 163.62C49.1566 163.96 49.5866 164.425 49.8766 165.015C50.1766 165.605 50.3266 166.27 50.3266 167.01C50.3266 167.15 50.3116 167.325 50.2816 167.535H44.4166C44.4766 168.245 44.7266 168.795 45.1666 169.185C45.6166 169.565 46.1366 169.755 46.7266 169.755C47.1966 169.755 47.6016 169.65 47.9416 169.44C48.2916 169.22 48.5716 168.925 48.7816 168.555L50.1766 169.215C49.8166 169.845 49.3466 170.34 48.7666 170.7C48.1866 171.06 47.4916 171.24 46.6816 171.24ZM48.6466 166.275C48.6266 166.005 48.5416 165.74 48.3916 165.48C48.2416 165.21 48.0116 164.985 47.7016 164.805C47.4016 164.625 47.0316 164.535 46.5916 164.535C46.0616 164.535 45.6116 164.695 45.2416 165.015C44.8816 165.325 44.6316 165.745 44.4916 166.275H48.6466ZM51.8141 163.35H53.7791L56.1641 167.955H56.2391L58.5941 163.35H60.5741V171H58.9541V167.355L59.0441 165.915H58.9541L56.7791 170.04H55.6241L53.4341 165.915H53.3441L53.4341 167.355V171H51.8141V163.35ZM65.9942 163.35H69.8192C70.2592 163.35 70.6592 163.44 71.0192 163.62C71.3792 163.79 71.6592 164.03 71.8592 164.34C72.0692 164.64 72.1742 164.975 72.1742 165.345C72.1742 165.735 72.0842 166.075 71.9042 166.365C71.7342 166.655 71.5042 166.87 71.2142 167.01V167.1C71.5942 167.25 71.8942 167.475 72.1142 167.775C72.3342 168.075 72.4442 168.42 72.4442 168.81C72.4442 169.24 72.3292 169.625 72.0992 169.965C71.8792 170.295 71.5842 170.55 71.2142 170.73C70.8442 170.91 70.4492 171 70.0292 171H65.9942V163.35ZM69.6392 166.455C69.8992 166.455 70.1142 166.375 70.2842 166.215C70.4642 166.045 70.5542 165.835 70.5542 165.585C70.5542 165.335 70.4642 165.13 70.2842 164.97C70.1142 164.8 69.8992 164.715 69.6392 164.715H67.5992V166.455H69.6392ZM69.8642 169.605C70.1442 169.605 70.3792 169.515 70.5692 169.335C70.7592 169.155 70.8542 168.93 70.8542 168.66C70.8542 168.39 70.7592 168.165 70.5692 167.985C70.3792 167.795 70.1442 167.7 69.8642 167.7H67.5992V169.605H69.8642ZM77.37 171.24C76.62 171.24 75.945 171.065 75.345 170.715C74.755 170.365 74.29 169.885 73.95 169.275C73.62 168.655 73.455 167.96 73.455 167.19C73.455 166.46 73.615 165.785 73.935 165.165C74.265 164.535 74.72 164.035 75.3 163.665C75.88 163.295 76.54 163.11 77.28 163.11C78.05 163.11 78.715 163.28 79.275 163.62C79.845 163.96 80.275 164.425 80.565 165.015C80.865 165.605 81.015 166.27 81.015 167.01C81.015 167.15 81 167.325 80.97 167.535H75.105C75.165 168.245 75.415 168.795 75.855 169.185C76.305 169.565 76.825 169.755 77.415 169.755C77.885 169.755 78.29 169.65 78.63 169.44C78.98 169.22 79.26 168.925 79.47 168.555L80.865 169.215C80.505 169.845 80.035 170.34 79.455 170.7C78.875 171.06 78.18 171.24 77.37 171.24ZM79.335 166.275C79.315 166.005 79.23 165.74 79.08 165.48C78.93 165.21 78.7 164.985 78.39 164.805C78.09 164.625 77.72 164.535 77.28 164.535C76.75 164.535 76.3 164.695 75.93 165.015C75.57 165.325 75.32 165.745 75.18 166.275H79.335ZM82.5176 163.35H84.1676V166.38H87.8576V163.35H89.5076V171H87.8576V167.925H84.1676V171H82.5176V163.35ZM93.3139 164.88H90.8839V163.35H97.4089V164.88H94.9639V171H93.3139V164.88ZM98.792 163.35H100.442V167.085L100.367 168.525H100.442L104.042 163.35H105.692V171H104.042V167.265L104.117 165.825H104.042L100.442 171H98.792V163.35ZM108.034 171.12C107.704 171.12 107.439 171.08 107.239 171L107.254 169.53C107.414 169.58 107.579 169.605 107.749 169.605C107.969 169.605 108.139 169.535 108.259 169.395C108.379 169.245 108.464 169 108.514 168.66C108.564 168.32 108.589 167.84 108.589 167.22V163.35H115.159V171H113.554V164.85H110.179V167.685C110.179 169.975 109.464 171.12 108.034 171.12ZM116.188 170.895L118.258 168.24L118.228 168.18C117.718 168.02 117.308 167.73 116.998 167.31C116.688 166.89 116.533 166.41 116.533 165.87C116.533 165.4 116.653 164.975 116.893 164.595C117.133 164.205 117.458 163.9 117.868 163.68C118.288 163.46 118.743 163.35 119.233 163.35H122.923V171H121.318V168.36H119.968L118.003 171H116.188V170.895ZM121.318 167.01V164.745H119.353C119.013 164.745 118.728 164.855 118.498 165.075C118.278 165.285 118.168 165.555 118.168 165.885C118.168 166.215 118.278 166.485 118.498 166.695C118.728 166.905 119.013 167.01 119.353 167.01H121.318ZM131.242 171H124.837V163.35H126.487V169.5H129.967V163.35H131.617V169.5H132.757V173.28H131.242V171ZM134.212 163.35H135.862V167.085L135.787 168.525H135.862L139.462 163.35H141.112V171H139.462V167.265L139.537 165.825H139.462L135.862 171H134.212V163.35ZM143.03 163.35H144.68V167.085L144.605 168.525H144.68L148.28 163.35H149.93V171H148.28V167.265L148.355 165.825H148.28L144.68 171H143.03V163.35ZM155.364 163.35H157.014V167.085L156.939 168.525H157.014L160.614 163.35H162.264V171H160.614V167.265L160.689 165.825H160.614L157.014 171H155.364V163.35ZM6.9976 182.35H13.7776V190H12.1276V183.88H8.6476V190H6.9976V182.35ZM19.2105 190.24C18.4405 190.24 17.7505 190.065 17.1405 189.715C16.5305 189.355 16.0555 188.865 15.7155 188.245C15.3755 187.625 15.2055 186.935 15.2055 186.175C15.2055 185.415 15.3755 184.725 15.7155 184.105C16.0555 183.485 16.5305 183 17.1405 182.65C17.7505 182.29 18.4405 182.11 19.2105 182.11C19.9805 182.11 20.6705 182.29 21.2805 182.65C21.8905 183.01 22.3655 183.5 22.7055 184.12C23.0455 184.74 23.2155 185.425 23.2155 186.175C23.2155 186.935 23.0455 187.625 22.7055 188.245C22.3655 188.865 21.8905 189.355 21.2805 189.715C20.6705 190.065 19.9805 190.24 19.2105 190.24ZM19.2105 188.725C19.6305 188.725 20.0205 188.625 20.3805 188.425C20.7405 188.215 21.0255 187.92 21.2355 187.54C21.4555 187.15 21.5655 186.695 21.5655 186.175C21.5655 185.655 21.4555 185.205 21.2355 184.825C21.0255 184.445 20.7405 184.155 20.3805 183.955C20.0205 183.745 19.6305 183.64 19.2105 183.64C18.7905 183.64 18.4005 183.745 18.0405 183.955C17.6805 184.155 17.3905 184.445 17.1705 184.825C16.9605 185.205 16.8555 185.655 16.8555 186.175C16.8555 186.695 16.9605 187.15 17.1705 187.54C17.3905 187.92 17.6805 188.215 18.0405 188.425C18.4005 188.625 18.7905 188.725 19.2105 188.725ZM23.8369 189.91L26.9869 185.965L24.0019 182.44V182.35H25.9669L28.6669 185.65H28.7569V182.35H30.4069V185.65H30.4969L33.2119 182.35H35.1769V182.44L32.1619 185.965L35.3269 189.91V190H33.3469L30.4969 186.325H30.4069V190H28.7569V186.325H28.6669L25.8169 190H23.8369V189.91ZM38.6066 190.24C38.0566 190.24 37.5666 190.135 37.1366 189.925C36.7066 189.705 36.3716 189.4 36.1316 189.01C35.8916 188.61 35.7716 188.16 35.7716 187.66C35.7716 186.87 36.0666 186.245 36.6566 185.785C37.2566 185.325 38.0116 185.095 38.9216 185.095C39.3716 185.095 39.7766 185.14 40.1366 185.23C40.4966 185.31 40.7816 185.4 40.9916 185.5V185.11C40.9916 184.64 40.8166 184.26 40.4666 183.97C40.1166 183.67 39.6666 183.52 39.1166 183.52C38.7266 183.52 38.3566 183.605 38.0066 183.775C37.6666 183.945 37.3916 184.18 37.1816 184.48L36.0266 183.595C36.3666 183.125 36.8066 182.76 37.3466 182.5C37.8866 182.24 38.4866 182.11 39.1466 182.11C40.2566 182.11 41.1116 182.385 41.7116 182.935C42.3116 183.475 42.6116 184.24 42.6116 185.23V190H40.9916V189.085H40.9166C40.6966 189.415 40.3866 189.69 39.9866 189.91C39.5866 190.13 39.1266 190.24 38.6066 190.24ZM38.8916 188.875C39.2916 188.875 39.6516 188.78 39.9716 188.59C40.2916 188.4 40.5416 188.145 40.7216 187.825C40.9016 187.505 40.9916 187.16 40.9916 186.79C40.7616 186.66 40.4916 186.555 40.1816 186.475C39.8816 186.395 39.5666 186.355 39.2366 186.355C38.6166 186.355 38.1616 186.48 37.8716 186.73C37.5816 186.97 37.4366 187.285 37.4366 187.675C37.4366 188.025 37.5716 188.315 37.8416 188.545C38.1116 188.765 38.4616 188.875 38.8916 188.875ZM44.3497 182.35H45.9247V183.355H45.9997C46.2197 183.005 46.5447 182.71 46.9747 182.47C47.4047 182.23 47.8897 182.11 48.4297 182.11C49.1197 182.11 49.7447 182.285 50.3047 182.635C50.8647 182.985 51.3047 183.47 51.6247 184.09C51.9547 184.7 52.1197 185.395 52.1197 186.175C52.1197 186.955 51.9547 187.655 51.6247 188.275C51.3047 188.885 50.8647 189.365 50.3047 189.715C49.7447 190.065 49.1197 190.24 48.4297 190.24C47.8897 190.24 47.4047 190.12 46.9747 189.88C46.5447 189.64 46.2197 189.35 45.9997 189.01H45.9247L45.9997 190.075V193.24H44.3497V182.35ZM48.1897 188.725C48.5897 188.725 48.9647 188.62 49.3147 188.41C49.6647 188.2 49.9447 187.9 50.1547 187.51C50.3647 187.12 50.4697 186.675 50.4697 186.175C50.4697 185.675 50.3647 185.235 50.1547 184.855C49.9447 184.465 49.6647 184.165 49.3147 183.955C48.9647 183.745 48.5897 183.64 48.1897 183.64C47.7897 183.64 47.4147 183.745 47.0647 183.955C46.7247 184.165 46.4497 184.465 46.2397 184.855C46.0297 185.235 45.9247 185.675 45.9247 186.175C45.9247 186.675 46.0297 187.12 46.2397 187.51C46.4497 187.9 46.7247 188.2 47.0647 188.41C47.4147 188.62 47.7897 188.725 48.1897 188.725ZM57.2086 190.24C56.4386 190.24 55.7486 190.065 55.1386 189.715C54.5286 189.355 54.0536 188.865 53.7136 188.245C53.3736 187.625 53.2036 186.935 53.2036 186.175C53.2036 185.415 53.3736 184.725 53.7136 184.105C54.0536 183.485 54.5286 183 55.1386 182.65C55.7486 182.29 56.4386 182.11 57.2086 182.11C57.9786 182.11 58.6686 182.29 59.2786 182.65C59.8886 183.01 60.3636 183.5 60.7036 184.12C61.0436 184.74 61.2136 185.425 61.2136 186.175C61.2136 186.935 61.0436 187.625 60.7036 188.245C60.3636 188.865 59.8886 189.355 59.2786 189.715C58.6686 190.065 57.9786 190.24 57.2086 190.24ZM57.2086 188.725C57.6286 188.725 58.0186 188.625 58.3786 188.425C58.7386 188.215 59.0236 187.92 59.2336 187.54C59.4536 187.15 59.5636 186.695 59.5636 186.175C59.5636 185.655 59.4536 185.205 59.2336 184.825C59.0236 184.445 58.7386 184.155 58.3786 183.955C58.0186 183.745 57.6286 183.64 57.2086 183.64C56.7886 183.64 56.3986 183.745 56.0386 183.955C55.6786 184.155 55.3886 184.445 55.1686 184.825C54.9586 185.205 54.8536 185.655 54.8536 186.175C54.8536 186.695 54.9586 187.15 55.1686 187.54C55.3886 187.92 55.6786 188.215 56.0386 188.425C56.3986 188.625 56.7886 188.725 57.2086 188.725ZM66.6349 190.24C65.8649 190.24 65.1749 190.065 64.5649 189.715C63.9649 189.355 63.4899 188.8 63.1399 188.05C62.7899 187.3 62.6149 186.355 62.6149 185.215C62.6149 184.015 62.7499 183.045 63.0199 182.305C63.2899 181.565 63.6649 180.975 64.1449 180.535C64.5049 180.205 64.9399 179.95 65.4499 179.77C65.9599 179.58 66.5099 179.485 67.0999 179.485C67.4699 179.485 67.7499 179.47 67.9399 179.44C68.1299 179.4 68.2649 179.35 68.3449 179.29C68.4249 179.22 68.4849 179.125 68.5249 179.005H70.0549C69.9349 179.725 69.6549 180.22 69.2149 180.49C68.7749 180.76 68.1099 180.895 67.2199 180.895C66.7299 180.895 66.3299 180.955 66.0199 181.075C65.7199 181.185 65.4549 181.34 65.2249 181.54C64.6749 182.04 64.3549 182.675 64.2649 183.445H64.3549C64.6149 183.065 64.9699 182.75 65.4199 182.5C65.8799 182.24 66.4249 182.11 67.0549 182.11C67.7249 182.11 68.3349 182.295 68.8849 182.665C69.4349 183.025 69.8649 183.52 70.1749 184.15C70.4849 184.77 70.6399 185.445 70.6399 186.175C70.6399 186.935 70.4699 187.625 70.1299 188.245C69.7899 188.865 69.3149 189.355 68.7049 189.715C68.0949 190.065 67.4049 190.24 66.6349 190.24ZM66.6349 188.725C67.0549 188.725 67.4449 188.625 67.8049 188.425C68.1649 188.215 68.4499 187.92 68.6599 187.54C68.8799 187.15 68.9899 186.695 68.9899 186.175C68.9899 185.655 68.8799 185.205 68.6599 184.825C68.4499 184.445 68.1649 184.155 67.8049 183.955C67.4449 183.745 67.0549 183.64 66.6349 183.64C66.2149 183.64 65.8249 183.745 65.4649 183.955C65.1149 184.155 64.8299 184.445 64.6099 184.825C64.3999 185.205 64.2949 185.655 64.2949 186.175C64.2949 186.695 64.3999 187.15 64.6099 187.54C64.8299 187.92 65.1149 188.215 65.4649 188.425C65.8249 188.625 66.2149 188.725 66.6349 188.725ZM75.517 190.24C74.767 190.24 74.092 190.065 73.492 189.715C72.902 189.365 72.437 188.885 72.097 188.275C71.767 187.655 71.602 186.96 71.602 186.19C71.602 185.46 71.762 184.785 72.082 184.165C72.412 183.535 72.867 183.035 73.447 182.665C74.027 182.295 74.687 182.11 75.427 182.11C76.197 182.11 76.862 182.28 77.422 182.62C77.992 182.96 78.422 183.425 78.712 184.015C79.012 184.605 79.162 185.27 79.162 186.01C79.162 186.15 79.147 186.325 79.117 186.535H73.252C73.312 187.245 73.562 187.795 74.002 188.185C74.452 188.565 74.972 188.755 75.562 188.755C76.032 188.755 76.437 188.65 76.777 188.44C77.127 188.22 77.407 187.925 77.617 187.555L79.012 188.215C78.652 188.845 78.182 189.34 77.602 189.7C77.022 190.06 76.327 190.24 75.517 190.24ZM77.482 185.275C77.462 185.005 77.377 184.74 77.227 184.48C77.077 184.21 76.847 183.985 76.537 183.805C76.237 183.625 75.867 183.535 75.427 183.535C74.897 183.535 74.447 183.695 74.077 184.015C73.717 184.325 73.467 184.745 73.327 185.275H77.482ZM83.4131 190.24C82.7831 190.24 82.2031 190.12 81.6731 189.88C81.1431 189.64 80.6781 189.3 80.2781 188.86L81.3431 187.81C81.9731 188.47 82.6631 188.8 83.4131 188.8C83.8931 188.8 84.2781 188.705 84.5681 188.515C84.8581 188.325 85.0031 188.075 85.0031 187.765C85.0031 187.475 84.8781 187.235 84.6281 187.045C84.3881 186.845 84.0581 186.745 83.6381 186.745H82.4381V185.485H83.5631C83.9131 185.485 84.2031 185.4 84.4331 185.23C84.6731 185.05 84.7931 184.8 84.7931 184.48C84.7931 184.22 84.6681 183.995 84.4181 183.805C84.1781 183.615 83.8531 183.52 83.4431 183.52C83.0731 183.52 82.7431 183.58 82.4531 183.7C82.1631 183.82 81.8881 184.015 81.6281 184.285L80.5931 183.295C80.9831 182.885 81.4031 182.585 81.8531 182.395C82.3031 182.205 82.8331 182.11 83.4431 182.11C83.9931 182.11 84.4881 182.21 84.9281 182.41C85.3781 182.61 85.7281 182.88 85.9781 183.22C86.2281 183.56 86.3531 183.935 86.3531 184.345C86.3531 185.125 86.0281 185.68 85.3781 186.01V186.1C85.7781 186.27 86.0881 186.51 86.3081 186.82C86.5281 187.13 86.6381 187.48 86.6381 187.87C86.6381 188.6 86.3481 189.18 85.7681 189.61C85.1881 190.03 84.4031 190.24 83.4131 190.24ZM91.8375 190.24C91.0675 190.24 90.3775 190.065 89.7675 189.715C89.1575 189.355 88.6825 188.865 88.3425 188.245C88.0025 187.625 87.8325 186.935 87.8325 186.175C87.8325 185.415 88.0025 184.725 88.3425 184.105C88.6825 183.485 89.1575 183 89.7675 182.65C90.3775 182.29 91.0675 182.11 91.8375 182.11C92.6075 182.11 93.2975 182.29 93.9075 182.65C94.5175 183.01 94.9925 183.5 95.3325 184.12C95.6725 184.74 95.8425 185.425 95.8425 186.175C95.8425 186.935 95.6725 187.625 95.3325 188.245C94.9925 188.865 94.5175 189.355 93.9075 189.715C93.2975 190.065 92.6075 190.24 91.8375 190.24ZM91.8375 188.725C92.2575 188.725 92.6475 188.625 93.0075 188.425C93.3675 188.215 93.6525 187.92 93.8625 187.54C94.0825 187.15 94.1925 186.695 94.1925 186.175C94.1925 185.655 94.0825 185.205 93.8625 184.825C93.6525 184.445 93.3675 184.155 93.0075 183.955C92.6475 183.745 92.2575 183.64 91.8375 183.64C91.4175 183.64 91.0275 183.745 90.6675 183.955C90.3075 184.155 90.0175 184.445 89.7975 184.825C89.5875 185.205 89.4825 185.655 89.4825 186.175C89.4825 186.695 89.5875 187.15 89.7975 187.54C90.0175 187.92 90.3075 188.215 90.6675 188.425C91.0275 188.625 91.4175 188.725 91.8375 188.725ZM97.2173 182.35H103.997V190H102.347V183.88H98.8673V190H97.2173V182.35ZM108.245 190.24C107.695 190.24 107.205 190.135 106.775 189.925C106.345 189.705 106.01 189.4 105.77 189.01C105.53 188.61 105.41 188.16 105.41 187.66C105.41 186.87 105.705 186.245 106.295 185.785C106.895 185.325 107.65 185.095 108.56 185.095C109.01 185.095 109.415 185.14 109.775 185.23C110.135 185.31 110.42 185.4 110.63 185.5V185.11C110.63 184.64 110.455 184.26 110.105 183.97C109.755 183.67 109.305 183.52 108.755 183.52C108.365 183.52 107.995 183.605 107.645 183.775C107.305 183.945 107.03 184.18 106.82 184.48L105.665 183.595C106.005 183.125 106.445 182.76 106.985 182.5C107.525 182.24 108.125 182.11 108.785 182.11C109.895 182.11 110.75 182.385 111.35 182.935C111.95 183.475 112.25 184.24 112.25 185.23V190H110.63V189.085H110.555C110.335 189.415 110.025 189.69 109.625 189.91C109.225 190.13 108.765 190.24 108.245 190.24ZM108.53 188.875C108.93 188.875 109.29 188.78 109.61 188.59C109.93 188.4 110.18 188.145 110.36 187.825C110.54 187.505 110.63 187.16 110.63 186.79C110.4 186.66 110.13 186.555 109.82 186.475C109.52 186.395 109.205 186.355 108.875 186.355C108.255 186.355 107.8 186.48 107.51 186.73C107.22 186.97 107.075 187.285 107.075 187.675C107.075 188.025 107.21 188.315 107.48 188.545C107.75 188.765 108.1 188.875 108.53 188.875ZM117.515 190.24C116.755 190.24 116.07 190.065 115.46 189.715C114.86 189.365 114.39 188.885 114.05 188.275C113.72 187.655 113.555 186.955 113.555 186.175C113.555 185.395 113.72 184.7 114.05 184.09C114.39 183.47 114.86 182.985 115.46 182.635C116.07 182.285 116.755 182.11 117.515 182.11C118.355 182.11 119.07 182.3 119.66 182.68C120.25 183.06 120.67 183.575 120.92 184.225L119.405 184.855C119.065 184.045 118.42 183.64 117.47 183.64C117.06 183.64 116.68 183.745 116.33 183.955C115.99 184.165 115.715 184.465 115.505 184.855C115.305 185.235 115.205 185.675 115.205 186.175C115.205 186.675 115.305 187.12 115.505 187.51C115.715 187.9 115.99 188.2 116.33 188.41C116.68 188.62 117.06 188.725 117.47 188.725C117.95 188.725 118.36 188.62 118.7 188.41C119.05 188.19 119.315 187.88 119.495 187.48L120.98 188.125C120.69 188.775 120.25 189.29 119.66 189.67C119.07 190.05 118.355 190.24 117.515 190.24ZM122.383 182.35H124.033V185.38H127.723V182.35H129.373V190H127.723V186.925H124.033V190H122.383V182.35ZM134.801 190.24C134.031 190.24 133.341 190.065 132.731 189.715C132.121 189.355 131.646 188.865 131.306 188.245C130.966 187.625 130.796 186.935 130.796 186.175C130.796 185.415 130.966 184.725 131.306 184.105C131.646 183.485 132.121 183 132.731 182.65C133.341 182.29 134.031 182.11 134.801 182.11C135.571 182.11 136.261 182.29 136.871 182.65C137.481 183.01 137.956 183.5 138.296 184.12C138.636 184.74 138.806 185.425 138.806 186.175C138.806 186.935 138.636 187.625 138.296 188.245C137.956 188.865 137.481 189.355 136.871 189.715C136.261 190.065 135.571 190.24 134.801 190.24ZM134.801 188.725C135.221 188.725 135.611 188.625 135.971 188.425C136.331 188.215 136.616 187.92 136.826 187.54C137.046 187.15 137.156 186.695 137.156 186.175C137.156 185.655 137.046 185.205 136.826 184.825C136.616 184.445 136.331 184.155 135.971 183.955C135.611 183.745 135.221 183.64 134.801 183.64C134.381 183.64 133.991 183.745 133.631 183.955C133.271 184.155 132.981 184.445 132.761 184.825C132.551 185.205 132.446 185.655 132.446 186.175C132.446 186.695 132.551 187.15 132.761 187.54C132.981 187.92 133.271 188.215 133.631 188.425C133.991 188.625 134.381 188.725 134.801 188.725ZM143.868 190.24C143.108 190.24 142.423 190.065 141.813 189.715C141.213 189.365 140.743 188.885 140.403 188.275C140.073 187.655 139.908 186.955 139.908 186.175C139.908 185.395 140.073 184.7 140.403 184.09C140.743 183.47 141.213 182.985 141.813 182.635C142.423 182.285 143.108 182.11 143.868 182.11C144.708 182.11 145.423 182.3 146.013 182.68C146.603 183.06 147.023 183.575 147.273 184.225L145.758 184.855C145.418 184.045 144.773 183.64 143.823 183.64C143.413 183.64 143.033 183.745 142.683 183.955C142.343 184.165 142.068 184.465 141.858 184.855C141.658 185.235 141.558 185.675 141.558 186.175C141.558 186.675 141.658 187.12 141.858 187.51C142.068 187.9 142.343 188.2 142.683 188.41C143.033 188.62 143.413 188.725 143.823 188.725C144.303 188.725 144.713 188.62 145.053 188.41C145.403 188.19 145.668 187.88 145.848 187.48L147.333 188.125C147.043 188.775 146.603 189.29 146.013 189.67C145.423 190.05 144.708 190.24 143.868 190.24ZM150.626 183.88H148.196V182.35H154.721V183.88H152.276V190H150.626V183.88ZM156.104 182.35H157.754V186.085L157.679 187.525H157.754L161.354 182.35H163.004V190H161.354V186.265L161.429 184.825H161.354L157.754 190H156.104V182.35Z" fill="black"/>
<path d="M226.658 240.24C225.618 240.24 224.668 239.995 223.808 239.505C222.948 239.015 222.273 238.34 221.783 237.48C221.293 236.62 221.048 235.67 221.048 234.63C221.048 233.59 221.293 232.64 221.783 231.78C222.273 230.92 222.948 230.245 223.808 229.755C224.668 229.265 225.618 229.02 226.658 229.02C227.468 229.02 228.203 229.17 228.863 229.47C229.533 229.77 230.123 230.205 230.633 230.775L229.433 231.93C229.063 231.49 228.653 231.165 228.203 230.955C227.753 230.735 227.238 230.625 226.658 230.625C225.938 230.625 225.278 230.79 224.678 231.12C224.088 231.45 223.618 231.92 223.268 232.53C222.918 233.13 222.743 233.83 222.743 234.63C222.743 235.43 222.918 236.135 223.268 236.745C223.618 237.345 224.088 237.81 224.678 238.14C225.278 238.47 225.938 238.635 226.658 238.635C227.858 238.635 228.878 238.135 229.718 237.135L230.933 238.305C230.413 238.915 229.788 239.39 229.058 239.73C228.328 240.07 227.528 240.24 226.658 240.24ZM234.646 240.24C234.096 240.24 233.606 240.135 233.176 239.925C232.746 239.705 232.411 239.4 232.171 239.01C231.931 238.61 231.811 238.16 231.811 237.66C231.811 236.87 232.106 236.245 232.696 235.785C233.296 235.325 234.051 235.095 234.961 235.095C235.411 235.095 235.816 235.14 236.176 235.23C236.536 235.31 236.821 235.4 237.031 235.5V235.11C237.031 234.64 236.856 234.26 236.506 233.97C236.156 233.67 235.706 233.52 235.156 233.52C234.766 233.52 234.396 233.605 234.046 233.775C233.706 233.945 233.431 234.18 233.221 234.48L232.066 233.595C232.406 233.125 232.846 232.76 233.386 232.5C233.926 232.24 234.526 232.11 235.186 232.11C236.296 232.11 237.151 232.385 237.751 232.935C238.351 233.475 238.651 234.24 238.651 235.23V240H237.031V239.085H236.956C236.736 239.415 236.426 239.69 236.026 239.91C235.626 240.13 235.166 240.24 234.646 240.24ZM234.931 238.875C235.331 238.875 235.691 238.78 236.011 238.59C236.331 238.4 236.581 238.145 236.761 237.825C236.941 237.505 237.031 237.16 237.031 236.79C236.801 236.66 236.531 236.555 236.221 236.475C235.921 236.395 235.606 236.355 235.276 236.355C234.656 236.355 234.201 236.48 233.911 236.73C233.621 236.97 233.476 237.285 233.476 237.675C233.476 238.025 233.611 238.315 233.881 238.545C234.151 238.765 234.501 238.875 234.931 238.875ZM240.449 232.35H242.099V235.38H245.789V232.35H247.439V240H245.789V236.925H242.099V240H240.449V232.35ZM251.246 233.88H248.816V232.35H255.341V233.88H252.896V240H251.246V233.88ZM260.072 240.24C259.322 240.24 258.647 240.065 258.047 239.715C257.457 239.365 256.992 238.885 256.652 238.275C256.322 237.655 256.157 236.96 256.157 236.19C256.157 235.46 256.317 234.785 256.637 234.165C256.967 233.535 257.422 233.035 258.002 232.665C258.582 232.295 259.242 232.11 259.982 232.11C260.752 232.11 261.417 232.28 261.977 232.62C262.547 232.96 262.977 233.425 263.267 234.015C263.567 234.605 263.717 235.27 263.717 236.01C263.717 236.15 263.702 236.325 263.672 236.535H257.807C257.867 237.245 258.117 237.795 258.557 238.185C259.007 238.565 259.527 238.755 260.117 238.755C260.587 238.755 260.992 238.65 261.332 238.44C261.682 238.22 261.962 237.925 262.172 237.555L263.567 238.215C263.207 238.845 262.737 239.34 262.157 239.7C261.577 240.06 260.882 240.24 260.072 240.24ZM262.037 235.275C262.017 235.005 261.932 234.74 261.782 234.48C261.632 234.21 261.402 233.985 261.092 233.805C260.792 233.625 260.422 233.535 259.982 233.535C259.452 233.535 259.002 233.695 258.632 234.015C258.272 234.325 258.022 234.745 257.882 235.275H262.037ZM266.978 236.115L264.338 232.35H266.258L267.953 234.84H267.998L269.618 232.35H271.598L268.928 236.115L271.628 240H269.678L267.968 237.42H267.923L266.258 240H264.308L266.978 236.115ZM272.778 232.35H274.428V235.38H278.118V232.35H279.768V240H278.118V236.925H274.428V240H272.778V232.35ZM281.685 232.35H283.335V236.085L283.26 237.525H283.335L286.935 232.35H288.585V240H286.935V236.265L287.01 234.825H286.935L283.335 240H281.685V232.35ZM290.503 232.35H292.153V235.725H292.243L295.093 232.35H297.103V232.44L294.013 235.98L297.253 239.91V240H295.258L292.243 236.25H292.153V240H290.503V232.35ZM300.52 240.24C299.97 240.24 299.48 240.135 299.05 239.925C298.62 239.705 298.285 239.4 298.045 239.01C297.805 238.61 297.685 238.16 297.685 237.66C297.685 236.87 297.98 236.245 298.57 235.785C299.17 235.325 299.925 235.095 300.835 235.095C301.285 235.095 301.69 235.14 302.05 235.23C302.41 235.31 302.695 235.4 302.905 235.5V235.11C302.905 234.64 302.73 234.26 302.38 233.97C302.03 233.67 301.58 233.52 301.03 233.52C300.64 233.52 300.27 233.605 299.92 233.775C299.58 233.945 299.305 234.18 299.095 234.48L297.94 233.595C298.28 233.125 298.72 232.76 299.26 232.5C299.8 232.24 300.4 232.11 301.06 232.11C302.17 232.11 303.025 232.385 303.625 232.935C304.225 233.475 304.525 234.24 304.525 235.23V240H302.905V239.085H302.83C302.61 239.415 302.3 239.69 301.9 239.91C301.5 240.13 301.04 240.24 300.52 240.24ZM300.805 238.875C301.205 238.875 301.565 238.78 301.885 238.59C302.205 238.4 302.455 238.145 302.635 237.825C302.815 237.505 302.905 237.16 302.905 236.79C302.675 236.66 302.405 236.555 302.095 236.475C301.795 236.395 301.48 236.355 301.15 236.355C300.53 236.355 300.075 236.48 299.785 236.73C299.495 236.97 299.35 237.285 299.35 237.675C299.35 238.025 299.485 238.315 299.755 238.545C300.025 238.765 300.375 238.875 300.805 238.875ZM306.143 241.29L306.998 239.985C306.788 239.925 306.603 239.8 306.443 239.61C306.293 239.42 306.218 239.195 306.218 238.935C306.218 238.615 306.328 238.345 306.548 238.125C306.778 237.905 307.053 237.795 307.373 237.795C307.693 237.795 307.963 237.905 308.183 238.125C308.413 238.345 308.528 238.615 308.528 238.935C308.528 239.115 308.493 239.285 308.423 239.445C308.353 239.605 308.248 239.79 308.108 240L306.908 241.785L306.143 241.29ZM317.423 240.24C316.653 240.24 315.963 240.065 315.353 239.715C314.743 239.355 314.268 238.865 313.928 238.245C313.588 237.625 313.418 236.935 313.418 236.175C313.418 235.415 313.588 234.725 313.928 234.105C314.268 233.485 314.743 233 315.353 232.65C315.963 232.29 316.653 232.11 317.423 232.11C318.193 232.11 318.883 232.29 319.493 232.65C320.103 233.01 320.578 233.5 320.918 234.12C321.258 234.74 321.428 235.425 321.428 236.175C321.428 236.935 321.258 237.625 320.918 238.245C320.578 238.865 320.103 239.355 319.493 239.715C318.883 240.065 318.193 240.24 317.423 240.24ZM317.423 238.725C317.843 238.725 318.233 238.625 318.593 238.425C318.953 238.215 319.238 237.92 319.448 237.54C319.668 237.15 319.778 236.695 319.778 236.175C319.778 235.655 319.668 235.205 319.448 234.825C319.238 234.445 318.953 234.155 318.593 233.955C318.233 233.745 317.843 233.64 317.423 233.64C317.003 233.64 316.613 233.745 316.253 233.955C315.893 234.155 315.603 234.445 315.383 234.825C315.173 235.205 315.068 235.655 315.068 236.175C315.068 236.695 315.173 237.15 315.383 237.54C315.603 237.92 315.893 238.215 316.253 238.425C316.613 238.625 317.003 238.725 317.423 238.725ZM322.803 232.35H324.453V235.725H324.543L327.393 232.35H329.403V232.44L326.313 235.98L329.553 239.91V240H327.558L324.543 236.25H324.453V240H322.803V232.35ZM330.566 232.35H332.216V235.38H335.906V232.35H337.556V240H335.906V236.925H332.216V240H330.566V232.35ZM341.799 240.24C341.249 240.24 340.759 240.135 340.329 239.925C339.899 239.705 339.564 239.4 339.324 239.01C339.084 238.61 338.964 238.16 338.964 237.66C338.964 236.87 339.259 236.245 339.849 235.785C340.449 235.325 341.204 235.095 342.114 235.095C342.564 235.095 342.969 235.14 343.329 235.23C343.689 235.31 343.974 235.4 344.184 235.5V235.11C344.184 234.64 344.009 234.26 343.659 233.97C343.309 233.67 342.859 233.52 342.309 233.52C341.919 233.52 341.549 233.605 341.199 233.775C340.859 233.945 340.584 234.18 340.374 234.48L339.219 233.595C339.559 233.125 339.999 232.76 340.539 232.5C341.079 232.24 341.679 232.11 342.339 232.11C343.449 232.11 344.304 232.385 344.904 232.935C345.504 233.475 345.804 234.24 345.804 235.23V240H344.184V239.085H344.109C343.889 239.415 343.579 239.69 343.179 239.91C342.779 240.13 342.319 240.24 341.799 240.24ZM342.084 238.875C342.484 238.875 342.844 238.78 343.164 238.59C343.484 238.4 343.734 238.145 343.914 237.825C344.094 237.505 344.184 237.16 344.184 236.79C343.954 236.66 343.684 236.555 343.374 236.475C343.074 236.395 342.759 236.355 342.429 236.355C341.809 236.355 341.354 236.48 341.064 236.73C340.774 236.97 340.629 237.285 340.629 237.675C340.629 238.025 340.764 238.315 341.034 238.545C341.304 238.765 341.654 238.875 342.084 238.875ZM347.423 241.29L348.278 239.985C348.068 239.925 347.883 239.8 347.723 239.61C347.573 239.42 347.498 239.195 347.498 238.935C347.498 238.615 347.608 238.345 347.828 238.125C348.058 237.905 348.333 237.795 348.653 237.795C348.973 237.795 349.243 237.905 349.463 238.125C349.693 238.345 349.808 238.615 349.808 238.935C349.808 239.115 349.773 239.285 349.703 239.445C349.633 239.605 349.528 239.79 349.388 240L348.188 241.785L347.423 241.29ZM263.729 257.53H264.569C264.789 257.24 264.969 256.77 265.109 256.12C265.259 255.47 265.334 254.8 265.334 254.11V251.35H271.619V257.53H272.789V261.28H271.259V259H265.259V261.28H263.729V257.53ZM270.014 257.53V252.835H266.939V254.245C266.939 254.835 266.879 255.42 266.759 256C266.649 256.57 266.489 257.08 266.279 257.53H270.014ZM274.243 251.35H278.068C278.508 251.35 278.908 251.44 279.268 251.62C279.628 251.79 279.908 252.03 280.108 252.34C280.318 252.64 280.423 252.975 280.423 253.345C280.423 253.735 280.333 254.075 280.153 254.365C279.983 254.655 279.753 254.87 279.463 255.01V255.1C279.843 255.25 280.143 255.475 280.363 255.775C280.583 256.075 280.693 256.42 280.693 256.81C280.693 257.24 280.578 257.625 280.348 257.965C280.128 258.295 279.833 258.55 279.463 258.73C279.093 258.91 278.698 259 278.278 259H274.243V251.35ZM277.888 254.455C278.148 254.455 278.363 254.375 278.533 254.215C278.713 254.045 278.803 253.835 278.803 253.585C278.803 253.335 278.713 253.13 278.533 252.97C278.363 252.8 278.148 252.715 277.888 252.715H275.848V254.455H277.888ZM278.113 257.605C278.393 257.605 278.628 257.515 278.818 257.335C279.008 257.155 279.103 256.93 279.103 256.66C279.103 256.39 279.008 256.165 278.818 255.985C278.628 255.795 278.393 255.7 278.113 255.7H275.848V257.605H278.113ZM285.619 259.24C284.869 259.24 284.194 259.065 283.594 258.715C283.004 258.365 282.539 257.885 282.199 257.275C281.869 256.655 281.704 255.96 281.704 255.19C281.704 254.46 281.864 253.785 282.184 253.165C282.514 252.535 282.969 252.035 283.549 251.665C284.129 251.295 284.789 251.11 285.529 251.11C286.299 251.11 286.964 251.28 287.524 251.62C288.094 251.96 288.524 252.425 288.814 253.015C289.114 253.605 289.264 254.27 289.264 255.01C289.264 255.15 289.249 255.325 289.219 255.535H283.354C283.414 256.245 283.664 256.795 284.104 257.185C284.554 257.565 285.074 257.755 285.664 257.755C286.134 257.755 286.539 257.65 286.879 257.44C287.229 257.22 287.509 256.925 287.719 256.555L289.114 257.215C288.754 257.845 288.284 258.34 287.704 258.7C287.124 259.06 286.429 259.24 285.619 259.24ZM287.584 254.275C287.564 254.005 287.479 253.74 287.329 253.48C287.179 253.21 286.949 252.985 286.639 252.805C286.339 252.625 285.969 252.535 285.529 252.535C284.999 252.535 284.549 252.695 284.179 253.015C283.819 253.325 283.569 253.745 283.429 254.275H287.584ZM290.707 251.35H292.282V252.355H292.357C292.577 252.005 292.902 251.71 293.332 251.47C293.762 251.23 294.247 251.11 294.787 251.11C295.477 251.11 296.102 251.285 296.662 251.635C297.222 251.985 297.662 252.47 297.982 253.09C298.312 253.7 298.477 254.395 298.477 255.175C298.477 255.955 298.312 256.655 297.982 257.275C297.662 257.885 297.222 258.365 296.662 258.715C296.102 259.065 295.477 259.24 294.787 259.24C294.247 259.24 293.762 259.12 293.332 258.88C292.902 258.64 292.577 258.35 292.357 258.01H292.282L292.357 259.075V262.24H290.707V251.35ZM294.547 257.725C294.947 257.725 295.322 257.62 295.672 257.41C296.022 257.2 296.302 256.9 296.512 256.51C296.722 256.12 296.827 255.675 296.827 255.175C296.827 254.675 296.722 254.235 296.512 253.855C296.302 253.465 296.022 253.165 295.672 252.955C295.322 252.745 294.947 252.64 294.547 252.64C294.147 252.64 293.772 252.745 293.422 252.955C293.082 253.165 292.807 253.465 292.597 253.855C292.387 254.235 292.282 254.675 292.282 255.175C292.282 255.675 292.387 256.12 292.597 256.51C292.807 256.9 293.082 257.2 293.422 257.41C293.772 257.62 294.147 257.725 294.547 257.725ZM299.907 251.35H301.557V255.085L301.482 256.525H301.557L305.157 251.35H306.807V259H305.157V255.265L305.232 253.825H305.157L301.557 259H299.907V251.35Z" fill="black"/>
<path d="M175.002 29C175.002 76.5425 196.695 64.792 196.997 100.376C197.304 136.536 174.696 137.464 175.003 173.624C175.305 209.208 196.997 202.698 196.997 245" stroke="#00417D" stroke-width="2" stroke-linecap="round" stroke-dasharray="10 10"/>
<circle cx="174.359" cy="29" r="4" transform="rotate(90 174.359 29)" fill="#00417D"/>
<circle cx="197" cy="107" r="4" transform="rotate(90 197 107)" fill="#00417D"/>
<circle cx="174.357" cy="176" r="4" transform="rotate(90 174.357 176)" fill="#00417D"/>
<circle cx="197" cy="244.404" r="4" transform="rotate(90 197 244.404)" fill="#00417D"/>
</svg>
