<svg width="1128" height="155" viewBox="0 0 1128 155" fill="none" xmlns="http://www.w3.org/2000/svg">
<path d="M11.1408 22.32C9.75412 22.32 8.49411 21.9933 7.36078 21.34C6.22745 20.6733 5.33411 19.7667 4.68078 18.62C4.04078 17.4733 3.72078 16.2133 3.72078 14.84C3.72078 13.4667 4.04078 12.2133 4.68078 11.08C5.33411 9.93333 6.22745 9.02667 7.36078 8.36C8.49411 7.69333 9.75412 7.36 11.1408 7.36C12.5274 7.36 13.7808 7.69333 14.9008 8.36C16.0341 9.02667 16.9274 9.93333 17.5808 11.08C18.2341 12.2133 18.5608 13.4667 18.5608 14.84C18.5608 16.2133 18.2341 17.4733 17.5808 18.62C16.9408 19.7667 16.0541 20.6733 14.9208 21.34C13.7874 21.9933 12.5274 22.32 11.1408 22.32ZM11.1408 20.18C12.0874 20.18 12.9541 19.9533 13.7408 19.5C14.5274 19.0467 15.1474 18.42 15.6008 17.62C16.0541 16.8067 16.2808 15.88 16.2808 14.84C16.2808 13.8 16.0541 12.88 15.6008 12.08C15.1474 11.2667 14.5274 10.6333 13.7408 10.18C12.9541 9.72667 12.0874 9.5 11.1408 9.5C10.1941 9.5 9.32745 9.72667 8.54078 10.18C7.75411 10.6333 7.12745 11.2667 6.66078 12.08C6.20745 12.88 5.98078 13.8 5.98078 14.84C5.98078 15.88 6.20745 16.8067 6.66078 17.62C7.12745 18.42 7.75411 19.0467 8.54078 19.5C9.32745 19.9533 10.1941 20.18 11.1408 20.18ZM23.2805 13.84H20.0405V11.8H28.7405V13.84H25.4805V22H23.2805V13.84ZM48.7922 16.9C48.7922 17.9 48.5455 18.7867 48.0522 19.56C47.5589 20.32 46.8722 20.9333 45.9922 21.4C45.1122 21.8533 44.0989 22.14 42.9522 22.26V26.32H40.7522V22.26C39.0055 22.0867 37.5922 21.5267 36.5122 20.58C35.4455 19.6333 34.9122 18.4067 34.9122 16.9C34.9122 15.9 35.1589 15.02 35.6522 14.26C36.1455 13.4867 36.8322 12.8733 37.7122 12.42C38.5922 11.9533 39.6055 11.66 40.7522 11.54V7.68H42.9522V11.54C44.0989 11.66 45.1122 11.9533 45.9922 12.42C46.8722 12.8733 47.5589 13.4867 48.0522 14.26C48.5455 15.02 48.7922 15.9 48.7922 16.9ZM37.0322 16.9C37.0322 17.8333 37.3589 18.5933 38.0122 19.18C38.6789 19.7667 39.5922 20.1333 40.7522 20.28V13.52C39.5922 13.6667 38.6789 14.04 38.0122 14.64C37.3589 15.2267 37.0322 15.98 37.0322 16.9ZM42.9522 20.28C44.0989 20.1333 45.0055 19.7667 45.6722 19.18C46.3389 18.58 46.6722 17.82 46.6722 16.9C46.6722 15.98 46.3389 15.2267 45.6722 14.64C45.0055 14.04 44.0989 13.6667 42.9522 13.52V20.28ZM53.7242 21.44L49.4842 11.8H51.9442L54.8242 18.74H54.9042L57.7042 11.8H60.1242L53.8242 26.32H51.5042L53.7242 21.44ZM61.5613 11.8H63.7613V15.84H68.6813V11.8H70.8813V22H68.6813V17.9H63.7613V22H61.5613V11.8ZM72.8162 20.04H73.9363C74.2296 19.6533 74.4696 19.0267 74.6562 18.16C74.8563 17.2933 74.9563 16.4 74.9563 15.48V11.8H83.3363V20.04H84.8963V25.04H82.8563V22H74.8563V25.04H72.8162V20.04ZM81.1963 20.04V13.78H77.0963V15.66C77.0963 16.4467 77.0163 17.2267 76.8563 18C76.7096 18.76 76.4963 19.44 76.2163 20.04H81.1963ZM90.0347 22.32C89.3014 22.32 88.648 22.18 88.0747 21.9C87.5014 21.6067 87.0547 21.2 86.7347 20.68C86.4147 20.1467 86.2547 19.5467 86.2547 18.88C86.2547 17.8267 86.648 16.9933 87.4347 16.38C88.2347 15.7667 89.2414 15.46 90.4547 15.46C91.0547 15.46 91.5947 15.52 92.0747 15.64C92.5547 15.7467 92.9347 15.8667 93.2147 16V15.48C93.2147 14.8533 92.9814 14.3467 92.5147 13.96C92.048 13.56 91.448 13.36 90.7147 13.36C90.1947 13.36 89.7014 13.4733 89.2347 13.7C88.7814 13.9267 88.4147 14.24 88.1347 14.64L86.5947 13.46C87.048 12.8333 87.6347 12.3467 88.3547 12C89.0747 11.6533 89.8747 11.48 90.7547 11.48C92.2347 11.48 93.3747 11.8467 94.1747 12.58C94.9747 13.3 95.3747 14.32 95.3747 15.64V22H93.2147V20.78H93.1147C92.8214 21.22 92.408 21.5867 91.8747 21.88C91.3414 22.1733 90.728 22.32 90.0347 22.32ZM90.4147 20.5C90.948 20.5 91.428 20.3733 91.8547 20.12C92.2814 19.8667 92.6147 19.5267 92.8547 19.1C93.0947 18.6733 93.2147 18.2133 93.2147 17.72C92.908 17.5467 92.548 17.4067 92.1347 17.3C91.7347 17.1933 91.3147 17.14 90.8747 17.14C90.048 17.14 89.4414 17.3067 89.0547 17.64C88.668 17.96 88.4747 18.38 88.4747 18.9C88.4747 19.3667 88.6547 19.7533 89.0147 20.06C89.3747 20.3533 89.8414 20.5 90.4147 20.5ZM97.7522 11.8H100.372L103.552 17.94H103.652L106.792 11.8H109.432V22H107.272V17.14L107.392 15.22H107.272L104.372 20.72H102.832L99.9122 15.22H99.7922L99.9122 17.14V22H97.7522V11.8ZM116.534 22.32C115.534 22.32 114.634 22.0867 113.834 21.62C113.047 21.1533 112.427 20.5133 111.974 19.7C111.534 18.8733 111.314 17.9467 111.314 16.92C111.314 15.9467 111.527 15.0467 111.954 14.22C112.394 13.38 113 12.7133 113.774 12.22C114.547 11.7267 115.427 11.48 116.414 11.48C117.44 11.48 118.327 11.7067 119.074 12.16C119.834 12.6133 120.407 13.2333 120.794 14.02C121.194 14.8067 121.394 15.6933 121.394 16.68C121.394 16.8667 121.374 17.1 121.334 17.38H113.514C113.594 18.3267 113.927 19.06 114.514 19.58C115.114 20.0867 115.807 20.34 116.594 20.34C117.22 20.34 117.76 20.2 118.214 19.92C118.68 19.6267 119.054 19.2333 119.334 18.74L121.194 19.62C120.714 20.46 120.087 21.12 119.314 21.6C118.54 22.08 117.614 22.32 116.534 22.32ZM119.154 15.7C119.127 15.34 119.014 14.9867 118.814 14.64C118.614 14.28 118.307 13.98 117.894 13.74C117.494 13.5 117 13.38 116.414 13.38C115.707 13.38 115.107 13.5933 114.614 14.02C114.134 14.4333 113.8 14.9933 113.614 15.7H119.154ZM123.397 11.8H125.597V15.84H130.517V11.8H132.717V22H130.517V17.9H125.597V22H123.397V11.8ZM137.792 13.84H134.552V11.8H143.252V13.84H139.992V22H137.792V13.84ZM145.096 11.8H147.296V15.84H152.216V11.8H154.416V22H152.216V17.9H147.296V22H145.096V11.8ZM161.654 22.32C160.627 22.32 159.707 22.0867 158.894 21.62C158.08 21.14 157.447 20.4867 156.994 19.66C156.54 18.8333 156.314 17.9133 156.314 16.9C156.314 15.8867 156.54 14.9667 156.994 14.14C157.447 13.3133 158.08 12.6667 158.894 12.2C159.707 11.72 160.627 11.48 161.654 11.48C162.68 11.48 163.6 11.72 164.414 12.2C165.227 12.68 165.86 13.3333 166.314 14.16C166.767 14.9867 166.994 15.9 166.994 16.9C166.994 17.9133 166.767 18.8333 166.314 19.66C165.86 20.4867 165.227 21.14 164.414 21.62C163.6 22.0867 162.68 22.32 161.654 22.32ZM161.654 20.3C162.214 20.3 162.734 20.1667 163.214 19.9C163.694 19.62 164.074 19.2267 164.354 18.72C164.647 18.2 164.794 17.5933 164.794 16.9C164.794 16.2067 164.647 15.6067 164.354 15.1C164.074 14.5933 163.694 14.2067 163.214 13.94C162.734 13.66 162.214 13.52 161.654 13.52C161.094 13.52 160.574 13.66 160.094 13.94C159.614 14.2067 159.227 14.5933 158.934 15.1C158.654 15.6067 158.514 16.2067 158.514 16.9C158.514 17.5933 158.654 18.2 158.934 18.72C159.227 19.2267 159.614 19.62 160.094 19.9C160.574 20.1667 161.094 20.3 161.654 20.3ZM168.827 11.8H175.967V13.74H171.027V22H168.827V11.8ZM182.415 22.32C181.389 22.32 180.469 22.0867 179.655 21.62C178.842 21.14 178.209 20.4867 177.755 19.66C177.302 18.8333 177.075 17.9133 177.075 16.9C177.075 15.8867 177.302 14.9667 177.755 14.14C178.209 13.3133 178.842 12.6667 179.655 12.2C180.469 11.72 181.389 11.48 182.415 11.48C183.442 11.48 184.362 11.72 185.175 12.2C185.989 12.68 186.622 13.3333 187.075 14.16C187.529 14.9867 187.755 15.9 187.755 16.9C187.755 17.9133 187.529 18.8333 187.075 19.66C186.622 20.4867 185.989 21.14 185.175 21.62C184.362 22.0867 183.442 22.32 182.415 22.32ZM182.415 20.3C182.975 20.3 183.495 20.1667 183.975 19.9C184.455 19.62 184.835 19.2267 185.115 18.72C185.409 18.2 185.555 17.5933 185.555 16.9C185.555 16.2067 185.409 15.6067 185.115 15.1C184.835 14.5933 184.455 14.2067 183.975 13.94C183.495 13.66 182.975 13.52 182.415 13.52C181.855 13.52 181.335 13.66 180.855 13.94C180.375 14.2067 179.989 14.5933 179.695 15.1C179.415 15.6067 179.275 16.2067 179.275 16.9C179.275 17.5933 179.415 18.2 179.695 18.72C179.989 19.2267 180.375 19.62 180.855 19.9C181.335 20.1667 181.855 20.3 182.415 20.3ZM199.671 22.32C198.645 22.32 197.725 22.0867 196.911 21.62C196.111 21.14 195.478 20.4 195.011 19.4C194.545 18.4 194.311 17.14 194.311 15.62C194.311 14.02 194.491 12.7267 194.851 11.74C195.211 10.7533 195.711 9.96667 196.351 9.38C196.831 8.94 197.411 8.6 198.091 8.36C198.771 8.10667 199.505 7.98 200.291 7.98C200.785 7.98 201.158 7.96 201.411 7.92C201.665 7.86667 201.845 7.8 201.951 7.72C202.058 7.62667 202.138 7.5 202.191 7.34H204.231C204.071 8.3 203.698 8.96 203.111 9.32C202.525 9.68 201.638 9.86 200.451 9.86C199.798 9.86 199.265 9.94 198.851 10.1C198.451 10.2467 198.098 10.4533 197.791 10.72C197.058 11.3867 196.631 12.2333 196.511 13.26H196.631C196.978 12.7533 197.451 12.3333 198.051 12C198.665 11.6533 199.391 11.48 200.231 11.48C201.125 11.48 201.938 11.7267 202.671 12.22C203.405 12.7 203.978 13.36 204.391 14.2C204.805 15.0267 205.011 15.9267 205.011 16.9C205.011 17.9133 204.785 18.8333 204.331 19.66C203.878 20.4867 203.245 21.14 202.431 21.62C201.618 22.0867 200.698 22.32 199.671 22.32ZM199.671 20.3C200.231 20.3 200.751 20.1667 201.231 19.9C201.711 19.62 202.091 19.2267 202.371 18.72C202.665 18.2 202.811 17.5933 202.811 16.9C202.811 16.2067 202.665 15.6067 202.371 15.1C202.091 14.5933 201.711 14.2067 201.231 13.94C200.751 13.66 200.231 13.52 199.671 13.52C199.111 13.52 198.591 13.66 198.111 13.94C197.645 14.2067 197.265 14.5933 196.971 15.1C196.691 15.6067 196.551 16.2067 196.551 16.9C196.551 17.5933 196.691 18.2 196.971 18.72C197.265 19.2267 197.645 19.62 198.111 19.9C198.591 20.1667 199.111 20.3 199.671 20.3ZM211.514 22.32C210.514 22.32 209.614 22.0867 208.814 21.62C208.028 21.1533 207.408 20.5133 206.954 19.7C206.514 18.8733 206.294 17.9467 206.294 16.92C206.294 15.9467 206.508 15.0467 206.934 14.22C207.374 13.38 207.981 12.7133 208.754 12.22C209.528 11.7267 210.408 11.48 211.394 11.48C212.421 11.48 213.308 11.7067 214.054 12.16C214.814 12.6133 215.388 13.2333 215.774 14.02C216.174 14.8067 216.374 15.6933 216.374 16.68C216.374 16.8667 216.354 17.1 216.314 17.38H208.494C208.574 18.3267 208.908 19.06 209.494 19.58C210.094 20.0867 210.788 20.34 211.574 20.34C212.201 20.34 212.741 20.2 213.194 19.92C213.661 19.6267 214.034 19.2333 214.314 18.74L216.174 19.62C215.694 20.46 215.068 21.12 214.294 21.6C213.521 22.08 212.594 22.32 211.514 22.32ZM214.134 15.7C214.108 15.34 213.994 14.9867 213.794 14.64C213.594 14.28 213.288 13.98 212.874 13.74C212.474 13.5 211.981 13.38 211.394 13.38C210.688 13.38 210.088 13.5933 209.594 14.02C209.114 14.4333 208.781 14.9933 208.594 15.7H214.134ZM220.702 13.84H217.462V11.8H226.162V13.84H222.902V22H220.702V13.84ZM232.591 22.32C231.565 22.32 230.645 22.0867 229.831 21.62C229.018 21.14 228.385 20.4867 227.931 19.66C227.478 18.8333 227.251 17.9133 227.251 16.9C227.251 15.8867 227.478 14.9667 227.931 14.14C228.385 13.3133 229.018 12.6667 229.831 12.2C230.645 11.72 231.565 11.48 232.591 11.48C233.618 11.48 234.538 11.72 235.351 12.2C236.165 12.68 236.798 13.3333 237.251 14.16C237.705 14.9867 237.931 15.9 237.931 16.9C237.931 17.9133 237.705 18.8333 237.251 19.66C236.798 20.4867 236.165 21.14 235.351 21.62C234.538 22.0867 233.618 22.32 232.591 22.32ZM232.591 20.3C233.151 20.3 233.671 20.1667 234.151 19.9C234.631 19.62 235.011 19.2267 235.291 18.72C235.585 18.2 235.731 17.5933 235.731 16.9C235.731 16.2067 235.585 15.6067 235.291 15.1C235.011 14.5933 234.631 14.2067 234.151 13.94C233.671 13.66 233.151 13.52 232.591 13.52C232.031 13.52 231.511 13.66 231.031 13.94C230.551 14.2067 230.165 14.5933 229.871 15.1C229.591 15.6067 229.451 16.2067 229.451 16.9C229.451 17.5933 229.591 18.2 229.871 18.72C230.165 19.2267 230.551 19.62 231.031 19.9C231.511 20.1667 232.031 20.3 232.591 20.3ZM239.764 11.8H241.964V15.84H246.884V11.8H249.084V22H246.884V17.9H241.964V22H239.764V11.8ZM254.742 22.32C254.008 22.32 253.355 22.18 252.782 21.9C252.208 21.6067 251.762 21.2 251.442 20.68C251.122 20.1467 250.962 19.5467 250.962 18.88C250.962 17.8267 251.355 16.9933 252.142 16.38C252.942 15.7667 253.948 15.46 255.162 15.46C255.762 15.46 256.302 15.52 256.782 15.64C257.262 15.7467 257.642 15.8667 257.922 16V15.48C257.922 14.8533 257.688 14.3467 257.222 13.96C256.755 13.56 256.155 13.36 255.422 13.36C254.902 13.36 254.408 13.4733 253.942 13.7C253.488 13.9267 253.122 14.24 252.842 14.64L251.302 13.46C251.755 12.8333 252.342 12.3467 253.062 12C253.782 11.6533 254.582 11.48 255.462 11.48C256.942 11.48 258.082 11.8467 258.882 12.58C259.682 13.3 260.082 14.32 260.082 15.64V22H257.922V20.78H257.822C257.528 21.22 257.115 21.5867 256.582 21.88C256.048 22.1733 255.435 22.32 254.742 22.32ZM255.122 20.5C255.655 20.5 256.135 20.3733 256.562 20.12C256.988 19.8667 257.322 19.5267 257.562 19.1C257.802 18.6733 257.922 18.2133 257.922 17.72C257.615 17.5467 257.255 17.4067 256.842 17.3C256.442 17.1933 256.022 17.14 255.582 17.14C254.755 17.14 254.148 17.3067 253.762 17.64C253.375 17.96 253.182 18.38 253.182 18.9C253.182 19.3667 253.362 19.7533 253.722 20.06C254.082 20.3533 254.548 20.5 255.122 20.5ZM59.3006 50.04H60.4206C60.714 49.6533 60.954 49.0267 61.1406 48.16C61.3406 47.2933 61.4406 46.4 61.4406 45.48V41.8H69.8206V50.04H71.3806V55.04H69.3406V52H61.3406V55.04H59.3006V50.04ZM67.6806 50.04V43.78H63.5806V45.66C63.5806 46.4467 63.5006 47.2267 63.3406 48C63.194 48.76 62.9806 49.44 62.7006 50.04H67.6806ZM78.0991 52.32C77.0724 52.32 76.1524 52.0867 75.3391 51.62C74.5257 51.14 73.8924 50.4867 73.4391 49.66C72.9857 48.8333 72.7591 47.9133 72.7591 46.9C72.7591 45.8867 72.9857 44.9667 73.4391 44.14C73.8924 43.3133 74.5257 42.6667 75.3391 42.2C76.1524 41.72 77.0724 41.48 78.0991 41.48C79.1257 41.48 80.0457 41.72 80.8591 42.2C81.6724 42.68 82.3057 43.3333 82.7591 44.16C83.2124 44.9867 83.4391 45.9 83.4391 46.9C83.4391 47.9133 83.2124 48.8333 82.7591 49.66C82.3057 50.4867 81.6724 51.14 80.8591 51.62C80.0457 52.0867 79.1257 52.32 78.0991 52.32ZM78.0991 50.3C78.6591 50.3 79.1791 50.1667 79.6591 49.9C80.1391 49.62 80.5191 49.2267 80.7991 48.72C81.0924 48.2 81.2391 47.5933 81.2391 46.9C81.2391 46.2067 81.0924 45.6067 80.7991 45.1C80.5191 44.5933 80.1391 44.2067 79.6591 43.94C79.1791 43.66 78.6591 43.52 78.0991 43.52C77.5391 43.52 77.0191 43.66 76.5391 43.94C76.0591 44.2067 75.6724 44.5933 75.3791 45.1C75.0991 45.6067 74.9591 46.2067 74.9591 46.9C74.9591 47.5933 75.0991 48.2 75.3791 48.72C75.6724 49.2267 76.0591 49.62 76.5391 49.9C77.0191 50.1667 77.5391 50.3 78.0991 50.3ZM90.155 41.8H92.355V46.3H92.475L96.275 41.8H98.955V41.92L94.835 46.64L99.155 51.88V52H96.495L92.475 47H92.355V52H90.155V41.8ZM100.427 41.8H102.527V43.14H102.627C102.92 42.6733 103.353 42.28 103.927 41.96C104.5 41.64 105.147 41.48 105.867 41.48C106.787 41.48 107.62 41.7133 108.367 42.18C109.113 42.6467 109.7 43.2933 110.127 44.12C110.567 44.9333 110.787 45.86 110.787 46.9C110.787 47.94 110.567 48.8733 110.127 49.7C109.7 50.5133 109.113 51.1533 108.367 51.62C107.62 52.0867 106.787 52.32 105.867 52.32C105.147 52.32 104.5 52.16 103.927 51.84C103.353 51.52 102.92 51.1333 102.627 50.68H102.527L102.627 52.1V56.32H100.427V41.8ZM105.547 50.3C106.08 50.3 106.58 50.16 107.047 49.88C107.513 49.6 107.887 49.2 108.167 48.68C108.447 48.16 108.587 47.5667 108.587 46.9C108.587 46.2333 108.447 45.6467 108.167 45.14C107.887 44.62 107.513 44.22 107.047 43.94C106.58 43.66 106.08 43.52 105.547 43.52C105.013 43.52 104.513 43.66 104.047 43.94C103.593 44.22 103.227 44.62 102.947 45.14C102.667 45.6467 102.527 46.2333 102.527 46.9C102.527 47.5667 102.667 48.16 102.947 48.68C103.227 49.2 103.593 49.6 104.047 49.88C104.513 50.16 105.013 50.3 105.547 50.3ZM117.572 52.32C116.545 52.32 115.625 52.0867 114.812 51.62C113.998 51.14 113.365 50.4867 112.912 49.66C112.458 48.8333 112.232 47.9133 112.232 46.9C112.232 45.8867 112.458 44.9667 112.912 44.14C113.365 43.3133 113.998 42.6667 114.812 42.2C115.625 41.72 116.545 41.48 117.572 41.48C118.598 41.48 119.518 41.72 120.332 42.2C121.145 42.68 121.778 43.3333 122.232 44.16C122.685 44.9867 122.912 45.9 122.912 46.9C122.912 47.9133 122.685 48.8333 122.232 49.66C121.778 50.4867 121.145 51.14 120.332 51.62C119.518 52.0867 118.598 52.32 117.572 52.32ZM117.572 50.3C118.132 50.3 118.652 50.1667 119.132 49.9C119.612 49.62 119.992 49.2267 120.272 48.72C120.565 48.2 120.712 47.5933 120.712 46.9C120.712 46.2067 120.565 45.6067 120.272 45.1C119.992 44.5933 119.612 44.2067 119.132 43.94C118.652 43.66 118.132 43.52 117.572 43.52C117.012 43.52 116.492 43.66 116.012 43.94C115.532 44.2067 115.145 44.5933 114.852 45.1C114.572 45.6067 114.432 46.2067 114.432 46.9C114.432 47.5933 114.572 48.2 114.852 48.72C115.145 49.2267 115.532 49.62 116.012 49.9C116.492 50.1667 117.012 50.3 117.572 50.3ZM124.745 41.8H129.845C130.432 41.8 130.965 41.92 131.445 42.16C131.925 42.3867 132.298 42.7067 132.565 43.12C132.845 43.52 132.985 43.9667 132.985 44.46C132.985 44.98 132.865 45.4333 132.625 45.82C132.398 46.2067 132.092 46.4933 131.705 46.68V46.8C132.212 47 132.612 47.3 132.905 47.7C133.198 48.1 133.345 48.56 133.345 49.08C133.345 49.6533 133.192 50.1667 132.885 50.62C132.592 51.06 132.198 51.4 131.705 51.64C131.212 51.88 130.685 52 130.125 52H124.745V41.8ZM129.605 45.94C129.952 45.94 130.238 45.8333 130.465 45.62C130.705 45.3933 130.825 45.1133 130.825 44.78C130.825 44.4467 130.705 44.1733 130.465 43.96C130.238 43.7333 129.952 43.62 129.605 43.62H126.885V45.94H129.605ZM129.905 50.14C130.278 50.14 130.592 50.02 130.845 49.78C131.098 49.54 131.225 49.24 131.225 48.88C131.225 48.52 131.098 48.22 130.845 47.98C130.592 47.7267 130.278 47.6 129.905 47.6H126.885V50.14H129.905ZM139.913 52.32C138.913 52.32 138.013 52.0867 137.213 51.62C136.426 51.1533 135.806 50.5133 135.353 49.7C134.913 48.8733 134.693 47.9467 134.693 46.92C134.693 45.9467 134.906 45.0467 135.333 44.22C135.773 43.38 136.379 42.7133 137.153 42.22C137.926 41.7267 138.806 41.48 139.793 41.48C140.819 41.48 141.706 41.7067 142.453 42.16C143.213 42.6133 143.786 43.2333 144.173 44.02C144.573 44.8067 144.773 45.6933 144.773 46.68C144.773 46.8667 144.753 47.1 144.713 47.38H136.893C136.973 48.3267 137.306 49.06 137.893 49.58C138.493 50.0867 139.186 50.34 139.973 50.34C140.599 50.34 141.139 50.2 141.593 49.92C142.059 49.6267 142.433 49.2333 142.713 48.74L144.573 49.62C144.093 50.46 143.466 51.12 142.693 51.6C141.919 52.08 140.993 52.32 139.913 52.32ZM142.533 45.7C142.506 45.34 142.393 44.9867 142.193 44.64C141.993 44.28 141.686 43.98 141.273 43.74C140.873 43.5 140.379 43.38 139.793 43.38C139.086 43.38 138.486 43.5933 137.993 44.02C137.513 44.4333 137.179 44.9933 136.993 45.7H142.533ZM147.145 52.16C146.705 52.16 146.352 52.1067 146.085 52L146.105 50.04C146.319 50.1067 146.539 50.14 146.765 50.14C147.059 50.14 147.285 50.0467 147.445 49.86C147.605 49.66 147.719 49.3333 147.785 48.88C147.852 48.4267 147.885 47.7867 147.885 46.96V41.8H156.645V52H154.505V43.8H150.005V47.58C150.005 50.6333 149.052 52.16 147.145 52.16ZM159.218 41.8H161.358V45.26H164.198C164.891 45.26 165.518 45.4 166.078 45.68C166.638 45.96 167.078 46.36 167.398 46.88C167.718 47.3867 167.878 47.9733 167.878 48.64C167.878 49.3067 167.718 49.8933 167.398 50.4C167.078 50.9067 166.638 51.3 166.078 51.58C165.518 51.86 164.891 52 164.198 52H159.218V41.8ZM164.118 50.14C164.584 50.14 164.971 50.0067 165.278 49.74C165.598 49.46 165.758 49.0933 165.758 48.64C165.758 48.1867 165.598 47.82 165.278 47.54C164.971 47.26 164.584 47.12 164.118 47.12H161.358V50.14H164.118ZM169.725 41.8H171.925V45.84H176.845V41.8H179.045V52H176.845V47.9H171.925V52H169.725V41.8ZM181.6 41.8H183.74V45.26H186.58C187.274 45.26 187.9 45.4 188.46 45.68C189.02 45.96 189.46 46.36 189.78 46.88C190.1 47.3867 190.26 47.9733 190.26 48.64C190.26 49.3067 190.1 49.8933 189.78 50.4C189.46 50.9067 189.02 51.3 188.46 51.58C187.9 51.86 187.274 52 186.58 52H181.6V41.8ZM191.66 41.8H193.8V52H191.66V41.8ZM186.5 50.14C186.967 50.14 187.354 50.0067 187.66 49.74C187.98 49.46 188.14 49.0933 188.14 48.64C188.14 48.1867 187.98 47.82 187.66 47.54C187.354 47.26 186.967 47.12 186.5 47.12H183.74V50.14H186.5ZM198.906 46.82L195.386 41.8H197.946L200.206 45.12H200.266L202.426 41.8H205.066L201.506 46.82L205.106 52H202.506L200.226 48.56H200.166L197.946 52H195.346L198.906 46.82ZM75.2717 71.8H77.8917L81.0717 77.94H81.1717L84.3117 71.8H86.9517V82H84.7917V77.14L84.9117 75.22H84.7917L81.8917 80.72H80.3517L77.4317 75.22H77.3117L77.4317 77.14V82H75.2717V71.8ZM92.5933 82.32C91.8599 82.32 91.2066 82.18 90.6333 81.9C90.0599 81.6067 89.6133 81.2 89.2933 80.68C88.9733 80.1467 88.8133 79.5467 88.8133 78.88C88.8133 77.8267 89.2066 76.9933 89.9933 76.38C90.7933 75.7667 91.7999 75.46 93.0133 75.46C93.6133 75.46 94.1533 75.52 94.6333 75.64C95.1133 75.7467 95.4933 75.8667 95.7733 76V75.48C95.7733 74.8533 95.5399 74.3467 95.0733 73.96C94.6066 73.56 94.0066 73.36 93.2733 73.36C92.7533 73.36 92.2599 73.4733 91.7933 73.7C91.3399 73.9267 90.9733 74.24 90.6933 74.64L89.1533 73.46C89.6066 72.8333 90.1933 72.3467 90.9133 72C91.6333 71.6533 92.4333 71.48 93.3133 71.48C94.7933 71.48 95.9333 71.8467 96.7333 72.58C97.5333 73.3 97.9333 74.32 97.9333 75.64V82H95.7733V80.78H95.6733C95.3799 81.22 94.9666 81.5867 94.4333 81.88C93.8999 82.1733 93.2866 82.32 92.5933 82.32ZM92.9733 80.5C93.5066 80.5 93.9866 80.3733 94.4133 80.12C94.8399 79.8667 95.1733 79.5267 95.4133 79.1C95.6533 78.6733 95.7733 78.2133 95.7733 77.72C95.4666 77.5467 95.1066 77.4067 94.6933 77.3C94.2933 77.1933 93.8733 77.14 93.4333 77.14C92.6066 77.14 91.9999 77.3067 91.6133 77.64C91.2266 77.96 91.0333 78.38 91.0333 78.9C91.0333 79.3667 91.2133 79.7533 91.5733 80.06C91.9333 80.3533 92.3999 80.5 92.9733 80.5ZM102.851 73.84H99.6108V71.8H108.311V73.84H105.051V82H102.851V73.84ZM114.62 82.32C113.62 82.32 112.72 82.0867 111.92 81.62C111.133 81.1533 110.513 80.5133 110.06 79.7C109.62 78.8733 109.4 77.9467 109.4 76.92C109.4 75.9467 109.613 75.0467 110.04 74.22C110.48 73.38 111.086 72.7133 111.86 72.22C112.633 71.7267 113.513 71.48 114.5 71.48C115.526 71.48 116.413 71.7067 117.16 72.16C117.92 72.6133 118.493 73.2333 118.88 74.02C119.28 74.8067 119.48 75.6933 119.48 76.68C119.48 76.8667 119.46 77.1 119.42 77.38H111.6C111.68 78.3267 112.013 79.06 112.6 79.58C113.2 80.0867 113.893 80.34 114.68 80.34C115.306 80.34 115.846 80.2 116.3 79.92C116.766 79.6267 117.14 79.2333 117.42 78.74L119.28 79.62C118.8 80.46 118.173 81.12 117.4 81.6C116.626 82.08 115.7 82.32 114.62 82.32ZM117.24 75.7C117.213 75.34 117.1 74.9867 116.9 74.64C116.7 74.28 116.393 73.98 115.98 73.74C115.58 73.5 115.086 73.38 114.5 73.38C113.793 73.38 113.193 73.5933 112.7 74.02C112.22 74.4333 111.886 74.9933 111.7 75.7H117.24ZM121.403 71.8H123.503V73.14H123.603C123.896 72.6733 124.33 72.28 124.903 71.96C125.476 71.64 126.123 71.48 126.843 71.48C127.763 71.48 128.596 71.7133 129.343 72.18C130.09 72.6467 130.676 73.2933 131.103 74.12C131.543 74.9333 131.763 75.86 131.763 76.9C131.763 77.94 131.543 78.8733 131.103 79.7C130.676 80.5133 130.09 81.1533 129.343 81.62C128.596 82.0867 127.763 82.32 126.843 82.32C126.123 82.32 125.476 82.16 124.903 81.84C124.33 81.52 123.896 81.1333 123.603 80.68H123.503L123.603 82.1V86.32H121.403V71.8ZM126.523 80.3C127.056 80.3 127.556 80.16 128.023 79.88C128.49 79.6 128.863 79.2 129.143 78.68C129.423 78.16 129.563 77.5667 129.563 76.9C129.563 76.2333 129.423 75.6467 129.143 75.14C128.863 74.62 128.49 74.22 128.023 73.94C127.556 73.66 127.056 73.52 126.523 73.52C125.99 73.52 125.49 73.66 125.023 73.94C124.57 74.22 124.203 74.62 123.923 75.14C123.643 75.6467 123.503 76.2333 123.503 76.9C123.503 77.5667 123.643 78.16 123.923 78.68C124.203 79.2 124.57 79.6 125.023 79.88C125.49 80.16 125.99 80.3 126.523 80.3ZM133.671 71.8H135.871V76.78L135.771 78.7H135.871L140.671 71.8H142.871V82H140.671V77.02L140.771 75.1H140.671L135.871 82H133.671V71.8ZM148.531 82.32C147.797 82.32 147.144 82.18 146.571 81.9C145.997 81.6067 145.551 81.2 145.231 80.68C144.911 80.1467 144.751 79.5467 144.751 78.88C144.751 77.8267 145.144 76.9933 145.931 76.38C146.731 75.7667 147.737 75.46 148.951 75.46C149.551 75.46 150.091 75.52 150.571 75.64C151.051 75.7467 151.431 75.8667 151.711 76V75.48C151.711 74.8533 151.477 74.3467 151.011 73.96C150.544 73.56 149.944 73.36 149.211 73.36C148.691 73.36 148.197 73.4733 147.731 73.7C147.277 73.9267 146.911 74.24 146.631 74.64L145.091 73.46C145.544 72.8333 146.131 72.3467 146.851 72C147.571 71.6533 148.371 71.48 149.251 71.48C150.731 71.48 151.871 71.8467 152.671 72.58C153.471 73.3 153.871 74.32 153.871 75.64V82H151.711V80.78H151.611C151.317 81.22 150.904 81.5867 150.371 81.88C149.837 82.1733 149.224 82.32 148.531 82.32ZM148.911 80.5C149.444 80.5 149.924 80.3733 150.351 80.12C150.777 79.8667 151.111 79.5267 151.351 79.1C151.591 78.6733 151.711 78.2133 151.711 77.72C151.404 77.5467 151.044 77.4067 150.631 77.3C150.231 77.1933 149.811 77.14 149.371 77.14C148.544 77.14 147.937 77.3067 147.551 77.64C147.164 77.96 146.971 78.38 146.971 78.9C146.971 79.3667 147.151 79.7533 147.511 80.06C147.871 80.3533 148.337 80.5 148.911 80.5ZM156.833 82.16C156.393 82.16 156.04 82.1067 155.773 82L155.793 80.04C156.006 80.1067 156.226 80.14 156.453 80.14C156.746 80.14 156.973 80.0467 157.133 79.86C157.293 79.66 157.406 79.3333 157.473 78.88C157.54 78.4267 157.573 77.7867 157.573 76.96V71.8H166.333V82H164.193V73.8H159.693V77.58C159.693 80.6333 158.74 82.16 156.833 82.16ZM173.587 82.32C172.561 82.32 171.641 82.0867 170.827 81.62C170.014 81.14 169.381 80.4867 168.927 79.66C168.474 78.8333 168.247 77.9133 168.247 76.9C168.247 75.8867 168.474 74.9667 168.927 74.14C169.381 73.3133 170.014 72.6667 170.827 72.2C171.641 71.72 172.561 71.48 173.587 71.48C174.614 71.48 175.534 71.72 176.347 72.2C177.161 72.68 177.794 73.3333 178.247 74.16C178.701 74.9867 178.927 75.9 178.927 76.9C178.927 77.9133 178.701 78.8333 178.247 79.66C177.794 80.4867 177.161 81.14 176.347 81.62C175.534 82.0867 174.614 82.32 173.587 82.32ZM173.587 80.3C174.147 80.3 174.667 80.1667 175.147 79.9C175.627 79.62 176.007 79.2267 176.287 78.72C176.581 78.2 176.727 77.5933 176.727 76.9C176.727 76.2067 176.581 75.6067 176.287 75.1C176.007 74.5933 175.627 74.2067 175.147 73.94C174.667 73.66 174.147 73.52 173.587 73.52C173.027 73.52 172.507 73.66 172.027 73.94C171.547 74.2067 171.161 74.5933 170.867 75.1C170.587 75.6067 170.447 76.2067 170.447 76.9C170.447 77.5933 170.587 78.2 170.867 78.72C171.161 79.2267 171.547 79.62 172.027 79.9C172.507 80.1667 173.027 80.3 173.587 80.3ZM180.76 71.8H185.86C186.447 71.8 186.98 71.92 187.46 72.16C187.94 72.3867 188.314 72.7067 188.58 73.12C188.86 73.52 189 73.9667 189 74.46C189 74.98 188.88 75.4333 188.64 75.82C188.414 76.2067 188.107 76.4933 187.72 76.68V76.8C188.227 77 188.627 77.3 188.92 77.7C189.214 78.1 189.36 78.56 189.36 79.08C189.36 79.6533 189.207 80.1667 188.9 80.62C188.607 81.06 188.214 81.4 187.72 81.64C187.227 81.88 186.7 82 186.14 82H180.76V71.8ZM185.62 75.94C185.967 75.94 186.254 75.8333 186.48 75.62C186.72 75.3933 186.84 75.1133 186.84 74.78C186.84 74.4467 186.72 74.1733 186.48 73.96C186.254 73.7333 185.967 73.62 185.62 73.62H182.9V75.94H185.62ZM185.92 80.14C186.294 80.14 186.607 80.02 186.86 79.78C187.114 79.54 187.24 79.24 187.24 78.88C187.24 78.52 187.114 78.22 186.86 77.98C186.607 77.7267 186.294 77.6 185.92 77.6H182.9V80.14H185.92Z" fill="black"/>
<path d="M338.203 117.32C336.817 117.32 335.557 116.993 334.423 116.34C333.29 115.673 332.397 114.767 331.743 113.62C331.103 112.473 330.783 111.213 330.783 109.84C330.783 108.467 331.103 107.213 331.743 106.08C332.397 104.933 333.29 104.027 334.423 103.36C335.557 102.693 336.817 102.36 338.203 102.36C339.59 102.36 340.843 102.693 341.963 103.36C343.097 104.027 343.99 104.933 344.643 106.08C345.297 107.213 345.623 108.467 345.623 109.84C345.623 111.213 345.297 112.473 344.643 113.62C344.003 114.767 343.117 115.673 341.983 116.34C340.85 116.993 339.59 117.32 338.203 117.32ZM338.203 115.18C339.15 115.18 340.017 114.953 340.803 114.5C341.59 114.047 342.21 113.42 342.663 112.62C343.117 111.807 343.343 110.88 343.343 109.84C343.343 108.8 343.117 107.88 342.663 107.08C342.21 106.267 341.59 105.633 340.803 105.18C340.017 104.727 339.15 104.5 338.203 104.5C337.257 104.5 336.39 104.727 335.603 105.18C334.817 105.633 334.19 106.267 333.723 107.08C333.27 107.88 333.043 108.8 333.043 109.84C333.043 110.88 333.27 111.807 333.723 112.62C334.19 113.42 334.817 114.047 335.603 114.5C336.39 114.953 337.257 115.18 338.203 115.18ZM350.343 108.84H347.103V106.8H355.803V108.84H352.543V117H350.343V108.84ZM362.335 106.8H364.535V111.3H364.655L368.455 106.8H371.135V106.92L367.015 111.64L371.335 116.88V117H368.675L364.655 112H364.535V117H362.335V106.8ZM373.837 117.16C373.397 117.16 373.044 117.107 372.777 117L372.797 115.04C373.01 115.107 373.23 115.14 373.457 115.14C373.75 115.14 373.977 115.047 374.137 114.86C374.297 114.66 374.41 114.333 374.477 113.88C374.544 113.427 374.577 112.787 374.577 111.96V106.8H383.337V117H381.197V108.8H376.697V112.58C376.697 115.633 375.744 117.16 373.837 117.16ZM389.011 117.32C388.278 117.32 387.625 117.18 387.051 116.9C386.478 116.607 386.031 116.2 385.711 115.68C385.391 115.147 385.231 114.547 385.231 113.88C385.231 112.827 385.625 111.993 386.411 111.38C387.211 110.767 388.218 110.46 389.431 110.46C390.031 110.46 390.571 110.52 391.051 110.64C391.531 110.747 391.911 110.867 392.191 111V110.48C392.191 109.853 391.958 109.347 391.491 108.96C391.025 108.56 390.425 108.36 389.691 108.36C389.171 108.36 388.678 108.473 388.211 108.7C387.758 108.927 387.391 109.24 387.111 109.64L385.571 108.46C386.025 107.833 386.611 107.347 387.331 107C388.051 106.653 388.851 106.48 389.731 106.48C391.211 106.48 392.351 106.847 393.151 107.58C393.951 108.3 394.351 109.32 394.351 110.64V117H392.191V115.78H392.091C391.798 116.22 391.385 116.587 390.851 116.88C390.318 117.173 389.705 117.32 389.011 117.32ZM389.391 115.5C389.925 115.5 390.405 115.373 390.831 115.12C391.258 114.867 391.591 114.527 391.831 114.1C392.071 113.673 392.191 113.213 392.191 112.72C391.885 112.547 391.525 112.407 391.111 112.3C390.711 112.193 390.291 112.14 389.851 112.14C389.025 112.14 388.418 112.307 388.031 112.64C387.645 112.96 387.451 113.38 387.451 113.9C387.451 114.367 387.631 114.753 387.991 115.06C388.351 115.353 388.818 115.5 389.391 115.5ZM396.129 115.04H397.249C397.542 114.653 397.782 114.027 397.969 113.16C398.169 112.293 398.269 111.4 398.269 110.48V106.8H406.649V115.04H408.209V120.04H406.169V117H398.169V120.04H396.129V115.04ZM404.509 115.04V108.78H400.409V110.66C400.409 111.447 400.329 112.227 400.169 113C400.022 113.76 399.809 114.44 399.529 115.04H404.509ZM410.147 106.8H412.347V111.3H412.467L416.267 106.8H418.947V106.92L414.827 111.64L419.147 116.88V117H416.487L412.467 112H412.347V117H410.147V106.8ZM420.499 106.8H422.699V111.78L422.599 113.7H422.699L427.499 106.8H429.699V117H427.499V112.02L427.599 110.1H427.499L422.699 117H420.499V106.8ZM441.664 117.32C440.651 117.32 439.737 117.087 438.924 116.62C438.124 116.153 437.497 115.513 437.044 114.7C436.604 113.873 436.384 112.94 436.384 111.9C436.384 110.86 436.604 109.933 437.044 109.12C437.497 108.293 438.124 107.647 438.924 107.18C439.737 106.713 440.651 106.48 441.664 106.48C442.784 106.48 443.737 106.733 444.524 107.24C445.311 107.747 445.871 108.433 446.204 109.3L444.184 110.14C443.731 109.06 442.871 108.52 441.604 108.52C441.057 108.52 440.551 108.66 440.084 108.94C439.631 109.22 439.264 109.62 438.984 110.14C438.717 110.647 438.584 111.233 438.584 111.9C438.584 112.567 438.717 113.16 438.984 113.68C439.264 114.2 439.631 114.6 440.084 114.88C440.551 115.16 441.057 115.3 441.604 115.3C442.244 115.3 442.791 115.16 443.244 114.88C443.711 114.587 444.064 114.173 444.304 113.64L446.284 114.5C445.897 115.367 445.311 116.053 444.524 116.56C443.737 117.067 442.784 117.32 441.664 117.32ZM450.675 108.84H447.435V106.8H456.135V108.84H452.875V117H450.675V108.84ZM462.444 117.32C461.444 117.32 460.544 117.087 459.744 116.62C458.957 116.153 458.337 115.513 457.884 114.7C457.444 113.873 457.224 112.947 457.224 111.92C457.224 110.947 457.437 110.047 457.864 109.22C458.304 108.38 458.911 107.713 459.684 107.22C460.457 106.727 461.337 106.48 462.324 106.48C463.351 106.48 464.237 106.707 464.984 107.16C465.744 107.613 466.317 108.233 466.704 109.02C467.104 109.807 467.304 110.693 467.304 111.68C467.304 111.867 467.284 112.1 467.244 112.38H459.424C459.504 113.327 459.837 114.06 460.424 114.58C461.024 115.087 461.717 115.34 462.504 115.34C463.131 115.34 463.671 115.2 464.124 114.92C464.591 114.627 464.964 114.233 465.244 113.74L467.104 114.62C466.624 115.46 465.997 116.12 465.224 116.6C464.451 117.08 463.524 117.32 462.444 117.32ZM465.064 110.7C465.037 110.34 464.924 109.987 464.724 109.64C464.524 109.28 464.217 108.98 463.804 108.74C463.404 108.5 462.911 108.38 462.324 108.38C461.617 108.38 461.017 108.593 460.524 109.02C460.044 109.433 459.711 109.993 459.524 110.7H465.064ZM469.307 106.8H471.507V110.84H476.427V106.8H478.627V117H476.427V112.9H471.507V117H469.307V106.8ZM485.25 115.04H486.37C486.663 114.653 486.903 114.027 487.09 113.16C487.29 112.293 487.39 111.4 487.39 110.48V106.8H495.77V115.04H497.33V120.04H495.29V117H487.29V120.04H485.25V115.04ZM493.63 115.04V108.78H489.53V110.66C489.53 111.447 489.45 112.227 489.29 113C489.143 113.76 488.93 114.44 488.65 115.04H493.63ZM504.048 117.32C503.022 117.32 502.102 117.087 501.288 116.62C500.475 116.14 499.842 115.487 499.388 114.66C498.935 113.833 498.708 112.913 498.708 111.9C498.708 110.887 498.935 109.967 499.388 109.14C499.842 108.313 500.475 107.667 501.288 107.2C502.102 106.72 503.022 106.48 504.048 106.48C505.075 106.48 505.995 106.72 506.808 107.2C507.622 107.68 508.255 108.333 508.708 109.16C509.162 109.987 509.388 110.9 509.388 111.9C509.388 112.913 509.162 113.833 508.708 114.66C508.255 115.487 507.622 116.14 506.808 116.62C505.995 117.087 505.075 117.32 504.048 117.32ZM504.048 115.3C504.608 115.3 505.128 115.167 505.608 114.9C506.088 114.62 506.468 114.227 506.748 113.72C507.042 113.2 507.188 112.593 507.188 111.9C507.188 111.207 507.042 110.607 506.748 110.1C506.468 109.593 506.088 109.207 505.608 108.94C505.128 108.66 504.608 108.52 504.048 108.52C503.488 108.52 502.968 108.66 502.488 108.94C502.008 109.207 501.622 109.593 501.328 110.1C501.048 110.607 500.908 111.207 500.908 111.9C500.908 112.593 501.048 113.2 501.328 113.72C501.622 114.227 502.008 114.62 502.488 114.9C502.968 115.167 503.488 115.3 504.048 115.3ZM321.661 136.8H326.761C327.348 136.8 327.881 136.92 328.361 137.16C328.841 137.387 329.214 137.707 329.481 138.12C329.761 138.52 329.901 138.967 329.901 139.46C329.901 139.98 329.781 140.433 329.541 140.82C329.314 141.207 329.008 141.493 328.621 141.68V141.8C329.128 142 329.528 142.3 329.821 142.7C330.114 143.1 330.261 143.56 330.261 144.08C330.261 144.653 330.108 145.167 329.801 145.62C329.508 146.06 329.114 146.4 328.621 146.64C328.128 146.88 327.601 147 327.041 147H321.661V136.8ZM326.521 140.94C326.868 140.94 327.154 140.833 327.381 140.62C327.621 140.393 327.741 140.113 327.741 139.78C327.741 139.447 327.621 139.173 327.381 138.96C327.154 138.733 326.868 138.62 326.521 138.62H323.801V140.94H326.521ZM326.821 145.14C327.194 145.14 327.508 145.02 327.761 144.78C328.014 144.54 328.141 144.24 328.141 143.88C328.141 143.52 328.014 143.22 327.761 142.98C327.508 142.727 327.194 142.6 326.821 142.6H323.801V145.14H326.821ZM332.169 136.8H334.369V140.84H339.289V136.8H341.489V147H339.289V142.9H334.369V147H332.169V136.8ZM347.164 146.44L342.924 136.8H345.384L348.264 143.74H348.344L351.144 136.8H353.564L347.264 151.32H344.944L347.164 146.44ZM357.521 138.84H354.281V136.8H362.981V138.84H359.721V147H357.521V138.84ZM364.745 136.8H366.845V138.14H366.945C367.238 137.673 367.672 137.28 368.245 136.96C368.818 136.64 369.465 136.48 370.185 136.48C371.105 136.48 371.938 136.713 372.685 137.18C373.432 137.647 374.018 138.293 374.445 139.12C374.885 139.933 375.105 140.86 375.105 141.9C375.105 142.94 374.885 143.873 374.445 144.7C374.018 145.513 373.432 146.153 372.685 146.62C371.938 147.087 371.105 147.32 370.185 147.32C369.465 147.32 368.818 147.16 368.245 146.84C367.672 146.52 367.238 146.133 366.945 145.68H366.845L366.945 147.1V151.32H364.745V136.8ZM369.865 145.3C370.398 145.3 370.898 145.16 371.365 144.88C371.832 144.6 372.205 144.2 372.485 143.68C372.765 143.16 372.905 142.567 372.905 141.9C372.905 141.233 372.765 140.647 372.485 140.14C372.205 139.62 371.832 139.22 371.365 138.94C370.898 138.66 370.398 138.52 369.865 138.52C369.332 138.52 368.832 138.66 368.365 138.94C367.912 139.22 367.545 139.62 367.265 140.14C366.985 140.647 366.845 141.233 366.845 141.9C366.845 142.567 366.985 143.16 367.265 143.68C367.545 144.2 367.912 144.6 368.365 144.88C368.832 145.16 369.332 145.3 369.865 145.3ZM381.77 147.32C380.77 147.32 379.87 147.087 379.07 146.62C378.283 146.153 377.663 145.513 377.21 144.7C376.77 143.873 376.55 142.947 376.55 141.92C376.55 140.947 376.763 140.047 377.19 139.22C377.63 138.38 378.237 137.713 379.01 137.22C379.783 136.727 380.663 136.48 381.65 136.48C382.677 136.48 383.563 136.707 384.31 137.16C385.07 137.613 385.643 138.233 386.03 139.02C386.43 139.807 386.63 140.693 386.63 141.68C386.63 141.867 386.61 142.1 386.57 142.38H378.75C378.83 143.327 379.163 144.06 379.75 144.58C380.35 145.087 381.043 145.34 381.83 145.34C382.457 145.34 382.997 145.2 383.45 144.92C383.917 144.627 384.29 144.233 384.57 143.74L386.43 144.62C385.95 145.46 385.323 146.12 384.55 146.6C383.777 147.08 382.85 147.32 381.77 147.32ZM384.39 140.7C384.363 140.34 384.25 139.987 384.05 139.64C383.85 139.28 383.543 138.98 383.13 138.74C382.73 138.5 382.237 138.38 381.65 138.38C380.943 138.38 380.343 138.593 379.85 139.02C379.37 139.433 379.037 139.993 378.85 140.7H384.39ZM388.634 136.8H390.834V140.84H395.754V136.8H397.954V147H395.754V142.9H390.834V147H388.634V136.8ZM400.509 136.8H402.709V140.84H407.629V136.8H409.829V147H407.629V142.9H402.709V147H400.509V136.8ZM416.946 147.32C415.946 147.32 415.046 147.087 414.246 146.62C413.459 146.153 412.839 145.513 412.386 144.7C411.946 143.873 411.726 142.947 411.726 141.92C411.726 140.947 411.939 140.047 412.366 139.22C412.806 138.38 413.413 137.713 414.186 137.22C414.959 136.727 415.839 136.48 416.826 136.48C417.853 136.48 418.739 136.707 419.486 137.16C420.246 137.613 420.819 138.233 421.206 139.02C421.606 139.807 421.806 140.693 421.806 141.68C421.806 141.867 421.786 142.1 421.746 142.38H413.926C414.006 143.327 414.339 144.06 414.926 144.58C415.526 145.087 416.219 145.34 417.006 145.34C417.633 145.34 418.173 145.2 418.626 144.92C419.093 144.627 419.466 144.233 419.746 143.74L421.606 144.62C421.126 145.46 420.499 146.12 419.726 146.6C418.953 147.08 418.026 147.32 416.946 147.32ZM419.566 140.7C419.539 140.34 419.426 139.987 419.226 139.64C419.026 139.28 418.719 138.98 418.306 138.74C417.906 138.5 417.413 138.38 416.826 138.38C416.119 138.38 415.519 138.593 415.026 139.02C414.546 139.433 414.213 139.993 414.026 140.7H419.566ZM423.809 136.8H426.009V141.78L425.909 143.7H426.009L430.809 136.8H433.009V147H430.809V142.02L430.909 140.1H430.809L426.009 147H423.809V136.8ZM428.429 134.94C427.976 134.94 427.543 134.827 427.129 134.6C426.716 134.373 426.383 134.06 426.129 133.66C425.889 133.26 425.769 132.82 425.769 132.34H427.429C427.429 132.62 427.516 132.867 427.689 133.08C427.876 133.28 428.123 133.38 428.429 133.38C428.723 133.38 428.956 133.28 429.129 133.08C429.316 132.867 429.409 132.62 429.409 132.34H431.029C431.029 132.833 430.909 133.28 430.669 133.68C430.429 134.067 430.109 134.373 429.709 134.6C429.309 134.827 428.883 134.94 428.429 134.94ZM445.035 147.32C444.008 147.32 443.088 147.087 442.275 146.62C441.461 146.14 440.828 145.487 440.375 144.66C439.921 143.833 439.695 142.913 439.695 141.9C439.695 140.887 439.921 139.967 440.375 139.14C440.828 138.313 441.461 137.667 442.275 137.2C443.088 136.72 444.008 136.48 445.035 136.48C446.061 136.48 446.981 136.72 447.795 137.2C448.608 137.68 449.241 138.333 449.695 139.16C450.148 139.987 450.375 140.9 450.375 141.9C450.375 142.913 450.148 143.833 449.695 144.66C449.241 145.487 448.608 146.14 447.795 146.62C446.981 147.087 446.061 147.32 445.035 147.32ZM445.035 145.3C445.595 145.3 446.115 145.167 446.595 144.9C447.075 144.62 447.455 144.227 447.735 143.72C448.028 143.2 448.175 142.593 448.175 141.9C448.175 141.207 448.028 140.607 447.735 140.1C447.455 139.593 447.075 139.207 446.595 138.94C446.115 138.66 445.595 138.52 445.035 138.52C444.475 138.52 443.955 138.66 443.475 138.94C442.995 139.207 442.608 139.593 442.315 140.1C442.035 140.607 441.895 141.207 441.895 141.9C441.895 142.593 442.035 143.2 442.315 143.72C442.608 144.227 442.995 144.62 443.475 144.9C443.955 145.167 444.475 145.3 445.035 145.3ZM454.728 138.84H451.488V136.8H460.188V138.84H456.928V147H454.728V138.84ZM460.806 145.04H461.926C462.22 144.653 462.46 144.027 462.646 143.16C462.846 142.293 462.946 141.4 462.946 140.48V136.8H471.326V145.04H472.886V150.04H470.846V147H462.846V150.04H460.806V145.04ZM469.186 145.04V138.78H465.086V140.66C465.086 141.447 465.006 142.227 464.846 143C464.7 143.76 464.486 144.44 464.206 145.04H469.186ZM479.485 147.32C478.485 147.32 477.585 147.087 476.785 146.62C475.998 146.153 475.378 145.513 474.925 144.7C474.485 143.873 474.265 142.947 474.265 141.92C474.265 140.947 474.478 140.047 474.905 139.22C475.345 138.38 475.952 137.713 476.725 137.22C477.498 136.727 478.378 136.48 479.365 136.48C480.392 136.48 481.278 136.707 482.025 137.16C482.785 137.613 483.358 138.233 483.745 139.02C484.145 139.807 484.345 140.693 484.345 141.68C484.345 141.867 484.325 142.1 484.285 142.38H476.465C476.545 143.327 476.878 144.06 477.465 144.58C478.065 145.087 478.758 145.34 479.545 145.34C480.172 145.34 480.712 145.2 481.165 144.92C481.632 144.627 482.005 144.233 482.285 143.74L484.145 144.62C483.665 145.46 483.038 146.12 482.265 146.6C481.492 147.08 480.565 147.32 479.485 147.32ZM482.105 140.7C482.078 140.34 481.965 139.987 481.765 139.64C481.565 139.28 481.258 138.98 480.845 138.74C480.445 138.5 479.952 138.38 479.365 138.38C478.658 138.38 478.058 138.593 477.565 139.02C477.085 139.433 476.752 139.993 476.565 140.7H482.105ZM486.718 147.16C486.278 147.16 485.924 147.107 485.658 147L485.678 145.04C485.891 145.107 486.111 145.14 486.338 145.14C486.631 145.14 486.858 145.047 487.018 144.86C487.178 144.66 487.291 144.333 487.358 143.88C487.424 143.427 487.458 142.787 487.458 141.96V136.8H496.218V147H494.078V138.8H489.578V142.58C489.578 145.633 488.624 147.16 486.718 147.16ZM498.79 136.8H500.99V141.3H501.11L504.91 136.8H507.59V136.92L503.47 141.64L507.79 146.88V147H505.13L501.11 142H500.99V147H498.79V136.8ZM509.141 136.8H511.341V141.78L511.241 143.7H511.341L516.141 136.8H518.341V147H516.141V142.02L516.241 140.1H516.141L511.341 147H509.141V136.8Z" fill="black"/>
<path d="M612.103 22.32C610.716 22.32 609.45 21.9933 608.303 21.34C607.156 20.6867 606.256 19.7867 605.603 18.64C604.95 17.4933 604.623 16.2267 604.623 14.84C604.623 13.4533 604.95 12.1867 605.603 11.04C606.256 9.89333 607.156 8.99333 608.303 8.34C609.45 7.68667 610.716 7.36 612.103 7.36C613.183 7.36 614.163 7.56 615.043 7.96C615.936 8.36 616.723 8.94 617.403 9.7L615.803 11.24C615.31 10.6533 614.763 10.22 614.163 9.94C613.563 9.64667 612.876 9.5 612.103 9.5C611.143 9.5 610.263 9.72 609.463 10.16C608.676 10.6 608.05 11.2267 607.583 12.04C607.116 12.84 606.883 13.7733 606.883 14.84C606.883 15.9067 607.116 16.8467 607.583 17.66C608.05 18.46 608.676 19.08 609.463 19.52C610.263 19.96 611.143 20.18 612.103 20.18C613.703 20.18 615.063 19.5133 616.183 18.18L617.803 19.74C617.11 20.5533 616.276 21.1867 615.303 21.64C614.33 22.0933 613.263 22.32 612.103 22.32ZM619.749 11.8H621.949V16.78L621.849 18.7H621.949L626.749 11.8H628.949V22H626.749V17.02L626.849 15.1H626.749L621.949 22H619.749V11.8ZM636.129 22.32C635.116 22.32 634.202 22.0867 633.389 21.62C632.589 21.1533 631.962 20.5133 631.509 19.7C631.069 18.8733 630.849 17.94 630.849 16.9C630.849 15.86 631.069 14.9333 631.509 14.12C631.962 13.2933 632.589 12.6467 633.389 12.18C634.202 11.7133 635.116 11.48 636.129 11.48C637.249 11.48 638.202 11.7333 638.989 12.24C639.776 12.7467 640.336 13.4333 640.669 14.3L638.649 15.14C638.196 14.06 637.336 13.52 636.069 13.52C635.522 13.52 635.016 13.66 634.549 13.94C634.096 14.22 633.729 14.62 633.449 15.14C633.182 15.6467 633.049 16.2333 633.049 16.9C633.049 17.5667 633.182 18.16 633.449 18.68C633.729 19.2 634.096 19.6 634.549 19.88C635.016 20.16 635.522 20.3 636.069 20.3C636.709 20.3 637.256 20.16 637.709 19.88C638.176 19.5867 638.529 19.1733 638.769 18.64L640.749 19.5C640.362 20.3667 639.776 21.0533 638.989 21.56C638.202 22.0667 637.249 22.32 636.129 22.32ZM645.14 13.84H641.9V11.8H650.6V13.84H647.34V22H645.14V13.84ZM656.909 22.32C655.909 22.32 655.009 22.0867 654.209 21.62C653.422 21.1533 652.802 20.5133 652.349 19.7C651.909 18.8733 651.689 17.9467 651.689 16.92C651.689 15.9467 651.902 15.0467 652.329 14.22C652.769 13.38 653.375 12.7133 654.149 12.22C654.922 11.7267 655.802 11.48 656.789 11.48C657.815 11.48 658.702 11.7067 659.449 12.16C660.209 12.6133 660.782 13.2333 661.169 14.02C661.569 14.8067 661.769 15.6933 661.769 16.68C661.769 16.8667 661.749 17.1 661.709 17.38H653.889C653.969 18.3267 654.302 19.06 654.889 19.58C655.489 20.0867 656.182 20.34 656.969 20.34C657.595 20.34 658.135 20.2 658.589 19.92C659.055 19.6267 659.429 19.2333 659.709 18.74L661.569 19.62C661.089 20.46 660.462 21.12 659.689 21.6C658.915 22.08 657.989 22.32 656.909 22.32ZM659.529 15.7C659.502 15.34 659.389 14.9867 659.189 14.64C658.989 14.28 658.682 13.98 658.269 13.74C657.869 13.5 657.375 13.38 656.789 13.38C656.082 13.38 655.482 13.5933 654.989 14.02C654.509 14.4333 654.175 14.9933 653.989 15.7H659.529ZM663.752 11.8H666.372L669.552 17.94H669.652L672.792 11.8H675.432V22H673.272V17.14L673.392 15.22H673.272L670.372 20.72H668.832L665.912 15.22H665.792L665.912 17.14V22H663.752V11.8ZM682.659 11.8H687.759C688.346 11.8 688.879 11.92 689.359 12.16C689.839 12.3867 690.212 12.7067 690.479 13.12C690.759 13.52 690.899 13.9667 690.899 14.46C690.899 14.98 690.779 15.4333 690.539 15.82C690.312 16.2067 690.006 16.4933 689.619 16.68V16.8C690.126 17 690.526 17.3 690.819 17.7C691.112 18.1 691.259 18.56 691.259 19.08C691.259 19.6533 691.106 20.1667 690.799 20.62C690.506 21.06 690.112 21.4 689.619 21.64C689.126 21.88 688.599 22 688.039 22H682.659V11.8ZM687.519 15.94C687.866 15.94 688.152 15.8333 688.379 15.62C688.619 15.3933 688.739 15.1133 688.739 14.78C688.739 14.4467 688.619 14.1733 688.379 13.96C688.152 13.7333 687.866 13.62 687.519 13.62H684.799V15.94H687.519ZM687.819 20.14C688.192 20.14 688.506 20.02 688.759 19.78C689.012 19.54 689.139 19.24 689.139 18.88C689.139 18.52 689.012 18.22 688.759 17.98C688.506 17.7267 688.192 17.6 687.819 17.6H684.799V20.14H687.819ZM697.827 22.32C696.827 22.32 695.927 22.0867 695.127 21.62C694.34 21.1533 693.72 20.5133 693.267 19.7C692.827 18.8733 692.607 17.9467 692.607 16.92C692.607 15.9467 692.82 15.0467 693.247 14.22C693.687 13.38 694.293 12.7133 695.067 12.22C695.84 11.7267 696.72 11.48 697.707 11.48C698.733 11.48 699.62 11.7067 700.367 12.16C701.127 12.6133 701.7 13.2333 702.087 14.02C702.487 14.8067 702.687 15.6933 702.687 16.68C702.687 16.8667 702.667 17.1 702.627 17.38H694.807C694.887 18.3267 695.22 19.06 695.807 19.58C696.407 20.0867 697.1 20.34 697.887 20.34C698.513 20.34 699.053 20.2 699.507 19.92C699.973 19.6267 700.347 19.2333 700.627 18.74L702.487 19.62C702.007 20.46 701.38 21.12 700.607 21.6C699.833 22.08 698.907 22.32 697.827 22.32ZM700.447 15.7C700.42 15.34 700.307 14.9867 700.107 14.64C699.907 14.28 699.6 13.98 699.187 13.74C698.787 13.5 698.293 13.38 697.707 13.38C697 13.38 696.4 13.5933 695.907 14.02C695.427 14.4333 695.093 14.9933 694.907 15.7H700.447ZM704.69 11.8H706.89V15.84H711.81V11.8H714.01V22H711.81V17.9H706.89V22H704.69V11.8ZM719.085 13.84H715.845V11.8H724.545V13.84H721.285V22H719.085V13.84ZM726.389 11.8H728.589V16.78L728.489 18.7H728.589L733.389 11.8H735.589V22H733.389V17.02L733.489 15.1H733.389L728.589 22H726.389V11.8ZM738.712 22.16C738.272 22.16 737.919 22.1067 737.652 22L737.672 20.04C737.885 20.1067 738.105 20.14 738.332 20.14C738.625 20.14 738.852 20.0467 739.012 19.86C739.172 19.66 739.285 19.3333 739.352 18.88C739.419 18.4267 739.452 17.7867 739.452 16.96V11.8H748.212V22H746.072V13.8H741.572V17.58C741.572 20.6333 740.619 22.16 738.712 22.16ZM749.584 21.86L752.344 18.32L752.304 18.24C751.624 18.0267 751.077 17.64 750.664 17.08C750.251 16.52 750.044 15.88 750.044 15.16C750.044 14.5333 750.204 13.9667 750.524 13.46C750.844 12.94 751.277 12.5333 751.824 12.24C752.384 11.9467 752.991 11.8 753.644 11.8H758.564V22H756.424V18.48H754.624L752.004 22H749.584V21.86ZM756.424 16.68V13.66H753.804C753.351 13.66 752.971 13.8067 752.664 14.1C752.371 14.38 752.224 14.74 752.224 15.18C752.224 15.62 752.371 15.98 752.664 16.26C752.971 16.54 753.351 16.68 753.804 16.68H756.424ZM769.656 22H761.116V11.8H763.316V20H767.956V11.8H770.156V20H771.676V25.04H769.656V22ZM773.616 11.8H775.816V16.78L775.716 18.7H775.816L780.616 11.8H782.816V22H780.616V17.02L780.716 15.1H780.616L775.816 22H773.616V11.8ZM785.374 11.8H787.574V16.78L787.474 18.7H787.574L792.374 11.8H794.574V22H792.374V17.02L792.474 15.1H792.374L787.574 22H785.374V11.8ZM801.819 11.8H804.019V16.78L803.919 18.7H804.019L808.819 11.8H811.019V22H808.819V17.02L808.919 15.1H808.819L804.019 22H801.819V11.8ZM603.997 41.8H613.037V52H610.837V43.84H606.197V52H603.997V41.8ZM620.281 52.32C619.254 52.32 618.334 52.0867 617.521 51.62C616.707 51.14 616.074 50.4867 615.621 49.66C615.167 48.8333 614.941 47.9133 614.941 46.9C614.941 45.8867 615.167 44.9667 615.621 44.14C616.074 43.3133 616.707 42.6667 617.521 42.2C618.334 41.72 619.254 41.48 620.281 41.48C621.307 41.48 622.227 41.72 623.041 42.2C623.854 42.68 624.487 43.3333 624.941 44.16C625.394 44.9867 625.621 45.9 625.621 46.9C625.621 47.9133 625.394 48.8333 624.941 49.66C624.487 50.4867 623.854 51.14 623.041 51.62C622.227 52.0867 621.307 52.32 620.281 52.32ZM620.281 50.3C620.841 50.3 621.361 50.1667 621.841 49.9C622.321 49.62 622.701 49.2267 622.981 48.72C623.274 48.2 623.421 47.5933 623.421 46.9C623.421 46.2067 623.274 45.6067 622.981 45.1C622.701 44.5933 622.321 44.2067 621.841 43.94C621.361 43.66 620.841 43.52 620.281 43.52C619.721 43.52 619.201 43.66 618.721 43.94C618.241 44.2067 617.854 44.5933 617.561 45.1C617.281 45.6067 617.141 46.2067 617.141 46.9C617.141 47.5933 617.281 48.2 617.561 48.72C617.854 49.2267 618.241 49.62 618.721 49.9C619.201 50.1667 619.721 50.3 620.281 50.3ZM626.449 51.88L630.649 46.62L626.669 41.92V41.8H629.289L632.889 46.2H633.009V41.8H635.209V46.2H635.329L638.949 41.8H641.569V41.92L637.549 46.62L641.769 51.88V52H639.129L635.329 47.1H635.209V52H633.009V47.1H632.889L629.089 52H626.449V51.88ZM646.142 52.32C645.409 52.32 644.755 52.18 644.182 51.9C643.609 51.6067 643.162 51.2 642.842 50.68C642.522 50.1467 642.362 49.5467 642.362 48.88C642.362 47.8267 642.755 46.9933 643.542 46.38C644.342 45.7667 645.349 45.46 646.562 45.46C647.162 45.46 647.702 45.52 648.182 45.64C648.662 45.7467 649.042 45.8667 649.322 46V45.48C649.322 44.8533 649.089 44.3467 648.622 43.96C648.155 43.56 647.555 43.36 646.822 43.36C646.302 43.36 645.809 43.4733 645.342 43.7C644.889 43.9267 644.522 44.24 644.242 44.64L642.702 43.46C643.155 42.8333 643.742 42.3467 644.462 42C645.182 41.6533 645.982 41.48 646.862 41.48C648.342 41.48 649.482 41.8467 650.282 42.58C651.082 43.3 651.482 44.32 651.482 45.64V52H649.322V50.78H649.222C648.929 51.22 648.515 51.5867 647.982 51.88C647.449 52.1733 646.835 52.32 646.142 52.32ZM646.522 50.5C647.055 50.5 647.535 50.3733 647.962 50.12C648.389 49.8667 648.722 49.5267 648.962 49.1C649.202 48.6733 649.322 48.2133 649.322 47.72C649.015 47.5467 648.655 47.4067 648.242 47.3C647.842 47.1933 647.422 47.14 646.982 47.14C646.155 47.14 645.549 47.3067 645.162 47.64C644.775 47.96 644.582 48.38 644.582 48.9C644.582 49.3667 644.762 49.7533 645.122 50.06C645.482 50.3533 645.949 50.5 646.522 50.5ZM653.8 41.8H655.9V43.14H656C656.293 42.6733 656.726 42.28 657.3 41.96C657.873 41.64 658.52 41.48 659.24 41.48C660.16 41.48 660.993 41.7133 661.74 42.18C662.486 42.6467 663.073 43.2933 663.5 44.12C663.94 44.9333 664.16 45.86 664.16 46.9C664.16 47.94 663.94 48.8733 663.5 49.7C663.073 50.5133 662.486 51.1533 661.74 51.62C660.993 52.0867 660.16 52.32 659.24 52.32C658.52 52.32 657.873 52.16 657.3 51.84C656.726 51.52 656.293 51.1333 656 50.68H655.9L656 52.1V56.32H653.8V41.8ZM658.92 50.3C659.453 50.3 659.953 50.16 660.42 49.88C660.886 49.6 661.26 49.2 661.54 48.68C661.82 48.16 661.96 47.5667 661.96 46.9C661.96 46.2333 661.82 45.6467 661.54 45.14C661.26 44.62 660.886 44.22 660.42 43.94C659.953 43.66 659.453 43.52 658.92 43.52C658.386 43.52 657.886 43.66 657.42 43.94C656.966 44.22 656.6 44.62 656.32 45.14C656.04 45.6467 655.9 46.2333 655.9 46.9C655.9 47.5667 656.04 48.16 656.32 48.68C656.6 49.2 656.966 49.6 657.42 49.88C657.886 50.16 658.386 50.3 658.92 50.3ZM670.945 52.32C669.918 52.32 668.998 52.0867 668.185 51.62C667.371 51.14 666.738 50.4867 666.285 49.66C665.831 48.8333 665.605 47.9133 665.605 46.9C665.605 45.8867 665.831 44.9667 666.285 44.14C666.738 43.3133 667.371 42.6667 668.185 42.2C668.998 41.72 669.918 41.48 670.945 41.48C671.971 41.48 672.891 41.72 673.705 42.2C674.518 42.68 675.151 43.3333 675.605 44.16C676.058 44.9867 676.285 45.9 676.285 46.9C676.285 47.9133 676.058 48.8333 675.605 49.66C675.151 50.4867 674.518 51.14 673.705 51.62C672.891 52.0867 671.971 52.32 670.945 52.32ZM670.945 50.3C671.505 50.3 672.025 50.1667 672.505 49.9C672.985 49.62 673.365 49.2267 673.645 48.72C673.938 48.2 674.085 47.5933 674.085 46.9C674.085 46.2067 673.938 45.6067 673.645 45.1C673.365 44.5933 672.985 44.2067 672.505 43.94C672.025 43.66 671.505 43.52 670.945 43.52C670.385 43.52 669.865 43.66 669.385 43.94C668.905 44.2067 668.518 44.5933 668.225 45.1C667.945 45.6067 667.805 46.2067 667.805 46.9C667.805 47.5933 667.945 48.2 668.225 48.72C668.518 49.2267 668.905 49.62 669.385 49.9C669.865 50.1667 670.385 50.3 670.945 50.3ZM683.513 52.32C682.487 52.32 681.567 52.0867 680.753 51.62C679.953 51.14 679.32 50.4 678.853 49.4C678.387 48.4 678.153 47.14 678.153 45.62C678.153 44.02 678.333 42.7267 678.693 41.74C679.053 40.7533 679.553 39.9667 680.193 39.38C680.673 38.94 681.253 38.6 681.933 38.36C682.613 38.1067 683.347 37.98 684.133 37.98C684.627 37.98 685 37.96 685.253 37.92C685.507 37.8667 685.687 37.8 685.793 37.72C685.9 37.6267 685.98 37.5 686.033 37.34H688.073C687.913 38.3 687.54 38.96 686.953 39.32C686.367 39.68 685.48 39.86 684.293 39.86C683.64 39.86 683.107 39.94 682.693 40.1C682.293 40.2467 681.94 40.4533 681.633 40.72C680.9 41.3867 680.473 42.2333 680.353 43.26H680.473C680.82 42.7533 681.293 42.3333 681.893 42C682.507 41.6533 683.233 41.48 684.073 41.48C684.967 41.48 685.78 41.7267 686.513 42.22C687.247 42.7 687.82 43.36 688.233 44.2C688.647 45.0267 688.853 45.9267 688.853 46.9C688.853 47.9133 688.627 48.8333 688.173 49.66C687.72 50.4867 687.087 51.14 686.273 51.62C685.46 52.0867 684.54 52.32 683.513 52.32ZM683.513 50.3C684.073 50.3 684.593 50.1667 685.073 49.9C685.553 49.62 685.933 49.2267 686.213 48.72C686.507 48.2 686.653 47.5933 686.653 46.9C686.653 46.2067 686.507 45.6067 686.213 45.1C685.933 44.5933 685.553 44.2067 685.073 43.94C684.593 43.66 684.073 43.52 683.513 43.52C682.953 43.52 682.433 43.66 681.953 43.94C681.487 44.2067 681.107 44.5933 680.813 45.1C680.533 45.6067 680.393 46.2067 680.393 46.9C680.393 47.5933 680.533 48.2 680.813 48.72C681.107 49.2267 681.487 49.62 681.953 49.9C682.433 50.1667 682.953 50.3 683.513 50.3ZM695.356 52.32C694.356 52.32 693.456 52.0867 692.656 51.62C691.869 51.1533 691.249 50.5133 690.796 49.7C690.356 48.8733 690.136 47.9467 690.136 46.92C690.136 45.9467 690.349 45.0467 690.776 44.22C691.216 43.38 691.823 42.7133 692.596 42.22C693.369 41.7267 694.249 41.48 695.236 41.48C696.263 41.48 697.149 41.7067 697.896 42.16C698.656 42.6133 699.229 43.2333 699.616 44.02C700.016 44.8067 700.216 45.6933 700.216 46.68C700.216 46.8667 700.196 47.1 700.156 47.38H692.336C692.416 48.3267 692.749 49.06 693.336 49.58C693.936 50.0867 694.629 50.34 695.416 50.34C696.043 50.34 696.583 50.2 697.036 49.92C697.503 49.6267 697.876 49.2333 698.156 48.74L700.016 49.62C699.536 50.46 698.909 51.12 698.136 51.6C697.363 52.08 696.436 52.32 695.356 52.32ZM697.976 45.7C697.949 45.34 697.836 44.9867 697.636 44.64C697.436 44.28 697.129 43.98 696.716 43.74C696.316 43.5 695.823 43.38 695.236 43.38C694.529 43.38 693.929 43.5933 693.436 44.02C692.956 44.4333 692.623 44.9933 692.436 45.7H697.976ZM705.884 52.32C705.044 52.32 704.271 52.16 703.564 51.84C702.857 51.52 702.237 51.0667 701.704 50.48L703.124 49.08C703.964 49.96 704.884 50.4 705.884 50.4C706.524 50.4 707.037 50.2733 707.424 50.02C707.811 49.7667 708.004 49.4333 708.004 49.02C708.004 48.6333 707.837 48.3133 707.504 48.06C707.184 47.7933 706.744 47.66 706.184 47.66H704.584V45.98H706.084C706.551 45.98 706.937 45.8667 707.244 45.64C707.564 45.4 707.724 45.0667 707.724 44.64C707.724 44.2933 707.557 43.9933 707.224 43.74C706.904 43.4867 706.471 43.36 705.924 43.36C705.431 43.36 704.991 43.44 704.604 43.6C704.217 43.76 703.851 44.02 703.504 44.38L702.124 43.06C702.644 42.5133 703.204 42.1133 703.804 41.86C704.404 41.6067 705.111 41.48 705.924 41.48C706.657 41.48 707.317 41.6133 707.904 41.88C708.504 42.1467 708.971 42.5067 709.304 42.96C709.637 43.4133 709.804 43.9133 709.804 44.46C709.804 45.5 709.371 46.24 708.504 46.68V46.8C709.037 47.0267 709.451 47.3467 709.744 47.76C710.037 48.1733 710.184 48.64 710.184 49.16C710.184 50.1333 709.797 50.9067 709.024 51.48C708.251 52.04 707.204 52.32 705.884 52.32ZM717.117 52.32C716.09 52.32 715.17 52.0867 714.357 51.62C713.543 51.14 712.91 50.4867 712.457 49.66C712.003 48.8333 711.777 47.9133 711.777 46.9C711.777 45.8867 712.003 44.9667 712.457 44.14C712.91 43.3133 713.543 42.6667 714.357 42.2C715.17 41.72 716.09 41.48 717.117 41.48C718.143 41.48 719.063 41.72 719.877 42.2C720.69 42.68 721.323 43.3333 721.777 44.16C722.23 44.9867 722.457 45.9 722.457 46.9C722.457 47.9133 722.23 48.8333 721.777 49.66C721.323 50.4867 720.69 51.14 719.877 51.62C719.063 52.0867 718.143 52.32 717.117 52.32ZM717.117 50.3C717.677 50.3 718.197 50.1667 718.677 49.9C719.157 49.62 719.537 49.2267 719.817 48.72C720.11 48.2 720.257 47.5933 720.257 46.9C720.257 46.2067 720.11 45.6067 719.817 45.1C719.537 44.5933 719.157 44.2067 718.677 43.94C718.197 43.66 717.677 43.52 717.117 43.52C716.557 43.52 716.037 43.66 715.557 43.94C715.077 44.2067 714.69 44.5933 714.397 45.1C714.117 45.6067 713.977 46.2067 713.977 46.9C713.977 47.5933 714.117 48.2 714.397 48.72C714.69 49.2267 715.077 49.62 715.557 49.9C716.037 50.1667 716.557 50.3 717.117 50.3ZM724.29 41.8H733.33V52H731.13V43.84H726.49V52H724.29V41.8ZM738.994 52.32C738.26 52.32 737.607 52.18 737.034 51.9C736.46 51.6067 736.014 51.2 735.694 50.68C735.374 50.1467 735.214 49.5467 735.214 48.88C735.214 47.8267 735.607 46.9933 736.394 46.38C737.194 45.7667 738.2 45.46 739.414 45.46C740.014 45.46 740.554 45.52 741.034 45.64C741.514 45.7467 741.894 45.8667 742.174 46V45.48C742.174 44.8533 741.94 44.3467 741.474 43.96C741.007 43.56 740.407 43.36 739.674 43.36C739.154 43.36 738.66 43.4733 738.194 43.7C737.74 43.9267 737.374 44.24 737.094 44.64L735.554 43.46C736.007 42.8333 736.594 42.3467 737.314 42C738.034 41.6533 738.834 41.48 739.714 41.48C741.194 41.48 742.334 41.8467 743.134 42.58C743.934 43.3 744.334 44.32 744.334 45.64V52H742.174V50.78H742.074C741.78 51.22 741.367 51.5867 740.834 51.88C740.3 52.1733 739.687 52.32 738.994 52.32ZM739.374 50.5C739.907 50.5 740.387 50.3733 740.814 50.12C741.24 49.8667 741.574 49.5267 741.814 49.1C742.054 48.6733 742.174 48.2133 742.174 47.72C741.867 47.5467 741.507 47.4067 741.094 47.3C740.694 47.1933 740.274 47.14 739.834 47.14C739.007 47.14 738.4 47.3067 738.014 47.64C737.627 47.96 737.434 48.38 737.434 48.9C737.434 49.3667 737.614 49.7533 737.974 50.06C738.334 50.3533 738.8 50.5 739.374 50.5ZM751.354 52.32C750.34 52.32 749.427 52.0867 748.614 51.62C747.814 51.1533 747.187 50.5133 746.734 49.7C746.294 48.8733 746.074 47.94 746.074 46.9C746.074 45.86 746.294 44.9333 746.734 44.12C747.187 43.2933 747.814 42.6467 748.614 42.18C749.427 41.7133 750.34 41.48 751.354 41.48C752.474 41.48 753.427 41.7333 754.214 42.24C755 42.7467 755.56 43.4333 755.894 44.3L753.874 45.14C753.42 44.06 752.56 43.52 751.294 43.52C750.747 43.52 750.24 43.66 749.774 43.94C749.32 44.22 748.954 44.62 748.674 45.14C748.407 45.6467 748.274 46.2333 748.274 46.9C748.274 47.5667 748.407 48.16 748.674 48.68C748.954 49.2 749.32 49.6 749.774 49.88C750.24 50.16 750.747 50.3 751.294 50.3C751.934 50.3 752.48 50.16 752.934 49.88C753.4 49.5867 753.754 49.1733 753.994 48.64L755.974 49.5C755.587 50.3667 755 51.0533 754.214 51.56C753.427 52.0667 752.474 52.32 751.354 52.32ZM757.844 41.8H760.044V45.84H764.964V41.8H767.164V52H764.964V47.9H760.044V52H757.844V41.8ZM774.402 52.32C773.375 52.32 772.455 52.0867 771.642 51.62C770.828 51.14 770.195 50.4867 769.742 49.66C769.288 48.8333 769.062 47.9133 769.062 46.9C769.062 45.8867 769.288 44.9667 769.742 44.14C770.195 43.3133 770.828 42.6667 771.642 42.2C772.455 41.72 773.375 41.48 774.402 41.48C775.428 41.48 776.348 41.72 777.162 42.2C777.975 42.68 778.608 43.3333 779.062 44.16C779.515 44.9867 779.742 45.9 779.742 46.9C779.742 47.9133 779.515 48.8333 779.062 49.66C778.608 50.4867 777.975 51.14 777.162 51.62C776.348 52.0867 775.428 52.32 774.402 52.32ZM774.402 50.3C774.962 50.3 775.482 50.1667 775.962 49.9C776.442 49.62 776.822 49.2267 777.102 48.72C777.395 48.2 777.542 47.5933 777.542 46.9C777.542 46.2067 777.395 45.6067 777.102 45.1C776.822 44.5933 776.442 44.2067 775.962 43.94C775.482 43.66 774.962 43.52 774.402 43.52C773.842 43.52 773.322 43.66 772.842 43.94C772.362 44.2067 771.975 44.5933 771.682 45.1C771.402 45.6067 771.262 46.2067 771.262 46.9C771.262 47.5933 771.402 48.2 771.682 48.72C771.975 49.2267 772.362 49.62 772.842 49.9C773.322 50.1667 773.842 50.3 774.402 50.3ZM786.49 52.32C785.477 52.32 784.564 52.0867 783.75 51.62C782.95 51.1533 782.324 50.5133 781.87 49.7C781.43 48.8733 781.21 47.94 781.21 46.9C781.21 45.86 781.43 44.9333 781.87 44.12C782.324 43.2933 782.95 42.6467 783.75 42.18C784.564 41.7133 785.477 41.48 786.49 41.48C787.61 41.48 788.564 41.7333 789.35 42.24C790.137 42.7467 790.697 43.4333 791.03 44.3L789.01 45.14C788.557 44.06 787.697 43.52 786.43 43.52C785.884 43.52 785.377 43.66 784.91 43.94C784.457 44.22 784.09 44.62 783.81 45.14C783.544 45.6467 783.41 46.2333 783.41 46.9C783.41 47.5667 783.544 48.16 783.81 48.68C784.09 49.2 784.457 49.6 784.91 49.88C785.377 50.16 785.884 50.3 786.43 50.3C787.07 50.3 787.617 50.16 788.07 49.88C788.537 49.5867 788.89 49.1733 789.13 48.64L791.11 49.5C790.724 50.3667 790.137 51.0533 789.35 51.56C788.564 52.0667 787.61 52.32 786.49 52.32ZM795.501 43.84H792.261V41.8H800.961V43.84H797.701V52H795.501V43.84ZM802.805 41.8H805.005V46.78L804.905 48.7H805.005L809.805 41.8H812.005V52H809.805V47.02L809.905 45.1H809.805L805.005 52H802.805V41.8Z" fill="black"/>
<path d="M885.513 132.32C884.127 132.32 882.86 131.993 881.713 131.34C880.567 130.687 879.667 129.787 879.013 128.64C878.36 127.493 878.033 126.227 878.033 124.84C878.033 123.453 878.36 122.187 879.013 121.04C879.667 119.893 880.567 118.993 881.713 118.34C882.86 117.687 884.127 117.36 885.513 117.36C886.593 117.36 887.573 117.56 888.453 117.96C889.347 118.36 890.133 118.94 890.813 119.7L889.213 121.24C888.72 120.653 888.173 120.22 887.573 119.94C886.973 119.647 886.287 119.5 885.513 119.5C884.553 119.5 883.673 119.72 882.873 120.16C882.087 120.6 881.46 121.227 880.993 122.04C880.527 122.84 880.293 123.773 880.293 124.84C880.293 125.907 880.527 126.847 880.993 127.66C881.46 128.46 882.087 129.08 882.873 129.52C883.673 129.96 884.553 130.18 885.513 130.18C887.113 130.18 888.473 129.513 889.593 128.18L891.213 129.74C890.52 130.553 889.687 131.187 888.713 131.64C887.74 132.093 886.673 132.32 885.513 132.32ZM896.164 132.32C895.43 132.32 894.777 132.18 894.204 131.9C893.63 131.607 893.184 131.2 892.864 130.68C892.544 130.147 892.384 129.547 892.384 128.88C892.384 127.827 892.777 126.993 893.564 126.38C894.364 125.767 895.37 125.46 896.584 125.46C897.184 125.46 897.724 125.52 898.204 125.64C898.684 125.747 899.064 125.867 899.344 126V125.48C899.344 124.853 899.11 124.347 898.644 123.96C898.177 123.56 897.577 123.36 896.844 123.36C896.324 123.36 895.83 123.473 895.364 123.7C894.91 123.927 894.544 124.24 894.264 124.64L892.724 123.46C893.177 122.833 893.764 122.347 894.484 122C895.204 121.653 896.004 121.48 896.884 121.48C898.364 121.48 899.504 121.847 900.304 122.58C901.104 123.3 901.504 124.32 901.504 125.64V132H899.344V130.78H899.244C898.95 131.22 898.537 131.587 898.004 131.88C897.47 132.173 896.857 132.32 896.164 132.32ZM896.544 130.5C897.077 130.5 897.557 130.373 897.984 130.12C898.41 129.867 898.744 129.527 898.984 129.1C899.224 128.673 899.344 128.213 899.344 127.72C899.037 127.547 898.677 127.407 898.264 127.3C897.864 127.193 897.444 127.14 897.004 127.14C896.177 127.14 895.57 127.307 895.184 127.64C894.797 127.96 894.604 128.38 894.604 128.9C894.604 129.367 894.784 129.753 895.144 130.06C895.504 130.353 895.97 130.5 896.544 130.5ZM903.901 121.8H906.101V125.84H911.021V121.8H913.221V132H911.021V127.9H906.101V132H903.901V121.8ZM918.296 123.84H915.056V121.8H923.756V123.84H920.496V132H918.296V123.84ZM930.065 132.32C929.065 132.32 928.165 132.087 927.365 131.62C926.578 131.153 925.958 130.513 925.505 129.7C925.065 128.873 924.845 127.947 924.845 126.92C924.845 125.947 925.058 125.047 925.485 124.22C925.925 123.38 926.532 122.713 927.305 122.22C928.078 121.727 928.958 121.48 929.945 121.48C930.972 121.48 931.858 121.707 932.605 122.16C933.365 122.613 933.938 123.233 934.325 124.02C934.725 124.807 934.925 125.693 934.925 126.68C934.925 126.867 934.905 127.1 934.865 127.38H927.045C927.125 128.327 927.458 129.06 928.045 129.58C928.645 130.087 929.338 130.34 930.125 130.34C930.752 130.34 931.292 130.2 931.745 129.92C932.212 129.627 932.585 129.233 932.865 128.74L934.725 129.62C934.245 130.46 933.618 131.12 932.845 131.6C932.072 132.08 931.145 132.32 930.065 132.32ZM932.685 125.7C932.658 125.34 932.545 124.987 932.345 124.64C932.145 124.28 931.838 123.98 931.425 123.74C931.025 123.5 930.532 123.38 929.945 123.38C929.238 123.38 928.638 123.593 928.145 124.02C927.665 124.433 927.332 124.993 927.145 125.7H932.685ZM939.273 126.82L935.753 121.8H938.313L940.573 125.12H940.633L942.793 121.8H945.433L941.873 126.82L945.473 132H942.873L940.593 128.56H940.533L938.313 132H935.713L939.273 126.82ZM947.007 121.8H949.207V125.84H954.127V121.8H956.327V132H954.127V127.9H949.207V132H947.007V121.8ZM958.882 121.8H961.082V126.78L960.982 128.7H961.082L965.882 121.8H968.082V132H965.882V127.02L965.982 125.1H965.882L961.082 132H958.882V121.8ZM970.639 121.8H972.839V126.3H972.959L976.759 121.8H979.439V121.92L975.319 126.64L979.639 131.88V132H976.979L972.959 127H972.839V132H970.639V121.8ZM983.996 132.32C983.262 132.32 982.609 132.18 982.036 131.9C981.462 131.607 981.016 131.2 980.696 130.68C980.376 130.147 980.216 129.547 980.216 128.88C980.216 127.827 980.609 126.993 981.396 126.38C982.196 125.767 983.202 125.46 984.416 125.46C985.016 125.46 985.556 125.52 986.036 125.64C986.516 125.747 986.896 125.867 987.176 126V125.48C987.176 124.853 986.942 124.347 986.476 123.96C986.009 123.56 985.409 123.36 984.676 123.36C984.156 123.36 983.662 123.473 983.196 123.7C982.742 123.927 982.376 124.24 982.096 124.64L980.556 123.46C981.009 122.833 981.596 122.347 982.316 122C983.036 121.653 983.836 121.48 984.716 121.48C986.196 121.48 987.336 121.847 988.136 122.58C988.936 123.3 989.336 124.32 989.336 125.64V132H987.176V130.78H987.076C986.782 131.22 986.369 131.587 985.836 131.88C985.302 132.173 984.689 132.32 983.996 132.32ZM984.376 130.5C984.909 130.5 985.389 130.373 985.816 130.12C986.242 129.867 986.576 129.527 986.816 129.1C987.056 128.673 987.176 128.213 987.176 127.72C986.869 127.547 986.509 127.407 986.096 127.3C985.696 127.193 985.276 127.14 984.836 127.14C984.009 127.14 983.402 127.307 983.016 127.64C982.629 127.96 982.436 128.38 982.436 128.9C982.436 129.367 982.616 129.753 982.976 130.06C983.336 130.353 983.802 130.5 984.376 130.5ZM991.493 133.72L992.633 131.98C992.353 131.9 992.106 131.733 991.893 131.48C991.693 131.227 991.593 130.927 991.593 130.58C991.593 130.153 991.74 129.793 992.033 129.5C992.34 129.207 992.706 129.06 993.133 129.06C993.56 129.06 993.92 129.207 994.213 129.5C994.52 129.793 994.673 130.153 994.673 130.58C994.673 130.82 994.626 131.047 994.533 131.26C994.44 131.473 994.3 131.72 994.113 132L992.513 134.38L991.493 133.72ZM1006.53 132.32C1005.51 132.32 1004.59 132.087 1003.77 131.62C1002.96 131.14 1002.33 130.487 1001.87 129.66C1001.42 128.833 1001.19 127.913 1001.19 126.9C1001.19 125.887 1001.42 124.967 1001.87 124.14C1002.33 123.313 1002.96 122.667 1003.77 122.2C1004.59 121.72 1005.51 121.48 1006.53 121.48C1007.56 121.48 1008.48 121.72 1009.29 122.2C1010.11 122.68 1010.74 123.333 1011.19 124.16C1011.65 124.987 1011.87 125.9 1011.87 126.9C1011.87 127.913 1011.65 128.833 1011.19 129.66C1010.74 130.487 1010.11 131.14 1009.29 131.62C1008.48 132.087 1007.56 132.32 1006.53 132.32ZM1006.53 130.3C1007.09 130.3 1007.61 130.167 1008.09 129.9C1008.57 129.62 1008.95 129.227 1009.23 128.72C1009.53 128.2 1009.67 127.593 1009.67 126.9C1009.67 126.207 1009.53 125.607 1009.23 125.1C1008.95 124.593 1008.57 124.207 1008.09 123.94C1007.61 123.66 1007.09 123.52 1006.53 123.52C1005.97 123.52 1005.45 123.66 1004.97 123.94C1004.49 124.207 1004.11 124.593 1003.81 125.1C1003.53 125.607 1003.39 126.207 1003.39 126.9C1003.39 127.593 1003.53 128.2 1003.81 128.72C1004.11 129.227 1004.49 129.62 1004.97 129.9C1005.45 130.167 1005.97 130.3 1006.53 130.3ZM1013.71 121.8H1015.91V126.3H1016.03L1019.83 121.8H1022.51V121.92L1018.39 126.64L1022.71 131.88V132H1020.05L1016.03 127H1015.91V132H1013.71V121.8ZM1024.06 121.8H1026.26V125.84H1031.18V121.8H1033.38V132H1031.18V127.9H1026.26V132H1024.06V121.8ZM1039.03 132.32C1038.3 132.32 1037.65 132.18 1037.07 131.9C1036.5 131.607 1036.05 131.2 1035.73 130.68C1035.41 130.147 1035.25 129.547 1035.25 128.88C1035.25 127.827 1035.65 126.993 1036.43 126.38C1037.23 125.767 1038.24 125.46 1039.45 125.46C1040.05 125.46 1040.59 125.52 1041.07 125.64C1041.55 125.747 1041.93 125.867 1042.21 126V125.48C1042.21 124.853 1041.98 124.347 1041.51 123.96C1041.05 123.56 1040.45 123.36 1039.71 123.36C1039.19 123.36 1038.7 123.473 1038.23 123.7C1037.78 123.927 1037.41 124.24 1037.13 124.64L1035.59 123.46C1036.05 122.833 1036.63 122.347 1037.35 122C1038.07 121.653 1038.87 121.48 1039.75 121.48C1041.23 121.48 1042.37 121.847 1043.17 122.58C1043.97 123.3 1044.37 124.32 1044.37 125.64V132H1042.21V130.78H1042.11C1041.82 131.22 1041.41 131.587 1040.87 131.88C1040.34 132.173 1039.73 132.32 1039.03 132.32ZM1039.41 130.5C1039.95 130.5 1040.43 130.373 1040.85 130.12C1041.28 129.867 1041.61 129.527 1041.85 129.1C1042.09 128.673 1042.21 128.213 1042.21 127.72C1041.91 127.547 1041.55 127.407 1041.13 127.3C1040.73 127.193 1040.31 127.14 1039.87 127.14C1039.05 127.14 1038.44 127.307 1038.05 127.64C1037.67 127.96 1037.47 128.38 1037.47 128.9C1037.47 129.367 1037.65 129.753 1038.01 130.06C1038.37 130.353 1038.84 130.5 1039.41 130.5ZM1046.53 133.72L1047.67 131.98C1047.39 131.9 1047.15 131.733 1046.93 131.48C1046.73 131.227 1046.63 130.927 1046.63 130.58C1046.63 130.153 1046.78 129.793 1047.07 129.5C1047.38 129.207 1047.75 129.06 1048.17 129.06C1048.6 129.06 1048.96 129.207 1049.25 129.5C1049.56 129.793 1049.71 130.153 1049.71 130.58C1049.71 130.82 1049.67 131.047 1049.57 131.26C1049.48 131.473 1049.34 131.72 1049.15 132L1047.55 134.38L1046.53 133.72ZM1056.17 130.04H1057.29C1057.59 129.653 1057.83 129.027 1058.01 128.16C1058.21 127.293 1058.31 126.4 1058.31 125.48V121.8H1066.69V130.04H1068.25V135.04H1066.21V132H1058.21V135.04H1056.17V130.04ZM1064.55 130.04V123.78H1060.45V125.66C1060.45 126.447 1060.37 127.227 1060.21 128C1060.07 128.76 1059.85 129.44 1059.57 130.04H1064.55ZM1070.19 121.8H1075.29C1075.88 121.8 1076.41 121.92 1076.89 122.16C1077.37 122.387 1077.74 122.707 1078.01 123.12C1078.29 123.52 1078.43 123.967 1078.43 124.46C1078.43 124.98 1078.31 125.433 1078.07 125.82C1077.84 126.207 1077.54 126.493 1077.15 126.68V126.8C1077.66 127 1078.06 127.3 1078.35 127.7C1078.64 128.1 1078.79 128.56 1078.79 129.08C1078.79 129.653 1078.64 130.167 1078.33 130.62C1078.04 131.06 1077.64 131.4 1077.15 131.64C1076.66 131.88 1076.13 132 1075.57 132H1070.19V121.8ZM1075.05 125.94C1075.4 125.94 1075.68 125.833 1075.91 125.62C1076.15 125.393 1076.27 125.113 1076.27 124.78C1076.27 124.447 1076.15 124.173 1075.91 123.96C1075.68 123.733 1075.4 123.62 1075.05 123.62H1072.33V125.94H1075.05ZM1075.35 130.14C1075.72 130.14 1076.04 130.02 1076.29 129.78C1076.54 129.54 1076.67 129.24 1076.67 128.88C1076.67 128.52 1076.54 128.22 1076.29 127.98C1076.04 127.727 1075.72 127.6 1075.35 127.6H1072.33V130.14H1075.35ZM1085.36 132.32C1084.36 132.32 1083.46 132.087 1082.66 131.62C1081.87 131.153 1081.25 130.513 1080.8 129.7C1080.36 128.873 1080.14 127.947 1080.14 126.92C1080.14 125.947 1080.35 125.047 1080.78 124.22C1081.22 123.38 1081.82 122.713 1082.6 122.22C1083.37 121.727 1084.25 121.48 1085.24 121.48C1086.26 121.48 1087.15 121.707 1087.9 122.16C1088.66 122.613 1089.23 123.233 1089.62 124.02C1090.02 124.807 1090.22 125.693 1090.22 126.68C1090.22 126.867 1090.2 127.1 1090.16 127.38H1082.34C1082.42 128.327 1082.75 129.06 1083.34 129.58C1083.94 130.087 1084.63 130.34 1085.42 130.34C1086.04 130.34 1086.58 130.2 1087.04 129.92C1087.5 129.627 1087.88 129.233 1088.16 128.74L1090.02 129.62C1089.54 130.46 1088.91 131.12 1088.14 131.6C1087.36 132.08 1086.44 132.32 1085.36 132.32ZM1087.98 125.7C1087.95 125.34 1087.84 124.987 1087.64 124.64C1087.44 124.28 1087.13 123.98 1086.72 123.74C1086.32 123.5 1085.82 123.38 1085.24 123.38C1084.53 123.38 1083.93 123.593 1083.44 124.02C1082.96 124.433 1082.62 124.993 1082.44 125.7H1087.98ZM1092.14 121.8H1094.24V123.14H1094.34C1094.63 122.673 1095.07 122.28 1095.64 121.96C1096.21 121.64 1096.86 121.48 1097.58 121.48C1098.5 121.48 1099.33 121.713 1100.08 122.18C1100.83 122.647 1101.41 123.293 1101.84 124.12C1102.28 124.933 1102.5 125.86 1102.5 126.9C1102.5 127.94 1102.28 128.873 1101.84 129.7C1101.41 130.513 1100.83 131.153 1100.08 131.62C1099.33 132.087 1098.5 132.32 1097.58 132.32C1096.86 132.32 1096.21 132.16 1095.64 131.84C1095.07 131.52 1094.63 131.133 1094.34 130.68H1094.24L1094.34 132.1V136.32H1092.14V121.8ZM1097.26 130.3C1097.79 130.3 1098.29 130.16 1098.76 129.88C1099.23 129.6 1099.6 129.2 1099.88 128.68C1100.16 128.16 1100.3 127.567 1100.3 126.9C1100.3 126.233 1100.16 125.647 1099.88 125.14C1099.6 124.62 1099.23 124.22 1098.76 123.94C1098.29 123.66 1097.79 123.52 1097.26 123.52C1096.73 123.52 1096.23 123.66 1095.76 123.94C1095.31 124.22 1094.94 124.62 1094.66 125.14C1094.38 125.647 1094.24 126.233 1094.24 126.9C1094.24 127.567 1094.38 128.16 1094.66 128.68C1094.94 129.2 1095.31 129.6 1095.76 129.88C1096.23 130.16 1096.73 130.3 1097.26 130.3ZM1104.41 121.8H1106.61V126.78L1106.51 128.7H1106.61L1111.41 121.8H1113.61V132H1111.41V127.02L1111.51 125.1H1111.41L1106.61 132H1104.41V121.8Z" fill="black"/>
<path d="M133 143.506C323.5 143.506 276.416 14.7981 419 13.0062C563.889 11.1853 567.611 145.321 712.5 143.5C855.084 141.708 829 13.0062 998.5 13.0062" stroke="#00417D" stroke-width="5" stroke-linecap="round" stroke-dasharray="10 10"/>
<circle cx="132.5" cy="142.5" r="12.5" fill="#00417D"/>
<circle cx="420.5" cy="12.5" r="12.5" fill="#00417D"/>
<circle cx="708.5" cy="142.5" r="12.5" fill="#00417D"/>
<circle cx="996.5" cy="12.5" r="12.5" fill="#00417D"/>
</svg>
