<svg width="21" height="20" viewBox="0 0 21 20" fill="none" xmlns="http://www.w3.org/2000/svg">
<path d="M4.5625 3.125C4.31386 3.125 4.0754 3.22377 3.89959 3.39959C3.72377 3.5754 3.625 3.81386 3.625 4.0625V9.0625C3.625 9.14538 3.65792 9.22487 3.71653 9.28347C3.77513 9.34208 3.85462 9.375 3.9375 9.375H9.5625C9.64538 9.375 9.72487 9.34208 9.78347 9.28347C9.84208 9.22487 9.875 9.14538 9.875 9.0625V3.4375C9.875 3.35462 9.84208 3.27513 9.78347 3.21653C9.72487 3.15792 9.64538 3.125 9.5625 3.125H4.5625ZM11.4375 3.125C11.3546 3.125 11.2751 3.15792 11.2165 3.21653C11.1579 3.27513 11.125 3.35462 11.125 3.4375V9.0625C11.125 9.14538 11.1579 9.22487 11.2165 9.28347C11.2751 9.34208 11.3546 9.375 11.4375 9.375H17.0625C17.1454 9.375 17.2249 9.34208 17.2835 9.28347C17.3421 9.22487 17.375 9.14538 17.375 9.0625V4.0625C17.375 3.81386 17.2762 3.5754 17.1004 3.39959C16.9246 3.22377 16.6861 3.125 16.4375 3.125H11.4375ZM16.6588 3.84125C16.6878 3.87032 16.7107 3.90483 16.7264 3.94279C16.7421 3.98076 16.7501 4.02143 16.75 4.0625V8.75H11.75L16.6588 3.84125ZM11.125 10.9375C11.125 10.8546 11.1579 10.7751 11.2165 10.7165C11.2751 10.6579 11.3546 10.625 11.4375 10.625H17.0625C17.1454 10.625 17.2249 10.6579 17.2835 10.7165C17.3421 10.7751 17.375 10.8546 17.375 10.9375V15.9375C17.375 16.1861 17.2762 16.4246 17.1004 16.6004C16.9246 16.7762 16.6861 16.875 16.4375 16.875H11.4375C11.3546 16.875 11.2751 16.8421 11.2165 16.7835C11.1579 16.7249 11.125 16.6454 11.125 16.5625V10.9375ZM11.75 16.25H16.4375C16.5204 16.25 16.5999 16.2171 16.6585 16.1585C16.7171 16.0999 16.75 16.0204 16.75 15.9375V11.25H11.75V16.25ZM3.9375 10.625C3.85462 10.625 3.77513 10.6579 3.71653 10.7165C3.65792 10.7751 3.625 10.8546 3.625 10.9375V15.9375C3.625 16.1861 3.72377 16.4246 3.89959 16.6004C4.0754 16.7762 4.31386 16.875 4.5625 16.875H9.5625C9.64538 16.875 9.72487 16.8421 9.78347 16.7835C9.84208 16.7249 9.875 16.6454 9.875 16.5625V10.9375C9.875 10.8546 9.84208 10.7751 9.78347 10.7165C9.72487 10.6579 9.64538 10.625 9.5625 10.625H3.9375ZM9.25 11.25V16.25H4.5625C4.52143 16.2501 4.48076 16.2421 4.44279 16.2264C4.40483 16.2107 4.37032 16.1878 4.34125 16.1588L9.25 11.25Z" fill="#00091B"/>
<path d="M4.25 0.625C3.83962 0.625 3.43326 0.705831 3.05411 0.862876C2.67497 1.01992 2.33047 1.25011 2.04029 1.54029C1.45424 2.12634 1.125 2.9212 1.125 3.75V16.25C1.125 17.0788 1.45424 17.8737 2.04029 18.4597C2.33047 18.7499 2.67497 18.9801 3.05411 19.1371C3.43326 19.2942 3.83962 19.375 4.25 19.375H16.75C17.5788 19.375 18.3737 19.0458 18.9597 18.4597C19.5458 17.8737 19.875 17.0788 19.875 16.25V3.75C19.875 3.33962 19.7942 2.93326 19.6371 2.55411C19.4801 2.17497 19.2499 1.83047 18.9597 1.54029C18.6695 1.25011 18.325 1.01992 17.9459 0.862876C17.5667 0.705831 17.1604 0.625 16.75 0.625H4.25ZM2.375 3.75C2.375 3.25272 2.57254 2.77581 2.92417 2.42417C3.27581 2.07254 3.75272 1.875 4.25 1.875H16.75C17.2473 1.875 17.7242 2.07254 18.0758 2.42417C18.4275 2.77581 18.625 3.25272 18.625 3.75V16.25C18.625 16.7473 18.4275 17.2242 18.0758 17.5758C17.7242 17.9275 17.2473 18.125 16.75 18.125H4.25C3.75272 18.125 3.27581 17.9275 2.92417 17.5758C2.57254 17.2242 2.375 16.7473 2.375 16.25V3.75Z" fill="#00091B"/>
</svg>
