<svg width="21" height="20" viewBox="0 0 21 20" fill="none" xmlns="http://www.w3.org/2000/svg">
<path d="M2.16669 18.333V16.6664C2.16669 16.6664 6.33335 14.9997 10.5 14.9997C14.6667 14.9997 18.8334 16.6664 18.8334 16.6664V18.333H2.16669ZM9.91669 7.58303C8.91669 4.33303 3.83335 5.08303 3.83335 5.08303C3.83335 5.08303 4.00002 11.583 8.75002 10.583C8.41669 8.16637 7.16669 7.4997 7.16669 7.4997C9.50002 7.4997 9.66669 10.333 9.66669 10.333V14.1664H11.3334V10.6664C11.3334 10.6664 11.3334 7.41637 13.8334 6.58303C13.8334 6.58303 12.1667 9.08303 12.1667 10.7497C18 11.333 18 3.33303 18 3.33303C18 3.33303 10.5834 2.4997 9.91669 7.58303Z" fill="#00091B"/>
</svg>
