<svg width="20" height="20" viewBox="0 0 20 20" fill="none" xmlns="http://www.w3.org/2000/svg">
<path d="M10 9.16699C9.77901 9.16699 9.56705 9.25479 9.41077 9.41107C9.25449 9.56735 9.16669 9.77931 9.16669 10.0003C9.16669 10.2213 9.25449 10.4333 9.41077 10.5896C9.56705 10.7459 9.77901 10.8337 10 10.8337C10.221 10.8337 10.433 10.7459 10.5893 10.5896C10.7456 10.4333 10.8334 10.2213 10.8334 10.0003C10.8334 9.77931 10.7456 9.56735 10.5893 9.41107C10.433 9.25479 10.221 9.16699 10 9.16699ZM10.4167 1.66699C14.1667 1.66699 14.2584 4.64199 12.2917 5.62533C11.4667 6.03366 11.1 6.90866 10.9417 7.68366C11.3417 7.85033 11.6917 8.10866 11.9584 8.44199C15.0417 6.77533 18.3584 7.43366 18.3584 10.417C18.3584 14.167 15.3834 14.2503 14.4 12.2753C13.9834 11.4503 13.1 11.0837 12.325 10.9253C12.1584 11.3253 11.9 11.667 11.5667 11.9503C13.225 15.0253 12.5667 18.3337 9.58335 18.3337C5.83335 18.3337 5.75835 15.3503 7.72502 14.367C8.54169 13.9587 8.90835 13.092 9.07502 12.3253C8.66669 12.1587 8.30835 11.892 8.04169 11.5587C4.96669 13.2087 1.66669 12.5587 1.66669 9.58366C1.66669 5.83366 4.63335 5.74199 5.61669 7.71699C6.03335 8.54199 6.90835 8.90033 7.68335 9.05866C7.84169 8.65866 8.10835 8.30866 8.45002 8.04199C6.79169 4.96699 7.45002 1.66699 10.4167 1.66699Z" fill="#00091B"/>
</svg>
