<svg width="21" height="20" viewBox="0 0 21 20" fill="none" xmlns="http://www.w3.org/2000/svg">
<g clip-path="url(#clip0_133_1095)">
<path d="M6.33331 15.5C7.02776 15.5 7.61803 15.2569 8.10415 14.7708C8.59026 14.2847 8.83331 13.6944 8.83331 13V8C8.83331 7.76389 8.91331 7.56611 9.07331 7.40667C9.23331 7.24722 9.43109 7.16722 9.66665 7.16667C9.9022 7.16611 10.1003 7.24611 10.2608 7.40667C10.4214 7.56722 10.5011 7.765 10.5 8V13C10.5 13.6944 10.743 14.2847 11.2291 14.7708C11.7153 15.2569 12.3055 15.5 13 15.5C13.6944 15.5 14.2847 15.2569 14.7708 14.7708C15.2569 14.2847 15.5 13.6944 15.5 13V7.16667C15.5 6.93056 15.58 6.73278 15.74 6.57333C15.9 6.41389 16.0978 6.33389 16.3333 6.33333H17.3125L16.3333 7.29167L17.5 8.47917L20.5 5.5L17.5 2.5L16.3333 3.6875L17.3125 4.66667H16.3333C15.6389 4.66667 15.0486 4.90972 14.5625 5.39583C14.0764 5.88194 13.8333 6.47222 13.8333 7.16667V13C13.8333 13.2361 13.7533 13.4342 13.5933 13.5942C13.4333 13.7542 13.2355 13.8339 13 13.8333C12.7644 13.8328 12.5666 13.7528 12.4066 13.5933C12.2466 13.4339 12.1666 13.2361 12.1666 13V8C12.1666 7.30556 11.9236 6.71528 11.4375 6.22917C10.9514 5.74306 10.3611 5.5 9.66665 5.5C8.9722 5.5 8.38192 5.74306 7.89581 6.22917C7.4097 6.71528 7.16665 7.30556 7.16665 8V13C7.16665 13.2361 7.08665 13.4342 6.92665 13.5942C6.76665 13.7542 6.56887 13.8339 6.33331 13.8333C6.09776 13.8328 5.89998 13.7528 5.73998 13.5933C5.57998 13.4339 5.49998 13.2361 5.49998 13V5.5H3.83331V13C3.83331 13.6944 4.07637 14.2847 4.56248 14.7708C5.04859 15.2569 5.63887 15.5 6.33331 15.5ZM2.99998 18C2.54165 18 2.14942 17.8369 1.82331 17.5108C1.4972 17.1847 1.33387 16.7922 1.33331 16.3333V9.66667H19.6666V16.3333C19.6666 16.7917 19.5036 17.1842 19.1775 17.5108C18.8514 17.8375 18.4589 18.0006 18 18H2.99998Z" fill="#00091B"/>
</g>
<defs>
<clipPath id="clip0_133_1095">
<rect width="20" height="20" fill="white" transform="translate(0.5)"/>
</clipPath>
</defs>
</svg>
