<svg width="20" height="20" viewBox="0 0 20 20" fill="none" xmlns="http://www.w3.org/2000/svg">
<path d="M12.2167 11.817C12.2417 11.9087 12.25 12.0003 12.25 12.0837C12.275 12.6253 12.0334 13.2087 11.6417 13.567C11.4584 13.7253 11.1584 13.892 10.925 13.9587C10.1917 14.217 9.45835 13.8503 9.02502 13.4253C9.80835 13.242 10.2667 12.6753 10.4167 12.0837C10.5167 11.5753 10.3084 11.1503 10.225 10.6503C10.1417 10.167 10.1584 9.75866 10.3334 9.31699C10.4584 9.55866 10.5917 9.80866 10.75 10.0003C11.25 10.6503 12.0417 10.9337 12.2167 11.817ZM18.3334 10.0003C18.3334 14.5837 14.5834 18.3337 10 18.3337C5.41669 18.3337 1.66669 14.5837 1.66669 10.0003C1.66669 5.41699 5.41669 1.66699 10 1.66699C14.5834 1.66699 18.3334 5.41699 18.3334 10.0003ZM14.3 10.467L14.2167 10.3003C14.0834 10.0003 13.7084 9.48366 13.7084 9.48366C13.5584 9.29199 13.375 9.11699 13.2084 8.95033C12.7667 8.55866 12.275 8.28366 11.85 7.87533C10.875 6.92533 10.6584 5.36699 11.2834 4.16699C10.6584 4.31699 10.1167 4.65033 9.65002 5.02533C7.95835 6.37533 7.29169 8.75033 8.09169 10.792C8.11669 10.8587 8.14169 10.9253 8.14169 11.0087C8.14169 11.1503 8.04169 11.2753 7.91669 11.3337C7.75835 11.392 7.60835 11.3587 7.50002 11.2503C7.45346 11.2264 7.41557 11.1886 7.39169 11.142C6.66669 10.217 6.53335 8.88366 7.02502 7.82533C5.93335 8.70866 5.34169 10.2003 5.41669 11.6003C5.46669 11.9253 5.50002 12.2503 5.61669 12.5753C5.70835 12.967 5.88335 13.3337 6.08335 13.7003C6.78335 14.817 8.00835 15.6253 9.32502 15.7837C10.725 15.9587 12.225 15.7087 13.3 14.7503C14.5 13.667 14.9167 11.942 14.3 10.467Z" fill="#00091B"/>
</svg>
