<svg width="21" height="20" viewBox="0 0 21 20" fill="none" xmlns="http://www.w3.org/2000/svg">
<path d="M7.16667 16.6667H4.66667C4.22464 16.6667 3.80072 16.4911 3.48816 16.1785C3.17559 15.8659 3 15.442 3 15V5C3 4.55797 3.17559 4.13405 3.48816 3.82149C3.80072 3.50893 4.22464 3.33333 4.66667 3.33333H7.16667C7.60869 3.33333 8.03262 3.50893 8.34518 3.82149C8.65774 4.13405 8.83333 4.55797 8.83333 5V15C8.83333 15.442 8.65774 15.8659 8.34518 16.1785C8.03262 16.4911 7.60869 16.6667 7.16667 16.6667ZM13.8333 8.33333H17.1667C17.6087 8.33333 18.0326 8.15774 18.3452 7.84518C18.6577 7.53262 18.8333 7.10869 18.8333 6.66667V4.16667C18.8333 3.72464 18.6577 3.30072 18.3452 2.98816C18.0326 2.67559 17.6087 2.5 17.1667 2.5H13.8333C13.3913 2.5 12.9674 2.67559 12.6548 2.98816C12.3423 3.30072 12.1667 3.72464 12.1667 4.16667V6.66667C12.1667 7.10869 12.3423 7.53262 12.6548 7.84518C12.9674 8.15774 13.3913 8.33333 13.8333 8.33333ZM18 16.6667V11.6667C18 11.2246 17.8244 10.8007 17.5118 10.4882C17.1993 10.1756 16.7754 10 16.3333 10H12.1667C11.7246 10 11.3007 10.1756 10.9882 10.4882C10.6756 10.8007 10.5 11.2246 10.5 11.6667V16.6667C10.5 17.1087 10.6756 17.5326 10.9882 17.8452C11.3007 18.1577 11.7246 18.3333 12.1667 18.3333H16.3333C16.7754 18.3333 17.1993 18.1577 17.5118 17.8452C17.8244 17.5326 18 17.1087 18 16.6667Z" fill="#00091B"/>
</svg>
