<svg width="20" height="20" viewBox="0 0 20 20" fill="none" xmlns="http://www.w3.org/2000/svg">
<g clip-path="url(#clip0_133_1040)">
<path d="M19.7168 10.498C19.9056 10.9147 20 11.3477 20 11.7969V12.5C20 12.7474 19.9675 12.985 19.9024 13.2129C19.8373 13.4408 19.7396 13.6523 19.6094 13.8477C19.4792 14.043 19.3229 14.2188 19.1406 14.375C18.9584 14.5312 18.7565 14.6615 18.5352 14.7656C18.4375 14.9935 18.3106 15.1986 18.1543 15.3809C17.9981 15.5632 17.819 15.7161 17.6172 15.8398C17.4154 15.9635 17.2005 16.0645 16.9727 16.1426C16.7448 16.2207 16.5039 16.2565 16.25 16.25C15.8008 16.25 15.3841 16.1393 15 15.918C14.6159 15.6966 14.3099 15.3906 14.0821 15H7.16799C6.94012 15.3906 6.63413 15.6966 6.25002 15.918C5.86591 16.1393 5.44924 16.25 5.00002 16.25C4.5508 16.25 4.13414 16.1393 3.75002 15.918C3.36591 15.6966 3.05992 15.3906 2.83205 15H1.25002C1.07424 15 0.911479 14.9674 0.761739 14.9023C0.612 14.8372 0.481791 14.7493 0.371114 14.6387C0.260437 14.528 0.169291 14.3945 0.0976766 14.2383C0.026062 14.082 -0.00649007 13.9193 2.03451e-05 13.75V11.25C2.03451e-05 10.7357 0.0976766 10.2507 0.292989 9.79492C0.488302 9.33919 0.755229 8.94206 1.09377 8.60352C1.43231 8.26497 1.82945 7.99479 2.28518 7.79297C2.74091 7.59115 3.22919 7.49349 3.75002 7.5H4.11135L7.31447 4.29688C7.49025 4.12109 7.69208 3.98763 7.91994 3.89648C8.14781 3.80534 8.38869 3.75651 8.6426 3.75H17.5V5H17.2168L19.7168 10.498ZM5.00002 15C5.1758 15 5.33856 14.9674 5.4883 14.9023C5.63804 14.8372 5.76825 14.7493 5.87893 14.6387C5.9896 14.528 6.08075 14.3945 6.15236 14.2383C6.22398 14.082 6.25653 13.9193 6.25002 13.75C6.25002 13.5742 6.21747 13.4115 6.15236 13.2617C6.08726 13.112 5.99937 12.9818 5.88869 12.8711C5.77802 12.7604 5.64455 12.6693 5.4883 12.5977C5.33205 12.526 5.16929 12.4935 5.00002 12.5C4.82424 12.5 4.66148 12.5326 4.51174 12.5977C4.362 12.6628 4.23179 12.7507 4.12111 12.8613C4.01044 12.972 3.91929 13.1055 3.84768 13.2617C3.77606 13.418 3.74351 13.5807 3.75002 13.75C3.75002 13.9258 3.78257 14.0885 3.84768 14.2383C3.91278 14.388 4.00067 14.5182 4.11135 14.6289C4.22203 14.7396 4.35549 14.8307 4.51174 14.9023C4.66799 14.974 4.83075 15.0065 5.00002 15ZM11.25 5H8.6426C8.47333 5 8.32684 5.06185 8.20315 5.18555L5.88869 7.5H11.25V5ZM12.5 7.5H16.9824L16.0156 5.36133C15.9636 5.25065 15.8854 5.16276 15.7813 5.09766C15.6771 5.03255 15.5632 5 15.4395 5H12.5V7.5ZM16.25 15C16.4258 15 16.5886 14.9674 16.7383 14.9023C16.888 14.8372 17.0182 14.7493 17.1289 14.6387C17.2396 14.528 17.3307 14.3945 17.4024 14.2383C17.474 14.082 17.5065 13.9193 17.5 13.75C17.5 13.5742 17.4675 13.4115 17.4024 13.2617C17.3373 13.112 17.2494 12.9818 17.1387 12.8711C17.028 12.7604 16.8946 12.6693 16.7383 12.5977C16.5821 12.526 16.4193 12.4935 16.25 12.5C16.0742 12.5 15.9115 12.5326 15.7617 12.5977C15.612 12.6628 15.4818 12.7507 15.3711 12.8613C15.2604 12.972 15.1693 13.1055 15.0977 13.2617C15.0261 13.418 14.9935 13.5807 15 13.75C15 13.9258 15.0326 14.0885 15.0977 14.2383C15.1628 14.388 15.2507 14.5182 15.3613 14.6289C15.472 14.7396 15.6055 14.8307 15.7617 14.9023C15.918 14.974 16.0807 15.0065 16.25 15Z" fill="#00091B"/>
</g>
<defs>
<clipPath id="clip0_133_1040">
<rect width="20" height="20" fill="white"/>
</clipPath>
</defs>
</svg>
