<svg width="20" height="20" viewBox="0 0 20 20" fill="none" xmlns="http://www.w3.org/2000/svg">
<g clip-path="url(#clip0_133_1061)">
<mask id="mask0_133_1061" style="mask-type:luminance" maskUnits="userSpaceOnUse" x="0" y="0" width="20" height="20">
<path d="M0 0H20V20H0V0Z" fill="white"/>
</mask>
<g mask="url(#mask0_133_1061)">
<path d="M2.1875 8.77922H4.25875L3.54125 7.12922C3.28034 6.52873 2.79427 6.05455 2.1875 5.80859V8.77922ZM2.1875 11.8848H5.61437L5.58187 11.8223L4.80687 10.0398H2.1875V11.8848ZM2.1875 14.9898H5.9275V13.1436H2.1875V14.9898Z" fill="#00091B"/>
<path d="M6.7725 0.625242C6.06315 0.624539 5.37803 0.883291 4.84625 1.35274C4.42476 0.981713 3.90516 0.740175 3.3498 0.657107C2.79444 0.57404 2.22691 0.652971 1.7153 0.884431C1.20369 1.11589 0.76972 1.49005 0.465466 1.96201C0.161212 2.43398 -0.000406306 2.98371 7.67088e-07 3.54524V18.1252C7.67088e-07 18.4568 0.131697 18.7747 0.366117 19.0091C0.600538 19.2435 0.91848 19.3752 1.25 19.3752H2.1875C2.51902 19.3752 2.83696 19.2435 3.07138 19.0091C3.3058 18.7747 3.4375 18.4568 3.4375 18.1252V17.5002H4.6775V18.1252C4.6775 18.4568 4.8092 18.7747 5.04362 19.0091C5.27804 19.2435 5.59598 19.3752 5.9275 19.3752H6.865C7.19652 19.3752 7.51446 19.2435 7.74888 19.0091C7.9833 18.7747 8.115 18.4568 8.115 18.1252V14.4552L10.0869 18.6565C10.1878 18.8714 10.3478 19.0532 10.5483 19.1805C10.7487 19.3078 10.9813 19.3753 11.2188 19.3752H18.75C18.9597 19.3752 19.166 19.3224 19.3499 19.2217C19.5338 19.1211 19.6895 18.9757 19.8025 18.7991C19.9156 18.6225 19.9824 18.4204 19.9968 18.2112C20.0112 18.002 19.9728 17.7925 19.885 17.6021L17.0419 11.4377C16.7159 10.7338 16.1957 10.1375 15.5425 9.71903C14.8893 9.30053 14.1302 9.07718 13.3544 9.07524H13.2694L12.0488 6.26274C11.5873 5.19985 10.7486 4.34552 9.69438 3.86462V3.55212C9.69495 3.16801 9.6198 2.78756 9.47323 2.43253C9.32666 2.07749 9.11154 1.75482 8.84016 1.48299C8.56879 1.21116 8.2465 0.995481 7.89171 0.848302C7.53692 0.701122 7.1566 0.625324 6.7725 0.625242ZM6.7725 1.87524C6.99185 1.87508 7.20909 1.91816 7.41178 2.00203C7.61446 2.0859 7.79863 2.2089 7.95374 2.36401C8.10884 2.51911 8.23185 2.70328 8.31571 2.90597C8.39958 3.10865 8.44267 3.32589 8.4425 3.54524V4.75899C8.98251 4.87079 9.4877 5.11087 9.91542 5.45896C10.3431 5.80706 10.6808 6.25295 10.9 6.75899L12.4475 10.3215H13.3525C13.89 10.3214 14.4163 10.4754 14.869 10.7652C15.3217 11.055 15.6818 11.4684 15.9069 11.9565L18.75 18.1252H17.7175L15.125 12.5002L15.0556 12.3502C14.9056 12.0248 14.6654 11.7492 14.3636 11.556C14.0617 11.3628 13.7109 11.2602 13.3525 11.2602H12.2425C12.2052 11.2602 12.168 11.2569 12.1313 11.2502C12.03 11.232 11.9348 11.189 11.8541 11.1251C11.7734 11.0612 11.7097 10.9784 11.6688 10.884L10.0394 7.13024C9.84543 6.68319 9.52505 6.30256 9.11764 6.03518C8.71023 5.7678 8.23356 5.62531 7.74625 5.62524H7.51938V5.61524L7.505 5.62274V3.54524C7.505 3.35097 7.42783 3.16466 7.29046 3.02729C7.15309 2.88992 6.96677 2.81274 6.7725 2.81274C6.57823 2.81274 6.39192 2.88992 6.25454 3.02729C6.11717 3.16466 6.04 3.35097 6.04 3.54524V5.61524L5.1025 5.61462V3.54524C5.10234 3.32589 5.14542 3.10865 5.22929 2.90597C5.31315 2.70328 5.43616 2.51911 5.59127 2.36401C5.74637 2.2089 5.93054 2.0859 6.13322 2.00203C6.33591 1.91816 6.55315 1.87508 6.7725 1.87524ZM4.59 5.61399L3.6525 5.61337V3.54399C3.6525 3.34972 3.57533 3.16341 3.43796 3.02604C3.30059 2.88867 3.11427 2.81149 2.92 2.81149C2.72573 2.81149 2.53942 2.88867 2.40205 3.02604C2.26467 3.16341 2.1875 3.34972 2.1875 3.54399V4.81899C2.71875 4.97024 3.20563 5.24399 3.60688 5.62337C3.94566 5.94374 4.21572 6.3297 4.40063 6.75774L6.35625 11.2502L6.36063 11.2602V11.2615H7.26563C7.70193 11.2948 8.12603 11.4211 8.50938 11.6321C9.13063 11.9984 9.66125 12.5902 9.94313 13.2015L12.2506 18.1252H11.2188L9.09375 13.594C8.93145 13.2264 8.67898 12.9057 8.35974 12.6616C8.0405 12.4175 7.66481 12.258 7.2675 12.1977H6.86688V18.1252H5.92938V16.2502H2.1875V18.1252H1.25V3.54524C1.25 3.10233 1.42595 2.67756 1.73913 2.36437C2.05232 2.05119 2.47709 1.87524 2.92 1.87524C3.36291 1.87524 3.78768 2.05119 4.10087 2.36437C4.41405 2.67756 4.59 3.10233 4.59 3.54524V5.61399Z" fill="#00091B"/>
</g>
</g>
<defs>
<clipPath id="clip0_133_1061">
<rect width="20" height="20" fill="white"/>
</clipPath>
</defs>
</svg>
