<svg width="21" height="20" viewBox="0 0 21 20" fill="none" xmlns="http://www.w3.org/2000/svg">
<path d="M3.965 11.6082C3.67339 11.1224 3.51935 10.5664 3.51935 9.99984C3.51935 9.43324 3.67339 8.8773 3.965 8.3915C4.05462 8.24193 4.17454 8.11277 4.31705 8.01231C4.45956 7.91185 4.62152 7.84231 4.7925 7.80817L6.20334 7.52567C6.28748 7.50901 6.36336 7.46401 6.41834 7.39817L8.14167 5.329C9.12667 4.14567 9.62 3.55484 10.0592 3.714C10.4983 3.87317 10.5 4.64317 10.5 6.18317V13.8182C10.5 15.3573 10.5 16.1265 10.06 16.2865C9.62084 16.4448 9.1275 15.854 8.1425 14.6715L6.41667 12.6015C6.36191 12.5358 6.28634 12.4908 6.2025 12.474L4.79167 12.1915C4.62068 12.1574 4.45873 12.0878 4.31622 11.9874C4.17371 11.8869 4.05462 11.7577 3.965 11.6082Z" fill="#00091B"/>
<path d="M12.6133 7.05363C13.3909 7.83113 13.8295 8.88444 13.8338 9.984C13.838 11.0836 13.4074 12.1402 12.6358 12.9236M16.0475 5.28613C17.2915 6.53002 17.9935 8.21521 18.0003 9.97441C18.0072 11.7336 17.3185 13.4242 16.0842 14.6778" stroke="#00091B" stroke-width="2" stroke-linecap="round"/>
</svg>
