<svg width="20" height="20" viewBox="0 0 20 20" fill="none" xmlns="http://www.w3.org/2000/svg">
<path d="M18.1675 5.35388C17.9085 4.76647 17.5686 4.21823 17.1575 3.72513L14.9788 5.90388C15.4888 6.20573 16.0897 6.31616 16.6737 6.21538C17.2577 6.1146 17.7868 5.8092 18.1663 5.35388M14.0938 5.02013L16.2725 2.84138C15.7798 2.43042 15.232 2.09045 14.645 1.83138C14.1894 2.21084 13.8838 2.74017 13.783 3.3245C13.6822 3.90883 13.7928 4.50995 14.095 5.02013M12.5 3.75013C12.5 4.56013 12.7575 5.31013 13.1938 5.92263L12.1875 6.92888L7.8275 2.56763C8.61098 1.99844 9.5055 1.60055 10.4529 1.39984C11.4002 1.19912 12.3793 1.20007 13.3263 1.40263C12.7916 2.06826 12.5002 2.89639 12.5 3.75013ZM13.0712 7.81263L14.0775 6.80638C14.69 7.24388 15.44 7.50013 16.25 7.50013C17.1036 7.50032 17.9317 7.20929 18.5975 6.67513C18.6983 7.14346 18.7492 7.62679 18.75 8.12513C18.75 9.63763 18.2612 11.0376 17.4325 12.1739L13.0712 7.81263ZM16.605 13.1139L12.1875 8.69638L11.4313 9.45263C12.7312 10.9345 13.5289 12.7897 13.71 14.7526C14.81 14.4489 15.8 13.8764 16.605 13.1139ZM5.24625 6.29013C5.55 5.19013 6.12125 4.20013 6.88375 3.39513L11.3038 7.81263L10.5475 8.56888C9.06566 7.26889 7.20916 6.47122 5.24625 6.29013ZM3.125 7.50013C2.62772 7.50013 2.15081 7.69767 1.79917 8.0493C1.44754 8.40093 1.25 8.87785 1.25 9.37513V10.6251C1.25 12.78 2.10602 14.8466 3.62976 16.3704C5.15349 17.8941 7.22012 18.7501 9.375 18.7501H10.625C11.1223 18.7501 11.5992 18.5526 11.9508 18.201C12.3025 17.8493 12.5 17.3724 12.5 16.8751V15.6251C12.5 13.4702 11.644 11.4036 10.1202 9.87988C8.59651 8.35615 6.52988 7.50013 4.375 7.50013H3.125ZM5.495 11.7451C5.55306 11.6869 5.62203 11.6407 5.69796 11.6092C5.77389 11.5777 5.85529 11.5615 5.9375 11.5615C6.01971 11.5615 6.10111 11.5777 6.17704 11.6092C6.25297 11.6407 6.32194 11.6869 6.38 11.7451L8.255 13.6201C8.31311 13.6782 8.35921 13.7472 8.39065 13.8231C8.4221 13.8991 8.43829 13.9804 8.43829 14.0626C8.43829 14.1448 8.4221 14.2262 8.39065 14.3021C8.35921 14.378 8.31311 14.447 8.255 14.5051C8.19689 14.5632 8.1279 14.6093 8.05198 14.6408C7.97606 14.6722 7.89468 14.6884 7.8125 14.6884C7.73032 14.6884 7.64894 14.6722 7.57302 14.6408C7.4971 14.6093 7.42811 14.5632 7.37 14.5051L5.495 12.6301C5.4368 12.5721 5.39062 12.5031 5.35911 12.4272C5.3276 12.3512 5.31138 12.2698 5.31138 12.1876C5.31138 12.1054 5.3276 12.024 5.35911 11.9481C5.39062 11.8722 5.4368 11.8032 5.495 11.7451Z" fill="#00091B"/>
</svg>
