<svg width="20" height="20" viewBox="0 0 20 20" fill="none" xmlns="http://www.w3.org/2000/svg">
<path d="M10.4166 10.4163H16.6666V15.3205C16.6666 15.6905 16.5347 16.0072 16.2708 16.2705C16.0069 16.5338 15.6903 16.6658 15.3208 16.6663H10.4166V10.4163ZM10.4166 9.58301V3.33301H15.3208C15.6908 3.33301 16.0075 3.46495 16.2708 3.72884C16.5341 3.99273 16.6661 4.3094 16.6666 4.67884V9.58301H10.4166ZM9.58331 9.58301H3.33331V4.67967C3.33331 4.30912 3.46526 3.99217 3.72915 3.72884C3.99304 3.46551 4.3097 3.33356 4.67915 3.33301H9.58331V9.58301ZM9.58331 10.4163V16.6663H4.67998C4.30942 16.6663 3.99248 16.5344 3.72915 16.2705C3.46581 16.0066 3.33387 15.6902 3.33331 15.3213V10.4163H9.58331Z" fill="#00091B"/>
</svg>
