<svg width="40" height="40" viewBox="0 0 40 40" fill="none" xmlns="http://www.w3.org/2000/svg">
<path d="M22.6825 20.405C22.6724 20.933 22.5058 21.4461 22.2038 21.8793C21.9018 22.3124 21.478 22.6462 20.9861 22.8382C20.4941 23.0303 19.9563 23.072 19.4407 22.958C18.925 22.844 18.4549 22.5795 18.0897 22.198C17.7246 21.8165 17.481 21.3351 17.3897 20.815C17.2985 20.2949 17.3637 19.7594 17.5771 19.2764C17.7906 18.7933 18.1426 18.3846 18.5886 18.1019C19.0346 17.8191 19.5546 17.6752 20.0825 17.6883C20.784 17.7143 21.4478 18.0125 21.9331 18.5196C22.4185 19.0268 22.6873 19.703 22.6825 20.405Z" fill="#00091B"/>
<path d="M24.6045 12.0552H15.5628C14.6681 12.0552 13.8101 12.4106 13.1775 13.0432C12.5449 13.6758 12.1895 14.5338 12.1895 15.4285V24.6735C12.1895 25.1165 12.2767 25.5552 12.4462 25.9644C12.6158 26.3737 12.8642 26.7456 13.1775 27.0588C13.4907 27.3721 13.8626 27.6205 14.2719 27.7901C14.6811 27.9596 15.1198 28.0468 15.5628 28.0468H24.6045C25.0474 28.0468 25.4861 27.9596 25.8954 27.7901C26.3046 27.6205 26.6765 27.3721 26.9898 27.0588C27.303 26.7456 27.5515 26.3737 27.721 25.9644C27.8905 25.5552 27.9778 25.1165 27.9778 24.6735V15.4452C27.9795 15.0009 27.8936 14.5607 27.7249 14.1497C27.5562 13.7387 27.3081 13.365 26.9947 13.0501C26.6813 12.7351 26.3089 12.4852 25.8987 12.3144C25.4885 12.1437 25.0487 12.0556 24.6045 12.0552ZM20.0828 24.9268C19.1877 24.947 18.3069 24.7001 17.5529 24.2175C16.7988 23.735 16.2055 23.0386 15.8489 22.2174C15.4923 21.3962 15.3885 20.4874 15.5506 19.6069C15.7128 18.7265 16.1337 17.9143 16.7595 17.274C17.3853 16.6338 18.1876 16.1945 19.0642 16.0123C19.9407 15.8301 20.8517 15.9131 21.6808 16.2509C22.5099 16.5887 23.2196 17.1659 23.7193 17.9088C24.2189 18.6516 24.4859 19.5266 24.4861 20.4218C24.4934 21.0069 24.3852 21.5877 24.1677 22.1309C23.9503 22.6741 23.6278 23.1691 23.2188 23.5876C22.8098 24.006 22.3223 24.3397 21.7842 24.5695C21.246 24.7993 20.6679 24.9208 20.0828 24.9268ZM24.9761 15.9185C24.8661 15.9185 24.7573 15.8966 24.6559 15.854C24.5545 15.8114 24.4626 15.7491 24.3856 15.6705C24.3086 15.592 24.2481 15.4989 24.2075 15.3966C24.167 15.2944 24.1472 15.1851 24.1495 15.0752C24.1495 14.8515 24.2383 14.637 24.3965 14.4788C24.5546 14.3207 24.7691 14.2318 24.9928 14.2318C25.2165 14.2318 25.431 14.3207 25.5891 14.4788C25.7473 14.637 25.8361 14.8515 25.8361 15.0752C25.8394 15.1942 25.817 15.3126 25.7703 15.4222C25.7236 15.5318 25.6538 15.63 25.5656 15.71C25.4775 15.7901 25.373 15.8502 25.2595 15.8862C25.146 15.9222 25.026 15.9332 24.9078 15.9185H24.9761Z" fill="#00091B"/>
<path d="M20.0842 3.33322C15.6639 3.31112 11.4159 5.04587 8.27467 8.15584C5.13344 11.2658 3.35629 15.4963 3.33419 19.9165C3.31209 24.3368 5.04684 28.5848 8.15682 31.7261C11.2668 34.8673 15.4973 36.6445 19.9175 36.6666C22.1062 36.6775 24.2756 36.2572 26.3019 35.4298C28.3282 34.6023 30.1717 33.3838 31.7271 31.8439C33.2824 30.304 34.5193 28.4728 35.367 26.4549C36.2147 24.437 36.6566 22.2719 36.6675 20.0832C36.6785 17.8945 36.2582 15.7251 35.4307 13.6988C34.6033 11.6725 33.3848 9.82908 31.8449 8.2737C30.305 6.71831 28.4738 5.48147 26.4559 4.63378C24.438 3.78609 22.2729 3.34416 20.0842 3.33322ZM30.2059 24.5032C30.2105 25.2509 30.0667 25.9921 29.7827 26.6839C29.4988 27.3756 29.0804 28.0041 28.5517 28.5329C28.0231 29.0617 27.3947 29.4803 26.7031 29.7645C26.0114 30.0486 25.2703 30.1926 24.5225 30.1882H15.6492C14.9015 30.1929 14.1603 30.049 13.4685 29.7651C12.7768 29.4811 12.1483 29.0627 11.6195 28.5341C11.0907 28.0054 10.6721 27.3771 10.388 26.6854C10.1038 25.9938 9.95977 25.2526 9.96419 24.5049V15.6299C9.95955 14.8822 10.1034 14.141 10.3873 13.4492C10.6713 12.7575 11.0897 12.129 11.6183 11.6002C12.147 11.0714 12.7754 10.6528 13.467 10.3686C14.1586 10.0845 14.8998 9.94046 15.6475 9.94488H24.5225C25.2701 9.94046 26.0111 10.0844 26.7027 10.3685C27.3942 10.6525 28.0225 11.071 28.5511 11.5996C29.0797 12.1283 29.4982 12.7565 29.7823 13.4481C30.0663 14.1396 30.2103 14.8806 30.2059 15.6282V24.5032Z" fill="#00091B"/>
</svg>
