<svg width="40" height="40" viewBox="0 0 40 40" fill="none" xmlns="http://www.w3.org/2000/svg">
<path d="M20.0007 3.3335C16.7043 3.3335 13.482 4.31098 10.7412 6.14234C8.00034 7.97369 5.86413 10.5767 4.60267 13.6221C3.34121 16.6675 3.01115 20.0187 3.65424 23.2517C4.29732 26.4847 5.88467 29.4544 8.21555 31.7853C10.5464 34.1162 13.5161 35.7035 16.7492 36.3466C19.9822 36.9897 23.3333 36.6596 26.3787 35.3982C29.4242 34.1367 32.0271 32.0005 33.8585 29.2597C35.6898 26.5188 36.6673 23.2965 36.6673 20.0002C36.6629 15.5812 34.9055 11.3446 31.7809 8.21992C28.6562 5.09527 24.4196 3.33791 20.0007 3.3335ZM29.899 16.1885V17.2652C29.899 17.3476 29.8825 17.4291 29.8505 17.5051C29.8185 17.581 29.7716 17.6497 29.7125 17.7072C29.6535 17.7647 29.5835 17.8098 29.5068 17.8398C29.43 17.8698 29.348 17.8841 29.2657 17.8818C27.5059 17.7575 25.8224 17.1149 24.4273 16.0352V23.9152C24.4269 24.7873 24.2528 25.6506 23.9152 26.4547C23.5775 27.2588 23.083 27.9876 22.4607 28.5985C21.8332 29.2254 21.0869 29.7208 20.2655 30.0556C19.4442 30.3904 18.5643 30.558 17.6773 30.5485C15.8938 30.5459 14.1819 29.8461 12.9073 28.5985C12.0963 27.7808 11.5121 26.7661 11.2123 25.6542C10.9125 24.5422 10.9073 23.3714 11.1973 22.2568C11.4623 21.1868 11.9973 20.2035 12.7523 19.4018C13.3154 18.7136 14.0251 18.16 14.8296 17.7814C15.6342 17.4027 16.5132 17.2087 17.4023 17.2135H18.769V20.0518C18.7696 20.1343 18.7526 20.2159 18.7192 20.2912C18.6858 20.3666 18.6367 20.434 18.5752 20.4888C18.5137 20.5437 18.4412 20.5849 18.3625 20.6095C18.2838 20.6342 18.2008 20.6418 18.119 20.6318C17.3255 20.3935 16.4704 20.4725 15.7341 20.8523C14.9977 21.2321 14.4376 21.883 14.1717 22.6677C13.9059 23.4525 13.9551 24.3098 14.3091 25.0589C14.663 25.8081 15.294 26.3905 16.069 26.6835C16.519 26.9418 17.0223 27.0935 17.539 27.1285C17.939 27.1452 18.339 27.0952 18.719 26.9752C19.3534 26.7611 19.9052 26.3545 20.2974 25.812C20.6897 25.2694 20.9029 24.618 20.9073 23.9485V9.59016C20.9073 9.43132 20.9703 9.27896 21.0825 9.16649C21.1946 9.05401 21.3468 8.9906 21.5057 8.99016H23.864C24.0172 8.99035 24.1646 9.04916 24.2758 9.15453C24.3871 9.25989 24.4538 9.40383 24.4623 9.55683C24.5483 10.2922 24.7819 11.0027 25.149 11.6456C25.5162 12.2886 26.0093 12.8507 26.599 13.2985C27.3958 13.8966 28.3422 14.2634 29.334 14.3585C29.4825 14.3712 29.6215 14.4373 29.725 14.5445C29.8286 14.6518 29.8898 14.7929 29.8973 14.9418L29.899 16.1885Z" fill="#00091B"/>
</svg>
