<svg width="40" height="40" viewBox="0 0 40 40" fill="none" xmlns="http://www.w3.org/2000/svg">
<path d="M20.0017 3.3335C29.2067 3.3335 36.6683 10.7952 36.6683 20.0002C36.6683 29.2052 29.2067 36.6668 20.0017 36.6668C17.0562 36.6719 14.1626 35.8924 11.6183 34.4085L3.34165 36.6668L5.59499 28.3868C4.10992 25.8417 3.32982 22.9469 3.33499 20.0002C3.33499 10.7952 10.7967 3.3335 20.0017 3.3335ZM14.3217 12.1668L13.9883 12.1802C13.7728 12.195 13.5622 12.2516 13.3683 12.3468C13.1876 12.4493 13.0226 12.5773 12.8783 12.7268C12.6783 12.9152 12.565 13.0785 12.4433 13.2368C11.8269 14.0383 11.4949 15.0224 11.5 16.0335C11.5033 16.8502 11.7167 17.6452 12.05 18.3885C12.7317 19.8918 13.8533 21.4835 15.3333 22.9585C15.69 23.3135 16.04 23.6702 16.4167 24.0018C18.2557 25.6208 20.4471 26.7885 22.8167 27.4118L23.7633 27.5568C24.0717 27.5735 24.38 27.5502 24.69 27.5352C25.1753 27.5096 25.6491 27.3782 26.0783 27.1502C26.2964 27.0374 26.5094 26.9151 26.7167 26.7835C26.7167 26.7835 26.7872 26.7357 26.925 26.6335C27.15 26.4668 27.2883 26.3485 27.475 26.1535C27.615 26.0091 27.7317 25.8413 27.825 25.6502C27.955 25.3785 28.085 24.8602 28.1383 24.4285C28.1783 24.0985 28.1667 23.9185 28.1617 23.8068C28.155 23.6285 28.0067 23.4435 27.845 23.3652L26.875 22.9302C26.875 22.9302 25.425 22.2985 24.5383 21.8952C24.4455 21.8548 24.3461 21.8316 24.245 21.8268C24.1309 21.8149 24.0157 21.8276 23.907 21.8641C23.7983 21.9007 23.6987 21.9601 23.615 22.0385C23.6067 22.0352 23.495 22.1302 22.29 23.5902C22.2208 23.6831 22.1256 23.7533 22.0163 23.7919C21.9071 23.8305 21.7888 23.8357 21.6767 23.8068C21.568 23.7779 21.4616 23.7411 21.3583 23.6968C21.1517 23.6102 21.08 23.5768 20.9383 23.5168C19.9814 23.1 19.0957 22.536 18.3133 21.8452C18.1033 21.6618 17.9083 21.4618 17.7083 21.2685C17.0527 20.6405 16.4812 19.9301 16.0083 19.1552L15.91 18.9968C15.8404 18.8898 15.7834 18.7752 15.74 18.6552C15.6767 18.4102 15.8417 18.2135 15.8417 18.2135C15.8417 18.2135 16.2467 17.7702 16.435 17.5302C16.6183 17.2968 16.7733 17.0702 16.8733 16.9085C17.07 16.5918 17.1317 16.2668 17.0283 16.0152C16.5617 14.8752 16.0794 13.7413 15.5817 12.6135C15.4833 12.3902 15.1917 12.2302 14.9267 12.1985C14.8367 12.1874 14.7467 12.1785 14.6567 12.1718C14.4329 12.159 14.2085 12.1612 13.985 12.1785L14.3217 12.1668Z" fill="#00091B"/>
</svg>
