<svg width="40" height="40" viewBox="0 0 40 40" fill="none" xmlns="http://www.w3.org/2000/svg">
<g clip-path="url(#clip0_300_3313)">
<path d="M23.2068 19.6658L18.7148 17.5698C18.3228 17.3878 18.0008 17.5918 18.0008 18.0258V21.9738C18.0008 22.4078 18.3228 22.6118 18.7148 22.4298L23.2048 20.3338C23.5988 20.1498 23.5988 19.8498 23.2068 19.6658ZM20.0008 0.799805C9.39678 0.799805 0.800781 9.39581 0.800781 19.9998C0.800781 30.6038 9.39678 39.1998 20.0008 39.1998C30.6048 39.1998 39.2008 30.6038 39.2008 19.9998C39.2008 9.39581 30.6048 0.799805 20.0008 0.799805ZM20.0008 27.7998C10.1728 27.7998 10.0008 26.9138 10.0008 19.9998C10.0008 13.0858 10.1728 12.1998 20.0008 12.1998C29.8288 12.1998 30.0008 13.0858 30.0008 19.9998C30.0008 26.9138 29.8288 27.7998 20.0008 27.7998Z" fill="#00091B"/>
</g>
<defs>
<clipPath id="clip0_300_3313">
<rect width="40" height="40" fill="white"/>
</clipPath>
</defs>
</svg>
